G04 EAGLE Gerber RS-274X export*
G75*
%MOMM*%
%FSLAX34Y34*%
%LPD*%
%INCopper Layer 15*%
%IPPOS*%
%AMOC8*
5,1,8,0,0,1.08239X$1,22.5*%
G01*
%ADD10C,1.244600*%
%ADD11C,1.960000*%
%ADD12C,4.191000*%
%ADD13C,0.609600*%

G36*
X628768Y2556D02*
X628768Y2556D01*
X628887Y2563D01*
X628925Y2576D01*
X628966Y2581D01*
X629076Y2624D01*
X629189Y2661D01*
X629224Y2683D01*
X629261Y2698D01*
X629357Y2767D01*
X629458Y2831D01*
X629486Y2861D01*
X629519Y2884D01*
X629595Y2976D01*
X629676Y3063D01*
X629696Y3098D01*
X629721Y3129D01*
X629772Y3237D01*
X629830Y3341D01*
X629840Y3381D01*
X629857Y3417D01*
X629879Y3534D01*
X629909Y3649D01*
X629913Y3709D01*
X629917Y3729D01*
X629915Y3750D01*
X629919Y3810D01*
X629919Y374650D01*
X629904Y374768D01*
X629897Y374887D01*
X629884Y374925D01*
X629879Y374966D01*
X629836Y375076D01*
X629799Y375189D01*
X629777Y375224D01*
X629762Y375261D01*
X629693Y375357D01*
X629629Y375458D01*
X629599Y375486D01*
X629576Y375519D01*
X629484Y375595D01*
X629397Y375676D01*
X629362Y375696D01*
X629331Y375721D01*
X629223Y375772D01*
X629119Y375830D01*
X629079Y375840D01*
X629043Y375857D01*
X628926Y375879D01*
X628811Y375909D01*
X628751Y375913D01*
X628731Y375917D01*
X628710Y375915D01*
X628650Y375919D01*
X3810Y375919D01*
X3692Y375904D01*
X3573Y375897D01*
X3535Y375884D01*
X3494Y375879D01*
X3384Y375836D01*
X3271Y375799D01*
X3236Y375777D01*
X3199Y375762D01*
X3103Y375693D01*
X3002Y375629D01*
X2974Y375599D01*
X2941Y375576D01*
X2865Y375484D01*
X2784Y375397D01*
X2764Y375362D01*
X2739Y375331D01*
X2688Y375223D01*
X2630Y375119D01*
X2620Y375079D01*
X2603Y375043D01*
X2581Y374926D01*
X2551Y374811D01*
X2547Y374751D01*
X2543Y374731D01*
X2545Y374710D01*
X2541Y374650D01*
X2541Y3810D01*
X2556Y3692D01*
X2563Y3573D01*
X2576Y3535D01*
X2581Y3494D01*
X2624Y3384D01*
X2661Y3271D01*
X2683Y3236D01*
X2698Y3199D01*
X2767Y3103D01*
X2831Y3002D01*
X2861Y2974D01*
X2884Y2941D01*
X2976Y2865D01*
X3063Y2784D01*
X3098Y2764D01*
X3129Y2739D01*
X3237Y2688D01*
X3341Y2630D01*
X3381Y2620D01*
X3417Y2603D01*
X3534Y2581D01*
X3649Y2551D01*
X3709Y2547D01*
X3729Y2543D01*
X3750Y2545D01*
X3810Y2541D01*
X628650Y2541D01*
X628768Y2556D01*
G37*
%LPC*%
G36*
X592479Y320674D02*
X592479Y320674D01*
X584310Y324058D01*
X578058Y330310D01*
X574674Y338479D01*
X574674Y347321D01*
X578058Y355490D01*
X584310Y361742D01*
X592479Y365126D01*
X601321Y365126D01*
X609490Y361742D01*
X615742Y355490D01*
X619126Y347321D01*
X619126Y338479D01*
X615742Y330310D01*
X609490Y324058D01*
X601321Y320674D01*
X592479Y320674D01*
G37*
%LPD*%
%LPC*%
G36*
X31139Y320674D02*
X31139Y320674D01*
X22970Y324058D01*
X16718Y330310D01*
X13334Y338479D01*
X13334Y347321D01*
X16718Y355490D01*
X22970Y361742D01*
X31139Y365126D01*
X39981Y365126D01*
X48150Y361742D01*
X54402Y355490D01*
X57786Y347321D01*
X57786Y338479D01*
X54402Y330310D01*
X48150Y324058D01*
X39981Y320674D01*
X31139Y320674D01*
G37*
%LPD*%
%LPC*%
G36*
X31139Y13334D02*
X31139Y13334D01*
X22970Y16718D01*
X16718Y22970D01*
X13334Y31139D01*
X13334Y39981D01*
X16718Y48150D01*
X22970Y54402D01*
X31139Y57786D01*
X39981Y57786D01*
X48150Y54402D01*
X54402Y48150D01*
X57786Y39981D01*
X57786Y31139D01*
X54402Y22970D01*
X48150Y16718D01*
X39981Y13334D01*
X31139Y13334D01*
G37*
%LPD*%
%LPC*%
G36*
X592479Y13334D02*
X592479Y13334D01*
X584310Y16718D01*
X578058Y22970D01*
X574674Y31139D01*
X574674Y39981D01*
X578058Y48150D01*
X584310Y54402D01*
X592479Y57786D01*
X601321Y57786D01*
X609490Y54402D01*
X615742Y48150D01*
X619126Y39981D01*
X619126Y31139D01*
X615742Y22970D01*
X609490Y16718D01*
X601321Y13334D01*
X592479Y13334D01*
G37*
%LPD*%
%LPC*%
G36*
X485878Y114389D02*
X485878Y114389D01*
X481809Y116075D01*
X478695Y119189D01*
X477009Y123258D01*
X477009Y127662D01*
X478695Y131731D01*
X481809Y134845D01*
X485878Y136531D01*
X490282Y136531D01*
X494351Y134845D01*
X497465Y131731D01*
X499151Y127662D01*
X499151Y123258D01*
X497465Y119189D01*
X494351Y116075D01*
X490282Y114389D01*
X485878Y114389D01*
G37*
%LPD*%
%LPC*%
G36*
X535878Y114389D02*
X535878Y114389D01*
X531809Y116075D01*
X528695Y119189D01*
X527009Y123258D01*
X527009Y127662D01*
X528695Y131731D01*
X531809Y134845D01*
X535878Y136531D01*
X540282Y136531D01*
X544351Y134845D01*
X547465Y131731D01*
X549151Y127662D01*
X549151Y123258D01*
X547465Y119189D01*
X544351Y116075D01*
X540282Y114389D01*
X535878Y114389D01*
G37*
%LPD*%
%LPC*%
G36*
X485878Y239389D02*
X485878Y239389D01*
X481809Y241075D01*
X478695Y244189D01*
X477009Y248258D01*
X477009Y252662D01*
X478695Y256731D01*
X481809Y259845D01*
X485878Y261531D01*
X490282Y261531D01*
X494351Y259845D01*
X497465Y256731D01*
X499151Y252662D01*
X499151Y248258D01*
X497465Y244189D01*
X494351Y241075D01*
X490282Y239389D01*
X485878Y239389D01*
G37*
%LPD*%
%LPC*%
G36*
X535878Y239389D02*
X535878Y239389D01*
X531809Y241075D01*
X528695Y244189D01*
X527009Y248258D01*
X527009Y252662D01*
X528695Y256731D01*
X531809Y259845D01*
X535878Y261531D01*
X540282Y261531D01*
X544351Y259845D01*
X547465Y256731D01*
X549151Y252662D01*
X549151Y248258D01*
X547465Y244189D01*
X544351Y241075D01*
X540282Y239389D01*
X535878Y239389D01*
G37*
%LPD*%
%LPC*%
G36*
X380189Y320426D02*
X380189Y320426D01*
X377435Y321567D01*
X375327Y323675D01*
X374186Y326429D01*
X374186Y329411D01*
X375327Y332165D01*
X377435Y334273D01*
X380189Y335414D01*
X383171Y335414D01*
X385925Y334273D01*
X388033Y332165D01*
X389174Y329411D01*
X389174Y326429D01*
X388033Y323675D01*
X385925Y321567D01*
X383171Y320426D01*
X380189Y320426D01*
G37*
%LPD*%
%LPC*%
G36*
X354789Y320426D02*
X354789Y320426D01*
X352035Y321567D01*
X349927Y323675D01*
X348786Y326429D01*
X348786Y329411D01*
X349927Y332165D01*
X352035Y334273D01*
X354789Y335414D01*
X357771Y335414D01*
X360525Y334273D01*
X362633Y332165D01*
X363774Y329411D01*
X363774Y326429D01*
X362633Y323675D01*
X360525Y321567D01*
X357771Y320426D01*
X354789Y320426D01*
G37*
%LPD*%
%LPC*%
G36*
X329389Y320426D02*
X329389Y320426D01*
X326635Y321567D01*
X324527Y323675D01*
X323386Y326429D01*
X323386Y329411D01*
X324527Y332165D01*
X326635Y334273D01*
X329389Y335414D01*
X332371Y335414D01*
X335125Y334273D01*
X337233Y332165D01*
X338374Y329411D01*
X338374Y326429D01*
X337233Y323675D01*
X335125Y321567D01*
X332371Y320426D01*
X329389Y320426D01*
G37*
%LPD*%
%LPC*%
G36*
X303989Y320426D02*
X303989Y320426D01*
X301235Y321567D01*
X299127Y323675D01*
X297986Y326429D01*
X297986Y329411D01*
X299127Y332165D01*
X301235Y334273D01*
X303989Y335414D01*
X306971Y335414D01*
X309725Y334273D01*
X311833Y332165D01*
X312974Y329411D01*
X312974Y326429D01*
X311833Y323675D01*
X309725Y321567D01*
X306971Y320426D01*
X303989Y320426D01*
G37*
%LPD*%
%LPC*%
G36*
X278589Y320426D02*
X278589Y320426D01*
X275835Y321567D01*
X273727Y323675D01*
X272586Y326429D01*
X272586Y329411D01*
X273727Y332165D01*
X275835Y334273D01*
X278589Y335414D01*
X281571Y335414D01*
X284325Y334273D01*
X286433Y332165D01*
X287574Y329411D01*
X287574Y326429D01*
X286433Y323675D01*
X284325Y321567D01*
X281571Y320426D01*
X278589Y320426D01*
G37*
%LPD*%
%LPC*%
G36*
X253189Y320426D02*
X253189Y320426D01*
X250435Y321567D01*
X248327Y323675D01*
X247186Y326429D01*
X247186Y329411D01*
X248327Y332165D01*
X250435Y334273D01*
X253189Y335414D01*
X256171Y335414D01*
X258925Y334273D01*
X261033Y332165D01*
X262174Y329411D01*
X262174Y326429D01*
X261033Y323675D01*
X258925Y321567D01*
X256171Y320426D01*
X253189Y320426D01*
G37*
%LPD*%
%LPC*%
G36*
X227789Y320426D02*
X227789Y320426D01*
X225035Y321567D01*
X222927Y323675D01*
X221786Y326429D01*
X221786Y329411D01*
X222927Y332165D01*
X225035Y334273D01*
X227789Y335414D01*
X230771Y335414D01*
X233525Y334273D01*
X235633Y332165D01*
X236774Y329411D01*
X236774Y326429D01*
X235633Y323675D01*
X233525Y321567D01*
X230771Y320426D01*
X227789Y320426D01*
G37*
%LPD*%
%LPC*%
G36*
X202389Y320426D02*
X202389Y320426D01*
X199635Y321567D01*
X197527Y323675D01*
X196386Y326429D01*
X196386Y329411D01*
X197527Y332165D01*
X199635Y334273D01*
X202389Y335414D01*
X205371Y335414D01*
X208125Y334273D01*
X210233Y332165D01*
X211374Y329411D01*
X211374Y326429D01*
X210233Y323675D01*
X208125Y321567D01*
X205371Y320426D01*
X202389Y320426D01*
G37*
%LPD*%
%LPC*%
G36*
X176989Y320426D02*
X176989Y320426D01*
X174235Y321567D01*
X172127Y323675D01*
X170986Y326429D01*
X170986Y329411D01*
X172127Y332165D01*
X174235Y334273D01*
X176989Y335414D01*
X179971Y335414D01*
X182725Y334273D01*
X184833Y332165D01*
X185974Y329411D01*
X185974Y326429D01*
X184833Y323675D01*
X182725Y321567D01*
X179971Y320426D01*
X176989Y320426D01*
G37*
%LPD*%
%LPC*%
G36*
X151589Y320426D02*
X151589Y320426D01*
X148835Y321567D01*
X146727Y323675D01*
X145586Y326429D01*
X145586Y329411D01*
X146727Y332165D01*
X148835Y334273D01*
X151589Y335414D01*
X154571Y335414D01*
X157325Y334273D01*
X159433Y332165D01*
X160574Y329411D01*
X160574Y326429D01*
X159433Y323675D01*
X157325Y321567D01*
X154571Y320426D01*
X151589Y320426D01*
G37*
%LPD*%
%LPC*%
G36*
X126189Y320426D02*
X126189Y320426D01*
X123435Y321567D01*
X121327Y323675D01*
X120186Y326429D01*
X120186Y329411D01*
X121327Y332165D01*
X123435Y334273D01*
X126189Y335414D01*
X129171Y335414D01*
X131925Y334273D01*
X134033Y332165D01*
X135174Y329411D01*
X135174Y326429D01*
X134033Y323675D01*
X131925Y321567D01*
X129171Y320426D01*
X126189Y320426D01*
G37*
%LPD*%
%LPC*%
G36*
X100789Y320426D02*
X100789Y320426D01*
X98035Y321567D01*
X95927Y323675D01*
X94786Y326429D01*
X94786Y329411D01*
X95927Y332165D01*
X98035Y334273D01*
X100789Y335414D01*
X103771Y335414D01*
X106525Y334273D01*
X108633Y332165D01*
X109774Y329411D01*
X109774Y326429D01*
X108633Y323675D01*
X106525Y321567D01*
X103771Y320426D01*
X100789Y320426D01*
G37*
%LPD*%
%LPC*%
G36*
X151589Y41026D02*
X151589Y41026D01*
X148835Y42167D01*
X146727Y44275D01*
X145586Y47029D01*
X145586Y50011D01*
X146727Y52765D01*
X148835Y54873D01*
X151589Y56014D01*
X154571Y56014D01*
X157325Y54873D01*
X159433Y52765D01*
X160574Y50011D01*
X160574Y47029D01*
X159433Y44275D01*
X157325Y42167D01*
X154571Y41026D01*
X151589Y41026D01*
G37*
%LPD*%
%LPC*%
G36*
X176989Y41026D02*
X176989Y41026D01*
X174235Y42167D01*
X172127Y44275D01*
X170986Y47029D01*
X170986Y50011D01*
X172127Y52765D01*
X174235Y54873D01*
X176989Y56014D01*
X179971Y56014D01*
X182725Y54873D01*
X184833Y52765D01*
X185974Y50011D01*
X185974Y47029D01*
X184833Y44275D01*
X182725Y42167D01*
X179971Y41026D01*
X176989Y41026D01*
G37*
%LPD*%
%LPC*%
G36*
X532589Y295026D02*
X532589Y295026D01*
X529835Y296167D01*
X527727Y298275D01*
X526586Y301029D01*
X526586Y304011D01*
X527727Y306765D01*
X529835Y308873D01*
X532589Y310014D01*
X535571Y310014D01*
X538325Y308873D01*
X540433Y306765D01*
X541574Y304011D01*
X541574Y301029D01*
X540433Y298275D01*
X538325Y296167D01*
X535571Y295026D01*
X532589Y295026D01*
G37*
%LPD*%
%LPC*%
G36*
X507189Y295026D02*
X507189Y295026D01*
X504435Y296167D01*
X502327Y298275D01*
X501186Y301029D01*
X501186Y304011D01*
X502327Y306765D01*
X504435Y308873D01*
X507189Y310014D01*
X510171Y310014D01*
X512925Y308873D01*
X515033Y306765D01*
X516174Y304011D01*
X516174Y301029D01*
X515033Y298275D01*
X512925Y296167D01*
X510171Y295026D01*
X507189Y295026D01*
G37*
%LPD*%
%LPC*%
G36*
X481789Y295026D02*
X481789Y295026D01*
X479035Y296167D01*
X476927Y298275D01*
X475786Y301029D01*
X475786Y304011D01*
X476927Y306765D01*
X479035Y308873D01*
X481789Y310014D01*
X484771Y310014D01*
X487525Y308873D01*
X489633Y306765D01*
X490774Y304011D01*
X490774Y301029D01*
X489633Y298275D01*
X487525Y296167D01*
X484771Y295026D01*
X481789Y295026D01*
G37*
%LPD*%
%LPC*%
G36*
X456389Y295026D02*
X456389Y295026D01*
X453635Y296167D01*
X451527Y298275D01*
X450386Y301029D01*
X450386Y304011D01*
X451527Y306765D01*
X453635Y308873D01*
X456389Y310014D01*
X459371Y310014D01*
X462125Y308873D01*
X464233Y306765D01*
X465374Y304011D01*
X465374Y301029D01*
X464233Y298275D01*
X462125Y296167D01*
X459371Y295026D01*
X456389Y295026D01*
G37*
%LPD*%
%LPC*%
G36*
X430989Y295026D02*
X430989Y295026D01*
X428235Y296167D01*
X426127Y298275D01*
X424986Y301029D01*
X424986Y304011D01*
X426127Y306765D01*
X428235Y308873D01*
X430989Y310014D01*
X433971Y310014D01*
X436725Y308873D01*
X438833Y306765D01*
X439974Y304011D01*
X439974Y301029D01*
X438833Y298275D01*
X436725Y296167D01*
X433971Y295026D01*
X430989Y295026D01*
G37*
%LPD*%
%LPC*%
G36*
X405589Y295026D02*
X405589Y295026D01*
X402835Y296167D01*
X400727Y298275D01*
X399586Y301029D01*
X399586Y304011D01*
X400727Y306765D01*
X402835Y308873D01*
X405589Y310014D01*
X408571Y310014D01*
X411325Y308873D01*
X413433Y306765D01*
X414574Y304011D01*
X414574Y301029D01*
X413433Y298275D01*
X411325Y296167D01*
X408571Y295026D01*
X405589Y295026D01*
G37*
%LPD*%
%LPC*%
G36*
X380189Y295026D02*
X380189Y295026D01*
X377435Y296167D01*
X375327Y298275D01*
X374186Y301029D01*
X374186Y304011D01*
X375327Y306765D01*
X377435Y308873D01*
X380189Y310014D01*
X383171Y310014D01*
X385925Y308873D01*
X388033Y306765D01*
X389174Y304011D01*
X389174Y301029D01*
X388033Y298275D01*
X385925Y296167D01*
X383171Y295026D01*
X380189Y295026D01*
G37*
%LPD*%
%LPC*%
G36*
X354789Y295026D02*
X354789Y295026D01*
X352035Y296167D01*
X349927Y298275D01*
X348786Y301029D01*
X348786Y304011D01*
X349927Y306765D01*
X352035Y308873D01*
X354789Y310014D01*
X357771Y310014D01*
X360525Y308873D01*
X362633Y306765D01*
X363774Y304011D01*
X363774Y301029D01*
X362633Y298275D01*
X360525Y296167D01*
X357771Y295026D01*
X354789Y295026D01*
G37*
%LPD*%
%LPC*%
G36*
X329389Y295026D02*
X329389Y295026D01*
X326635Y296167D01*
X324527Y298275D01*
X323386Y301029D01*
X323386Y304011D01*
X324527Y306765D01*
X326635Y308873D01*
X329389Y310014D01*
X332371Y310014D01*
X335125Y308873D01*
X337233Y306765D01*
X338374Y304011D01*
X338374Y301029D01*
X337233Y298275D01*
X335125Y296167D01*
X332371Y295026D01*
X329389Y295026D01*
G37*
%LPD*%
%LPC*%
G36*
X303989Y295026D02*
X303989Y295026D01*
X301235Y296167D01*
X299127Y298275D01*
X297986Y301029D01*
X297986Y304011D01*
X299127Y306765D01*
X301235Y308873D01*
X303989Y310014D01*
X306971Y310014D01*
X309725Y308873D01*
X311833Y306765D01*
X312974Y304011D01*
X312974Y301029D01*
X311833Y298275D01*
X309725Y296167D01*
X306971Y295026D01*
X303989Y295026D01*
G37*
%LPD*%
%LPC*%
G36*
X278589Y295026D02*
X278589Y295026D01*
X275835Y296167D01*
X273727Y298275D01*
X272586Y301029D01*
X272586Y304011D01*
X273727Y306765D01*
X275835Y308873D01*
X278589Y310014D01*
X281571Y310014D01*
X284325Y308873D01*
X286433Y306765D01*
X287574Y304011D01*
X287574Y301029D01*
X286433Y298275D01*
X284325Y296167D01*
X281571Y295026D01*
X278589Y295026D01*
G37*
%LPD*%
%LPC*%
G36*
X227789Y295026D02*
X227789Y295026D01*
X225035Y296167D01*
X222927Y298275D01*
X221786Y301029D01*
X221786Y304011D01*
X222927Y306765D01*
X225035Y308873D01*
X227789Y310014D01*
X230771Y310014D01*
X233525Y308873D01*
X235633Y306765D01*
X236774Y304011D01*
X236774Y301029D01*
X235633Y298275D01*
X233525Y296167D01*
X230771Y295026D01*
X227789Y295026D01*
G37*
%LPD*%
%LPC*%
G36*
X202389Y295026D02*
X202389Y295026D01*
X199635Y296167D01*
X197527Y298275D01*
X196386Y301029D01*
X196386Y304011D01*
X197527Y306765D01*
X199635Y308873D01*
X202389Y310014D01*
X205371Y310014D01*
X208125Y308873D01*
X210233Y306765D01*
X211374Y304011D01*
X211374Y301029D01*
X210233Y298275D01*
X208125Y296167D01*
X205371Y295026D01*
X202389Y295026D01*
G37*
%LPD*%
%LPC*%
G36*
X176989Y295026D02*
X176989Y295026D01*
X174235Y296167D01*
X172127Y298275D01*
X170986Y301029D01*
X170986Y304011D01*
X172127Y306765D01*
X174235Y308873D01*
X176989Y310014D01*
X179971Y310014D01*
X182725Y308873D01*
X184833Y306765D01*
X185974Y304011D01*
X185974Y301029D01*
X184833Y298275D01*
X182725Y296167D01*
X179971Y295026D01*
X176989Y295026D01*
G37*
%LPD*%
%LPC*%
G36*
X151589Y295026D02*
X151589Y295026D01*
X148835Y296167D01*
X146727Y298275D01*
X145586Y301029D01*
X145586Y304011D01*
X146727Y306765D01*
X148835Y308873D01*
X151589Y310014D01*
X154571Y310014D01*
X157325Y308873D01*
X159433Y306765D01*
X160574Y304011D01*
X160574Y301029D01*
X159433Y298275D01*
X157325Y296167D01*
X154571Y295026D01*
X151589Y295026D01*
G37*
%LPD*%
%LPC*%
G36*
X126189Y295026D02*
X126189Y295026D01*
X123435Y296167D01*
X121327Y298275D01*
X120186Y301029D01*
X120186Y304011D01*
X121327Y306765D01*
X123435Y308873D01*
X126189Y310014D01*
X129171Y310014D01*
X131925Y308873D01*
X134033Y306765D01*
X135174Y304011D01*
X135174Y301029D01*
X134033Y298275D01*
X131925Y296167D01*
X129171Y295026D01*
X126189Y295026D01*
G37*
%LPD*%
%LPC*%
G36*
X100789Y295026D02*
X100789Y295026D01*
X98035Y296167D01*
X95927Y298275D01*
X94786Y301029D01*
X94786Y304011D01*
X95927Y306765D01*
X98035Y308873D01*
X100789Y310014D01*
X103771Y310014D01*
X106525Y308873D01*
X108633Y306765D01*
X109774Y304011D01*
X109774Y301029D01*
X108633Y298275D01*
X106525Y296167D01*
X103771Y295026D01*
X100789Y295026D01*
G37*
%LPD*%
%LPC*%
G36*
X202389Y41026D02*
X202389Y41026D01*
X199635Y42167D01*
X197527Y44275D01*
X196386Y47029D01*
X196386Y50011D01*
X197527Y52765D01*
X199635Y54873D01*
X202389Y56014D01*
X205371Y56014D01*
X208125Y54873D01*
X210233Y52765D01*
X211374Y50011D01*
X211374Y47029D01*
X210233Y44275D01*
X208125Y42167D01*
X205371Y41026D01*
X202389Y41026D01*
G37*
%LPD*%
%LPC*%
G36*
X227789Y41026D02*
X227789Y41026D01*
X225035Y42167D01*
X222927Y44275D01*
X221786Y47029D01*
X221786Y50011D01*
X222927Y52765D01*
X225035Y54873D01*
X227789Y56014D01*
X230771Y56014D01*
X233525Y54873D01*
X235633Y52765D01*
X236774Y50011D01*
X236774Y47029D01*
X235633Y44275D01*
X233525Y42167D01*
X230771Y41026D01*
X227789Y41026D01*
G37*
%LPD*%
%LPC*%
G36*
X46769Y279526D02*
X46769Y279526D01*
X44015Y280667D01*
X41907Y282775D01*
X40766Y285529D01*
X40766Y288511D01*
X41907Y291265D01*
X44015Y293373D01*
X46769Y294514D01*
X49751Y294514D01*
X52505Y293373D01*
X54613Y291265D01*
X55754Y288511D01*
X55754Y285529D01*
X54613Y282775D01*
X52505Y280667D01*
X49751Y279526D01*
X46769Y279526D01*
G37*
%LPD*%
%LPC*%
G36*
X46769Y254126D02*
X46769Y254126D01*
X44015Y255267D01*
X41907Y257375D01*
X40766Y260129D01*
X40766Y263111D01*
X41907Y265865D01*
X44015Y267973D01*
X46769Y269114D01*
X49751Y269114D01*
X52505Y267973D01*
X54613Y265865D01*
X55754Y263111D01*
X55754Y260129D01*
X54613Y257375D01*
X52505Y255267D01*
X49751Y254126D01*
X46769Y254126D01*
G37*
%LPD*%
%LPC*%
G36*
X253189Y41026D02*
X253189Y41026D01*
X250435Y42167D01*
X248327Y44275D01*
X247186Y47029D01*
X247186Y50011D01*
X248327Y52765D01*
X250435Y54873D01*
X253189Y56014D01*
X256171Y56014D01*
X258925Y54873D01*
X261033Y52765D01*
X262174Y50011D01*
X262174Y47029D01*
X261033Y44275D01*
X258925Y42167D01*
X256171Y41026D01*
X253189Y41026D01*
G37*
%LPD*%
%LPC*%
G36*
X405589Y320426D02*
X405589Y320426D01*
X402835Y321567D01*
X400727Y323675D01*
X399586Y326429D01*
X399586Y329411D01*
X400727Y332165D01*
X402835Y334273D01*
X405589Y335414D01*
X408571Y335414D01*
X411325Y334273D01*
X413433Y332165D01*
X414574Y329411D01*
X414574Y326429D01*
X413433Y323675D01*
X411325Y321567D01*
X408571Y320426D01*
X405589Y320426D01*
G37*
%LPD*%
%LPC*%
G36*
X430989Y320426D02*
X430989Y320426D01*
X428235Y321567D01*
X426127Y323675D01*
X424986Y326429D01*
X424986Y329411D01*
X426127Y332165D01*
X428235Y334273D01*
X430989Y335414D01*
X433971Y335414D01*
X436725Y334273D01*
X438833Y332165D01*
X439974Y329411D01*
X439974Y326429D01*
X438833Y323675D01*
X436725Y321567D01*
X433971Y320426D01*
X430989Y320426D01*
G37*
%LPD*%
%LPC*%
G36*
X278589Y41026D02*
X278589Y41026D01*
X275835Y42167D01*
X273727Y44275D01*
X272586Y47029D01*
X272586Y50011D01*
X273727Y52765D01*
X275835Y54873D01*
X278589Y56014D01*
X281571Y56014D01*
X284325Y54873D01*
X286433Y52765D01*
X287574Y50011D01*
X287574Y47029D01*
X286433Y44275D01*
X284325Y42167D01*
X281571Y41026D01*
X278589Y41026D01*
G37*
%LPD*%
%LPC*%
G36*
X46769Y210946D02*
X46769Y210946D01*
X44015Y212087D01*
X41907Y214195D01*
X40766Y216949D01*
X40766Y219931D01*
X41907Y222685D01*
X44015Y224793D01*
X46769Y225934D01*
X49751Y225934D01*
X52505Y224793D01*
X54613Y222685D01*
X55754Y219931D01*
X55754Y216949D01*
X54613Y214195D01*
X52505Y212087D01*
X49751Y210946D01*
X46769Y210946D01*
G37*
%LPD*%
%LPC*%
G36*
X303989Y41026D02*
X303989Y41026D01*
X301235Y42167D01*
X299127Y44275D01*
X297986Y47029D01*
X297986Y50011D01*
X299127Y52765D01*
X301235Y54873D01*
X303989Y56014D01*
X306971Y56014D01*
X309725Y54873D01*
X311833Y52765D01*
X312974Y50011D01*
X312974Y47029D01*
X311833Y44275D01*
X309725Y42167D01*
X306971Y41026D01*
X303989Y41026D01*
G37*
%LPD*%
%LPC*%
G36*
X46769Y185546D02*
X46769Y185546D01*
X44015Y186687D01*
X41907Y188795D01*
X40766Y191549D01*
X40766Y194531D01*
X41907Y197285D01*
X44015Y199393D01*
X46769Y200534D01*
X49751Y200534D01*
X52505Y199393D01*
X54613Y197285D01*
X55754Y194531D01*
X55754Y191549D01*
X54613Y188795D01*
X52505Y186687D01*
X49751Y185546D01*
X46769Y185546D01*
G37*
%LPD*%
%LPC*%
G36*
X329389Y41026D02*
X329389Y41026D01*
X326635Y42167D01*
X324527Y44275D01*
X323386Y47029D01*
X323386Y50011D01*
X324527Y52765D01*
X326635Y54873D01*
X329389Y56014D01*
X332371Y56014D01*
X335125Y54873D01*
X337233Y52765D01*
X338374Y50011D01*
X338374Y47029D01*
X337233Y44275D01*
X335125Y42167D01*
X332371Y41026D01*
X329389Y41026D01*
G37*
%LPD*%
%LPC*%
G36*
X354789Y41026D02*
X354789Y41026D01*
X352035Y42167D01*
X349927Y44275D01*
X348786Y47029D01*
X348786Y50011D01*
X349927Y52765D01*
X352035Y54873D01*
X354789Y56014D01*
X357771Y56014D01*
X360525Y54873D01*
X362633Y52765D01*
X363774Y50011D01*
X363774Y47029D01*
X362633Y44275D01*
X360525Y42167D01*
X357771Y41026D01*
X354789Y41026D01*
G37*
%LPD*%
%LPC*%
G36*
X46769Y160146D02*
X46769Y160146D01*
X44015Y161287D01*
X41907Y163395D01*
X40766Y166149D01*
X40766Y169131D01*
X41907Y171885D01*
X44015Y173993D01*
X46769Y175134D01*
X49751Y175134D01*
X52505Y173993D01*
X54613Y171885D01*
X55754Y169131D01*
X55754Y166149D01*
X54613Y163395D01*
X52505Y161287D01*
X49751Y160146D01*
X46769Y160146D01*
G37*
%LPD*%
%LPC*%
G36*
X380189Y41026D02*
X380189Y41026D01*
X377435Y42167D01*
X375327Y44275D01*
X374186Y47029D01*
X374186Y50011D01*
X375327Y52765D01*
X377435Y54873D01*
X380189Y56014D01*
X383171Y56014D01*
X385925Y54873D01*
X388033Y52765D01*
X389174Y50011D01*
X389174Y47029D01*
X388033Y44275D01*
X385925Y42167D01*
X383171Y41026D01*
X380189Y41026D01*
G37*
%LPD*%
%LPC*%
G36*
X405589Y41026D02*
X405589Y41026D01*
X402835Y42167D01*
X400727Y44275D01*
X399586Y47029D01*
X399586Y50011D01*
X400727Y52765D01*
X402835Y54873D01*
X405589Y56014D01*
X408571Y56014D01*
X411325Y54873D01*
X413433Y52765D01*
X414574Y50011D01*
X414574Y47029D01*
X413433Y44275D01*
X411325Y42167D01*
X408571Y41026D01*
X405589Y41026D01*
G37*
%LPD*%
%LPC*%
G36*
X430989Y41026D02*
X430989Y41026D01*
X428235Y42167D01*
X426127Y44275D01*
X424986Y47029D01*
X424986Y50011D01*
X426127Y52765D01*
X428235Y54873D01*
X430989Y56014D01*
X433971Y56014D01*
X436725Y54873D01*
X438833Y52765D01*
X439974Y50011D01*
X439974Y47029D01*
X438833Y44275D01*
X436725Y42167D01*
X433971Y41026D01*
X430989Y41026D01*
G37*
%LPD*%
%LPC*%
G36*
X46769Y134746D02*
X46769Y134746D01*
X44015Y135887D01*
X41907Y137995D01*
X40766Y140749D01*
X40766Y143731D01*
X41907Y146485D01*
X44015Y148593D01*
X46769Y149734D01*
X49751Y149734D01*
X52505Y148593D01*
X54613Y146485D01*
X55754Y143731D01*
X55754Y140749D01*
X54613Y137995D01*
X52505Y135887D01*
X49751Y134746D01*
X46769Y134746D01*
G37*
%LPD*%
%LPC*%
G36*
X456389Y320426D02*
X456389Y320426D01*
X453635Y321567D01*
X451527Y323675D01*
X450386Y326429D01*
X450386Y329411D01*
X451527Y332165D01*
X453635Y334273D01*
X456389Y335414D01*
X459371Y335414D01*
X462125Y334273D01*
X464233Y332165D01*
X465374Y329411D01*
X465374Y326429D01*
X464233Y323675D01*
X462125Y321567D01*
X459371Y320426D01*
X456389Y320426D01*
G37*
%LPD*%
%LPC*%
G36*
X481789Y320426D02*
X481789Y320426D01*
X479035Y321567D01*
X476927Y323675D01*
X475786Y326429D01*
X475786Y329411D01*
X476927Y332165D01*
X479035Y334273D01*
X481789Y335414D01*
X484771Y335414D01*
X487525Y334273D01*
X489633Y332165D01*
X490774Y329411D01*
X490774Y326429D01*
X489633Y323675D01*
X487525Y321567D01*
X484771Y320426D01*
X481789Y320426D01*
G37*
%LPD*%
%LPC*%
G36*
X456389Y41026D02*
X456389Y41026D01*
X453635Y42167D01*
X451527Y44275D01*
X450386Y47029D01*
X450386Y50011D01*
X451527Y52765D01*
X453635Y54873D01*
X456389Y56014D01*
X459371Y56014D01*
X462125Y54873D01*
X464233Y52765D01*
X465374Y50011D01*
X465374Y47029D01*
X464233Y44275D01*
X462125Y42167D01*
X459371Y41026D01*
X456389Y41026D01*
G37*
%LPD*%
%LPC*%
G36*
X481789Y41026D02*
X481789Y41026D01*
X479035Y42167D01*
X476927Y44275D01*
X475786Y47029D01*
X475786Y50011D01*
X476927Y52765D01*
X479035Y54873D01*
X481789Y56014D01*
X484771Y56014D01*
X487525Y54873D01*
X489633Y52765D01*
X490774Y50011D01*
X490774Y47029D01*
X489633Y44275D01*
X487525Y42167D01*
X484771Y41026D01*
X481789Y41026D01*
G37*
%LPD*%
%LPC*%
G36*
X507189Y41026D02*
X507189Y41026D01*
X504435Y42167D01*
X502327Y44275D01*
X501186Y47029D01*
X501186Y50011D01*
X502327Y52765D01*
X504435Y54873D01*
X507189Y56014D01*
X510171Y56014D01*
X512925Y54873D01*
X515033Y52765D01*
X516174Y50011D01*
X516174Y47029D01*
X515033Y44275D01*
X512925Y42167D01*
X510171Y41026D01*
X507189Y41026D01*
G37*
%LPD*%
%LPC*%
G36*
X532589Y41026D02*
X532589Y41026D01*
X529835Y42167D01*
X527727Y44275D01*
X526586Y47029D01*
X526586Y50011D01*
X527727Y52765D01*
X529835Y54873D01*
X532589Y56014D01*
X535571Y56014D01*
X538325Y54873D01*
X540433Y52765D01*
X541574Y50011D01*
X541574Y47029D01*
X540433Y44275D01*
X538325Y42167D01*
X535571Y41026D01*
X532589Y41026D01*
G37*
%LPD*%
%LPC*%
G36*
X100789Y41026D02*
X100789Y41026D01*
X98035Y42167D01*
X95927Y44275D01*
X94786Y47029D01*
X94786Y50011D01*
X95927Y52765D01*
X98035Y54873D01*
X100789Y56014D01*
X103771Y56014D01*
X106525Y54873D01*
X108633Y52765D01*
X109774Y50011D01*
X109774Y47029D01*
X108633Y44275D01*
X106525Y42167D01*
X103771Y41026D01*
X100789Y41026D01*
G37*
%LPD*%
%LPC*%
G36*
X126189Y41026D02*
X126189Y41026D01*
X123435Y42167D01*
X121327Y44275D01*
X120186Y47029D01*
X120186Y50011D01*
X121327Y52765D01*
X123435Y54873D01*
X126189Y56014D01*
X129171Y56014D01*
X131925Y54873D01*
X134033Y52765D01*
X135174Y50011D01*
X135174Y47029D01*
X134033Y44275D01*
X131925Y42167D01*
X129171Y41026D01*
X126189Y41026D01*
G37*
%LPD*%
%LPC*%
G36*
X202389Y66426D02*
X202389Y66426D01*
X199635Y67567D01*
X197527Y69675D01*
X196386Y72429D01*
X196386Y75411D01*
X197527Y78165D01*
X199635Y80273D01*
X202389Y81414D01*
X205371Y81414D01*
X208125Y80273D01*
X210233Y78165D01*
X211374Y75411D01*
X211374Y72429D01*
X210233Y69675D01*
X208125Y67567D01*
X205371Y66426D01*
X202389Y66426D01*
G37*
%LPD*%
%LPC*%
G36*
X176989Y66426D02*
X176989Y66426D01*
X174235Y67567D01*
X172127Y69675D01*
X170986Y72429D01*
X170986Y75411D01*
X172127Y78165D01*
X174235Y80273D01*
X176989Y81414D01*
X179971Y81414D01*
X182725Y80273D01*
X184833Y78165D01*
X185974Y75411D01*
X185974Y72429D01*
X184833Y69675D01*
X182725Y67567D01*
X179971Y66426D01*
X176989Y66426D01*
G37*
%LPD*%
%LPC*%
G36*
X532589Y66426D02*
X532589Y66426D01*
X529835Y67567D01*
X527727Y69675D01*
X526586Y72429D01*
X526586Y75411D01*
X527727Y78165D01*
X529835Y80273D01*
X532589Y81414D01*
X535571Y81414D01*
X538325Y80273D01*
X540433Y78165D01*
X541574Y75411D01*
X541574Y72429D01*
X540433Y69675D01*
X538325Y67567D01*
X535571Y66426D01*
X532589Y66426D01*
G37*
%LPD*%
%LPC*%
G36*
X507189Y66426D02*
X507189Y66426D01*
X504435Y67567D01*
X502327Y69675D01*
X501186Y72429D01*
X501186Y75411D01*
X502327Y78165D01*
X504435Y80273D01*
X507189Y81414D01*
X510171Y81414D01*
X512925Y80273D01*
X515033Y78165D01*
X516174Y75411D01*
X516174Y72429D01*
X515033Y69675D01*
X512925Y67567D01*
X510171Y66426D01*
X507189Y66426D01*
G37*
%LPD*%
%LPC*%
G36*
X481789Y66426D02*
X481789Y66426D01*
X479035Y67567D01*
X476927Y69675D01*
X475786Y72429D01*
X475786Y75411D01*
X476927Y78165D01*
X479035Y80273D01*
X481789Y81414D01*
X484771Y81414D01*
X487525Y80273D01*
X489633Y78165D01*
X490774Y75411D01*
X490774Y72429D01*
X489633Y69675D01*
X487525Y67567D01*
X484771Y66426D01*
X481789Y66426D01*
G37*
%LPD*%
%LPC*%
G36*
X456389Y66426D02*
X456389Y66426D01*
X453635Y67567D01*
X451527Y69675D01*
X450386Y72429D01*
X450386Y75411D01*
X451527Y78165D01*
X453635Y80273D01*
X456389Y81414D01*
X459371Y81414D01*
X462125Y80273D01*
X464233Y78165D01*
X465374Y75411D01*
X465374Y72429D01*
X464233Y69675D01*
X462125Y67567D01*
X459371Y66426D01*
X456389Y66426D01*
G37*
%LPD*%
%LPC*%
G36*
X430989Y66426D02*
X430989Y66426D01*
X428235Y67567D01*
X426127Y69675D01*
X424986Y72429D01*
X424986Y75411D01*
X426127Y78165D01*
X428235Y80273D01*
X430989Y81414D01*
X433971Y81414D01*
X436725Y80273D01*
X438833Y78165D01*
X439974Y75411D01*
X439974Y72429D01*
X438833Y69675D01*
X436725Y67567D01*
X433971Y66426D01*
X430989Y66426D01*
G37*
%LPD*%
%LPC*%
G36*
X405589Y66426D02*
X405589Y66426D01*
X402835Y67567D01*
X400727Y69675D01*
X399586Y72429D01*
X399586Y75411D01*
X400727Y78165D01*
X402835Y80273D01*
X405589Y81414D01*
X408571Y81414D01*
X411325Y80273D01*
X413433Y78165D01*
X414574Y75411D01*
X414574Y72429D01*
X413433Y69675D01*
X411325Y67567D01*
X408571Y66426D01*
X405589Y66426D01*
G37*
%LPD*%
%LPC*%
G36*
X354789Y66426D02*
X354789Y66426D01*
X352035Y67567D01*
X349927Y69675D01*
X348786Y72429D01*
X348786Y75411D01*
X349927Y78165D01*
X352035Y80273D01*
X354789Y81414D01*
X357771Y81414D01*
X360525Y80273D01*
X362633Y78165D01*
X363774Y75411D01*
X363774Y72429D01*
X362633Y69675D01*
X360525Y67567D01*
X357771Y66426D01*
X354789Y66426D01*
G37*
%LPD*%
%LPC*%
G36*
X329389Y66426D02*
X329389Y66426D01*
X326635Y67567D01*
X324527Y69675D01*
X323386Y72429D01*
X323386Y75411D01*
X324527Y78165D01*
X326635Y80273D01*
X329389Y81414D01*
X332371Y81414D01*
X335125Y80273D01*
X337233Y78165D01*
X338374Y75411D01*
X338374Y72429D01*
X337233Y69675D01*
X335125Y67567D01*
X332371Y66426D01*
X329389Y66426D01*
G37*
%LPD*%
%LPC*%
G36*
X303989Y66426D02*
X303989Y66426D01*
X301235Y67567D01*
X299127Y69675D01*
X297986Y72429D01*
X297986Y75411D01*
X299127Y78165D01*
X301235Y80273D01*
X303989Y81414D01*
X306971Y81414D01*
X309725Y80273D01*
X311833Y78165D01*
X312974Y75411D01*
X312974Y72429D01*
X311833Y69675D01*
X309725Y67567D01*
X306971Y66426D01*
X303989Y66426D01*
G37*
%LPD*%
%LPC*%
G36*
X278589Y66426D02*
X278589Y66426D01*
X275835Y67567D01*
X273727Y69675D01*
X272586Y72429D01*
X272586Y75411D01*
X273727Y78165D01*
X275835Y80273D01*
X278589Y81414D01*
X281571Y81414D01*
X284325Y80273D01*
X286433Y78165D01*
X287574Y75411D01*
X287574Y72429D01*
X286433Y69675D01*
X284325Y67567D01*
X281571Y66426D01*
X278589Y66426D01*
G37*
%LPD*%
%LPC*%
G36*
X253189Y66426D02*
X253189Y66426D01*
X250435Y67567D01*
X248327Y69675D01*
X247186Y72429D01*
X247186Y75411D01*
X248327Y78165D01*
X250435Y80273D01*
X253189Y81414D01*
X256171Y81414D01*
X258925Y80273D01*
X261033Y78165D01*
X262174Y75411D01*
X262174Y72429D01*
X261033Y69675D01*
X258925Y67567D01*
X256171Y66426D01*
X253189Y66426D01*
G37*
%LPD*%
%LPC*%
G36*
X227789Y66426D02*
X227789Y66426D01*
X225035Y67567D01*
X222927Y69675D01*
X221786Y72429D01*
X221786Y75411D01*
X222927Y78165D01*
X225035Y80273D01*
X227789Y81414D01*
X230771Y81414D01*
X233525Y80273D01*
X235633Y78165D01*
X236774Y75411D01*
X236774Y72429D01*
X235633Y69675D01*
X233525Y67567D01*
X230771Y66426D01*
X227789Y66426D01*
G37*
%LPD*%
%LPC*%
G36*
X151589Y66426D02*
X151589Y66426D01*
X148835Y67567D01*
X146727Y69675D01*
X145586Y72429D01*
X145586Y75411D01*
X146727Y78165D01*
X148835Y80273D01*
X151589Y81414D01*
X154571Y81414D01*
X157325Y80273D01*
X159433Y78165D01*
X160574Y75411D01*
X160574Y72429D01*
X159433Y69675D01*
X157325Y67567D01*
X154571Y66426D01*
X151589Y66426D01*
G37*
%LPD*%
%LPC*%
G36*
X126189Y66426D02*
X126189Y66426D01*
X123435Y67567D01*
X121327Y69675D01*
X120186Y72429D01*
X120186Y75411D01*
X121327Y78165D01*
X123435Y80273D01*
X126189Y81414D01*
X129171Y81414D01*
X131925Y80273D01*
X134033Y78165D01*
X135174Y75411D01*
X135174Y72429D01*
X134033Y69675D01*
X131925Y67567D01*
X129171Y66426D01*
X126189Y66426D01*
G37*
%LPD*%
%LPC*%
G36*
X100789Y66426D02*
X100789Y66426D01*
X98035Y67567D01*
X95927Y69675D01*
X94786Y72429D01*
X94786Y75411D01*
X95927Y78165D01*
X98035Y80273D01*
X100789Y81414D01*
X103771Y81414D01*
X106525Y80273D01*
X108633Y78165D01*
X109774Y75411D01*
X109774Y72429D01*
X108633Y69675D01*
X106525Y67567D01*
X103771Y66426D01*
X100789Y66426D01*
G37*
%LPD*%
%LPC*%
G36*
X532589Y320426D02*
X532589Y320426D01*
X529835Y321567D01*
X527727Y323675D01*
X526586Y326429D01*
X526586Y329411D01*
X527727Y332165D01*
X529835Y334273D01*
X532589Y335414D01*
X535571Y335414D01*
X538325Y334273D01*
X540433Y332165D01*
X541574Y329411D01*
X541574Y326429D01*
X540433Y323675D01*
X538325Y321567D01*
X535571Y320426D01*
X532589Y320426D01*
G37*
%LPD*%
%LPC*%
G36*
X507189Y320426D02*
X507189Y320426D01*
X504435Y321567D01*
X502327Y323675D01*
X501186Y326429D01*
X501186Y329411D01*
X502327Y332165D01*
X504435Y334273D01*
X507189Y335414D01*
X510171Y335414D01*
X512925Y334273D01*
X515033Y332165D01*
X516174Y329411D01*
X516174Y326429D01*
X515033Y323675D01*
X512925Y321567D01*
X510171Y320426D01*
X507189Y320426D01*
G37*
%LPD*%
%LPC*%
G36*
X333491Y165861D02*
X333491Y165861D01*
X330961Y168391D01*
X330961Y171969D01*
X333491Y174499D01*
X337069Y174499D01*
X339599Y171969D01*
X339599Y168391D01*
X337069Y165861D01*
X333491Y165861D01*
G37*
%LPD*%
%LPC*%
G36*
X23611Y257301D02*
X23611Y257301D01*
X21081Y259831D01*
X21081Y263409D01*
X23611Y265939D01*
X27189Y265939D01*
X29719Y263409D01*
X29719Y259831D01*
X27189Y257301D01*
X23611Y257301D01*
G37*
%LPD*%
%LPC*%
G36*
X325871Y219201D02*
X325871Y219201D01*
X323341Y221731D01*
X323341Y225309D01*
X325871Y227839D01*
X329449Y227839D01*
X331979Y225309D01*
X331979Y221731D01*
X329449Y219201D01*
X325871Y219201D01*
G37*
%LPD*%
%LPC*%
G36*
X242051Y216661D02*
X242051Y216661D01*
X239521Y219191D01*
X239521Y222769D01*
X242051Y225299D01*
X245629Y225299D01*
X248159Y222769D01*
X248159Y219191D01*
X245629Y216661D01*
X242051Y216661D01*
G37*
%LPD*%
%LPC*%
G36*
X127751Y94741D02*
X127751Y94741D01*
X125221Y97271D01*
X125221Y100849D01*
X127751Y103379D01*
X131329Y103379D01*
X133859Y100849D01*
X133859Y97271D01*
X131329Y94741D01*
X127751Y94741D01*
G37*
%LPD*%
%LPC*%
G36*
X186171Y94741D02*
X186171Y94741D01*
X183641Y97271D01*
X183641Y100849D01*
X186171Y103379D01*
X189749Y103379D01*
X192279Y100849D01*
X192279Y97271D01*
X189749Y94741D01*
X186171Y94741D01*
G37*
%LPD*%
%LPC*%
G36*
X247131Y94741D02*
X247131Y94741D01*
X244601Y97271D01*
X244601Y100849D01*
X247131Y103379D01*
X250709Y103379D01*
X253239Y100849D01*
X253239Y97271D01*
X250709Y94741D01*
X247131Y94741D01*
G37*
%LPD*%
%LPC*%
G36*
X310631Y94741D02*
X310631Y94741D01*
X308101Y97271D01*
X308101Y100849D01*
X310631Y103379D01*
X314209Y103379D01*
X316739Y100849D01*
X316739Y97271D01*
X314209Y94741D01*
X310631Y94741D01*
G37*
%LPD*%
%LPC*%
G36*
X99811Y143001D02*
X99811Y143001D01*
X97281Y145531D01*
X97281Y149109D01*
X99811Y151639D01*
X103389Y151639D01*
X105919Y149109D01*
X105919Y145531D01*
X103389Y143001D01*
X99811Y143001D01*
G37*
%LPD*%
%LPC*%
G36*
X23611Y163321D02*
X23611Y163321D01*
X21081Y165851D01*
X21081Y169429D01*
X23611Y171959D01*
X27189Y171959D01*
X29719Y169429D01*
X29719Y165851D01*
X27189Y163321D01*
X23611Y163321D01*
G37*
%LPD*%
%LPC*%
G36*
X503671Y21081D02*
X503671Y21081D01*
X501141Y23611D01*
X501141Y27189D01*
X503671Y29719D01*
X507249Y29719D01*
X509779Y27189D01*
X509779Y23611D01*
X507249Y21081D01*
X503671Y21081D01*
G37*
%LPD*%
%LPC*%
G36*
X280151Y170941D02*
X280151Y170941D01*
X277621Y173471D01*
X277621Y177049D01*
X280151Y179579D01*
X283729Y179579D01*
X286259Y177049D01*
X286259Y173471D01*
X283729Y170941D01*
X280151Y170941D01*
G37*
%LPD*%
%LPC*%
G36*
X275071Y191261D02*
X275071Y191261D01*
X272541Y193791D01*
X272541Y197369D01*
X275071Y199899D01*
X278649Y199899D01*
X281179Y197369D01*
X281179Y193791D01*
X278649Y191261D01*
X275071Y191261D01*
G37*
%LPD*%
%LPC*%
G36*
X256902Y304742D02*
X256902Y304742D01*
X256902Y311013D01*
X257236Y310947D01*
X258831Y310286D01*
X260267Y309327D01*
X261487Y308107D01*
X262446Y306671D01*
X263107Y305076D01*
X263173Y304742D01*
X256902Y304742D01*
G37*
%LPD*%
%LPC*%
G36*
X383902Y76142D02*
X383902Y76142D01*
X383902Y82413D01*
X384236Y82347D01*
X385831Y81686D01*
X387267Y80727D01*
X388487Y79507D01*
X389446Y78071D01*
X390107Y76476D01*
X390173Y76142D01*
X383902Y76142D01*
G37*
%LPD*%
%LPC*%
G36*
X383902Y71698D02*
X383902Y71698D01*
X390173Y71698D01*
X390107Y71364D01*
X389446Y69769D01*
X388487Y68333D01*
X387267Y67113D01*
X385831Y66154D01*
X384236Y65493D01*
X383902Y65427D01*
X383902Y71698D01*
G37*
%LPD*%
%LPC*%
G36*
X256902Y300298D02*
X256902Y300298D01*
X263173Y300298D01*
X263107Y299964D01*
X262446Y298369D01*
X261487Y296933D01*
X260267Y295713D01*
X258831Y294754D01*
X257236Y294093D01*
X256902Y294027D01*
X256902Y300298D01*
G37*
%LPD*%
%LPC*%
G36*
X246187Y304742D02*
X246187Y304742D01*
X246253Y305076D01*
X246914Y306671D01*
X247873Y308107D01*
X249093Y309327D01*
X250529Y310286D01*
X252124Y310947D01*
X252458Y311013D01*
X252458Y304742D01*
X246187Y304742D01*
G37*
%LPD*%
%LPC*%
G36*
X373187Y76142D02*
X373187Y76142D01*
X373253Y76476D01*
X373914Y78071D01*
X374873Y79507D01*
X376093Y80727D01*
X377529Y81686D01*
X379124Y82347D01*
X379458Y82413D01*
X379458Y76142D01*
X373187Y76142D01*
G37*
%LPD*%
%LPC*%
G36*
X252124Y294093D02*
X252124Y294093D01*
X250529Y294754D01*
X249093Y295713D01*
X247873Y296933D01*
X246914Y298369D01*
X246253Y299964D01*
X246187Y300298D01*
X252458Y300298D01*
X252458Y294027D01*
X252124Y294093D01*
G37*
%LPD*%
%LPC*%
G36*
X379124Y65493D02*
X379124Y65493D01*
X377529Y66154D01*
X376093Y67113D01*
X374873Y68333D01*
X373914Y69769D01*
X373253Y71364D01*
X373187Y71698D01*
X379458Y71698D01*
X379458Y65427D01*
X379124Y65493D01*
G37*
%LPD*%
D10*
X102280Y327920D03*
X102280Y302520D03*
X127680Y327920D03*
X127680Y302520D03*
X153080Y327920D03*
X153080Y302520D03*
X178480Y327920D03*
X178480Y302520D03*
X203880Y327920D03*
X203880Y302520D03*
X229280Y327920D03*
X229280Y302520D03*
X254680Y327920D03*
X254680Y302520D03*
X280080Y327920D03*
X280080Y302520D03*
X305480Y327920D03*
X305480Y302520D03*
X330880Y327920D03*
X330880Y302520D03*
X356280Y327920D03*
X356280Y302520D03*
X381680Y327920D03*
X381680Y302520D03*
X407080Y327920D03*
X407080Y302520D03*
X432480Y327920D03*
X432480Y302520D03*
X457880Y327920D03*
X457880Y302520D03*
X483280Y327920D03*
X483280Y302520D03*
X508680Y327920D03*
X508680Y302520D03*
X534080Y327920D03*
X534080Y302520D03*
X102280Y73920D03*
X102280Y48520D03*
X127680Y73920D03*
X127680Y48520D03*
X153080Y73920D03*
X153080Y48520D03*
X178480Y73920D03*
X178480Y48520D03*
X203880Y73920D03*
X203880Y48520D03*
X229280Y73920D03*
X229280Y48520D03*
X254680Y73920D03*
X254680Y48520D03*
X280080Y73920D03*
X280080Y48520D03*
X305480Y73920D03*
X305480Y48520D03*
X330880Y73920D03*
X330880Y48520D03*
X356280Y73920D03*
X356280Y48520D03*
X381680Y73920D03*
X381680Y48520D03*
X407080Y73920D03*
X407080Y48520D03*
X432480Y73920D03*
X432480Y48520D03*
X457880Y73920D03*
X457880Y48520D03*
X483280Y73920D03*
X483280Y48520D03*
X508680Y73920D03*
X508680Y48520D03*
X534080Y73920D03*
X534080Y48520D03*
D11*
X538080Y125460D03*
X488080Y125460D03*
X488080Y250460D03*
X538080Y250460D03*
D10*
X48260Y218440D03*
X48260Y193040D03*
X48260Y167640D03*
X48260Y142240D03*
D12*
X35560Y342900D03*
X35560Y35560D03*
X596900Y35560D03*
X596900Y342900D03*
D10*
X48260Y287020D03*
X48260Y261620D03*
D13*
X281940Y175260D03*
X276860Y195580D03*
X243840Y220980D03*
X312420Y99060D03*
X248920Y99060D03*
X187960Y99060D03*
X129540Y99060D03*
X101600Y147320D03*
X505460Y25400D03*
X335280Y170180D03*
X327660Y223520D03*
X25400Y261620D03*
X281940Y208280D03*
X111760Y180340D03*
X299720Y162560D03*
X431800Y248920D03*
X406400Y248920D03*
X523240Y109220D03*
X25400Y167640D03*
M02*
