G04 EAGLE Gerber RS-274X export*
G75*
%MOMM*%
%FSLAX34Y34*%
%LPD*%
%INSilkscreen Top*%
%IPPOS*%
%AMOC8*
5,1,8,0,0,1.08239X$1,22.5*%
G01*
%ADD10C,0.152400*%
%ADD11C,0.254000*%
%ADD12C,0.200000*%
%ADD13C,0.127000*%


D10*
X155702Y130302D02*
X166878Y130302D01*
X166878Y135269D01*
X166878Y139474D02*
X159427Y139474D01*
X156323Y139164D02*
X155702Y139164D01*
X155702Y139785D01*
X156323Y139785D01*
X156323Y139164D01*
X166878Y146019D02*
X166878Y149123D01*
X166878Y146019D02*
X166876Y145933D01*
X166870Y145847D01*
X166860Y145762D01*
X166846Y145677D01*
X166829Y145592D01*
X166807Y145509D01*
X166781Y145427D01*
X166752Y145346D01*
X166719Y145267D01*
X166683Y145189D01*
X166643Y145112D01*
X166599Y145038D01*
X166552Y144966D01*
X166502Y144896D01*
X166448Y144829D01*
X166392Y144764D01*
X166332Y144702D01*
X166270Y144642D01*
X166205Y144586D01*
X166138Y144532D01*
X166068Y144482D01*
X165996Y144435D01*
X165922Y144391D01*
X165845Y144351D01*
X165768Y144315D01*
X165688Y144282D01*
X165607Y144253D01*
X165525Y144227D01*
X165442Y144205D01*
X165357Y144188D01*
X165272Y144174D01*
X165187Y144164D01*
X165101Y144158D01*
X165015Y144156D01*
X161290Y144156D01*
X161206Y144158D01*
X161123Y144163D01*
X161040Y144173D01*
X160957Y144186D01*
X160875Y144203D01*
X160794Y144223D01*
X160714Y144247D01*
X160635Y144275D01*
X160558Y144306D01*
X160482Y144340D01*
X160407Y144378D01*
X160334Y144420D01*
X160264Y144464D01*
X160195Y144512D01*
X160128Y144562D01*
X160064Y144616D01*
X160003Y144672D01*
X159943Y144732D01*
X159887Y144793D01*
X159833Y144857D01*
X159783Y144924D01*
X159735Y144993D01*
X159691Y145063D01*
X159649Y145136D01*
X159611Y145211D01*
X159577Y145287D01*
X159546Y145364D01*
X159518Y145443D01*
X159494Y145523D01*
X159474Y145604D01*
X159457Y145686D01*
X159444Y145769D01*
X159434Y145852D01*
X159429Y145935D01*
X159427Y146019D01*
X159427Y149123D01*
X168741Y149123D01*
X168825Y149121D01*
X168908Y149116D01*
X168991Y149106D01*
X169074Y149093D01*
X169156Y149076D01*
X169237Y149056D01*
X169317Y149032D01*
X169396Y149004D01*
X169473Y148973D01*
X169549Y148939D01*
X169624Y148901D01*
X169697Y148859D01*
X169767Y148815D01*
X169836Y148767D01*
X169903Y148717D01*
X169967Y148663D01*
X170028Y148607D01*
X170088Y148547D01*
X170144Y148486D01*
X170198Y148422D01*
X170248Y148355D01*
X170296Y148286D01*
X170340Y148216D01*
X170382Y148143D01*
X170420Y148068D01*
X170454Y147992D01*
X170485Y147915D01*
X170513Y147836D01*
X170537Y147756D01*
X170557Y147675D01*
X170574Y147593D01*
X170587Y147510D01*
X170597Y147427D01*
X170602Y147344D01*
X170604Y147260D01*
X170603Y147260D02*
X170603Y144777D01*
X166878Y154898D02*
X155702Y154898D01*
X159427Y154898D02*
X159427Y158002D01*
X159429Y158086D01*
X159435Y158169D01*
X159444Y158252D01*
X159457Y158335D01*
X159474Y158417D01*
X159494Y158498D01*
X159518Y158578D01*
X159546Y158657D01*
X159577Y158734D01*
X159611Y158810D01*
X159649Y158885D01*
X159691Y158958D01*
X159735Y159028D01*
X159783Y159097D01*
X159833Y159164D01*
X159887Y159228D01*
X159943Y159289D01*
X160003Y159349D01*
X160064Y159405D01*
X160128Y159459D01*
X160195Y159509D01*
X160264Y159557D01*
X160334Y159601D01*
X160407Y159643D01*
X160482Y159681D01*
X160558Y159715D01*
X160635Y159746D01*
X160714Y159774D01*
X160794Y159798D01*
X160875Y159818D01*
X160957Y159835D01*
X161040Y159848D01*
X161123Y159858D01*
X161206Y159863D01*
X161290Y159865D01*
X166878Y159865D01*
X159427Y164166D02*
X159427Y167891D01*
X155702Y165408D02*
X165015Y165408D01*
X165015Y165407D02*
X165099Y165409D01*
X165182Y165415D01*
X165265Y165424D01*
X165348Y165437D01*
X165430Y165454D01*
X165511Y165474D01*
X165591Y165498D01*
X165670Y165526D01*
X165747Y165557D01*
X165823Y165591D01*
X165898Y165629D01*
X165971Y165671D01*
X166041Y165715D01*
X166110Y165763D01*
X166177Y165813D01*
X166241Y165867D01*
X166302Y165923D01*
X166362Y165983D01*
X166418Y166044D01*
X166472Y166108D01*
X166522Y166175D01*
X166570Y166244D01*
X166614Y166314D01*
X166656Y166387D01*
X166694Y166462D01*
X166728Y166538D01*
X166759Y166615D01*
X166787Y166694D01*
X166811Y166774D01*
X166831Y166855D01*
X166848Y166937D01*
X166861Y167020D01*
X166871Y167103D01*
X166876Y167186D01*
X166878Y167270D01*
X166878Y167891D01*
X162532Y173355D02*
X163774Y176459D01*
X162532Y173355D02*
X162501Y173283D01*
X162467Y173213D01*
X162429Y173144D01*
X162388Y173077D01*
X162344Y173012D01*
X162296Y172950D01*
X162246Y172890D01*
X162193Y172832D01*
X162137Y172777D01*
X162078Y172725D01*
X162017Y172676D01*
X161954Y172630D01*
X161889Y172587D01*
X161821Y172547D01*
X161752Y172510D01*
X161681Y172477D01*
X161608Y172448D01*
X161534Y172422D01*
X161459Y172399D01*
X161383Y172381D01*
X161306Y172366D01*
X161228Y172354D01*
X161150Y172347D01*
X161072Y172343D01*
X160994Y172344D01*
X160915Y172348D01*
X160837Y172355D01*
X160760Y172367D01*
X160683Y172382D01*
X160607Y172402D01*
X160532Y172424D01*
X160458Y172451D01*
X160386Y172481D01*
X160315Y172514D01*
X160246Y172551D01*
X160178Y172591D01*
X160113Y172635D01*
X160050Y172681D01*
X159989Y172731D01*
X159931Y172783D01*
X159875Y172838D01*
X159822Y172896D01*
X159772Y172957D01*
X159725Y173019D01*
X159682Y173084D01*
X159641Y173151D01*
X159603Y173220D01*
X159570Y173291D01*
X159539Y173363D01*
X159512Y173437D01*
X159489Y173511D01*
X159469Y173587D01*
X159453Y173664D01*
X159441Y173741D01*
X159433Y173819D01*
X159428Y173898D01*
X159427Y173976D01*
X159428Y173976D02*
X159432Y174145D01*
X159441Y174315D01*
X159453Y174484D01*
X159470Y174652D01*
X159491Y174821D01*
X159515Y174988D01*
X159544Y175155D01*
X159577Y175322D01*
X159614Y175487D01*
X159655Y175652D01*
X159699Y175815D01*
X159748Y175978D01*
X159800Y176139D01*
X159857Y176299D01*
X159917Y176457D01*
X159981Y176614D01*
X160049Y176770D01*
X163773Y176459D02*
X163804Y176531D01*
X163838Y176601D01*
X163876Y176670D01*
X163917Y176737D01*
X163961Y176802D01*
X164009Y176864D01*
X164059Y176924D01*
X164112Y176982D01*
X164168Y177037D01*
X164227Y177089D01*
X164288Y177138D01*
X164351Y177184D01*
X164416Y177227D01*
X164484Y177267D01*
X164553Y177304D01*
X164624Y177337D01*
X164697Y177366D01*
X164771Y177392D01*
X164846Y177415D01*
X164922Y177433D01*
X164999Y177448D01*
X165077Y177460D01*
X165155Y177467D01*
X165233Y177471D01*
X165311Y177470D01*
X165390Y177466D01*
X165468Y177459D01*
X165545Y177447D01*
X165622Y177432D01*
X165698Y177412D01*
X165773Y177390D01*
X165847Y177363D01*
X165919Y177333D01*
X165990Y177300D01*
X166059Y177263D01*
X166127Y177223D01*
X166192Y177179D01*
X166255Y177133D01*
X166316Y177083D01*
X166374Y177031D01*
X166430Y176976D01*
X166483Y176918D01*
X166533Y176857D01*
X166580Y176795D01*
X166623Y176730D01*
X166664Y176663D01*
X166702Y176594D01*
X166735Y176523D01*
X166766Y176451D01*
X166793Y176377D01*
X166816Y176303D01*
X166836Y176227D01*
X166852Y176150D01*
X166864Y176073D01*
X166872Y175995D01*
X166877Y175916D01*
X166878Y175838D01*
X166871Y175589D01*
X166859Y175341D01*
X166841Y175092D01*
X166817Y174844D01*
X166787Y174597D01*
X166751Y174351D01*
X166709Y174105D01*
X166662Y173861D01*
X166608Y173617D01*
X166550Y173375D01*
X166485Y173135D01*
X166415Y172896D01*
X166339Y172659D01*
X166257Y172424D01*
X162532Y184429D02*
X162532Y187223D01*
X162532Y184429D02*
X162534Y184337D01*
X162540Y184245D01*
X162550Y184153D01*
X162563Y184062D01*
X162581Y183971D01*
X162602Y183881D01*
X162627Y183793D01*
X162656Y183705D01*
X162689Y183619D01*
X162725Y183534D01*
X162765Y183451D01*
X162808Y183369D01*
X162855Y183290D01*
X162905Y183212D01*
X162958Y183137D01*
X163014Y183064D01*
X163074Y182993D01*
X163136Y182925D01*
X163201Y182860D01*
X163269Y182798D01*
X163340Y182738D01*
X163413Y182682D01*
X163488Y182629D01*
X163566Y182579D01*
X163645Y182532D01*
X163727Y182489D01*
X163810Y182449D01*
X163895Y182413D01*
X163981Y182380D01*
X164069Y182351D01*
X164157Y182326D01*
X164247Y182305D01*
X164338Y182287D01*
X164429Y182274D01*
X164521Y182264D01*
X164613Y182258D01*
X164705Y182256D01*
X164797Y182258D01*
X164889Y182264D01*
X164981Y182274D01*
X165072Y182287D01*
X165163Y182305D01*
X165253Y182326D01*
X165341Y182351D01*
X165429Y182380D01*
X165515Y182413D01*
X165600Y182449D01*
X165683Y182489D01*
X165765Y182532D01*
X165844Y182579D01*
X165922Y182629D01*
X165997Y182682D01*
X166070Y182738D01*
X166141Y182798D01*
X166209Y182860D01*
X166274Y182925D01*
X166336Y182993D01*
X166396Y183064D01*
X166452Y183137D01*
X166505Y183212D01*
X166555Y183290D01*
X166602Y183369D01*
X166645Y183451D01*
X166685Y183534D01*
X166721Y183619D01*
X166754Y183705D01*
X166783Y183793D01*
X166808Y183881D01*
X166829Y183971D01*
X166847Y184062D01*
X166860Y184153D01*
X166870Y184245D01*
X166876Y184337D01*
X166878Y184429D01*
X166878Y187223D01*
X161290Y187223D01*
X161204Y187221D01*
X161118Y187215D01*
X161033Y187205D01*
X160948Y187191D01*
X160863Y187174D01*
X160780Y187152D01*
X160698Y187126D01*
X160617Y187097D01*
X160538Y187064D01*
X160460Y187028D01*
X160383Y186988D01*
X160309Y186944D01*
X160237Y186897D01*
X160167Y186847D01*
X160100Y186793D01*
X160035Y186737D01*
X159973Y186677D01*
X159913Y186615D01*
X159857Y186550D01*
X159803Y186483D01*
X159753Y186413D01*
X159706Y186341D01*
X159662Y186267D01*
X159622Y186190D01*
X159586Y186113D01*
X159553Y186033D01*
X159524Y185952D01*
X159498Y185870D01*
X159476Y185787D01*
X159459Y185702D01*
X159445Y185617D01*
X159435Y185532D01*
X159429Y185446D01*
X159427Y185360D01*
X159427Y182877D01*
X155702Y193071D02*
X166878Y193071D01*
X166878Y196176D01*
X166876Y196260D01*
X166871Y196343D01*
X166861Y196426D01*
X166848Y196509D01*
X166831Y196591D01*
X166811Y196672D01*
X166787Y196752D01*
X166759Y196831D01*
X166728Y196908D01*
X166694Y196984D01*
X166656Y197059D01*
X166614Y197132D01*
X166570Y197202D01*
X166522Y197271D01*
X166472Y197338D01*
X166418Y197402D01*
X166362Y197463D01*
X166302Y197523D01*
X166241Y197579D01*
X166177Y197633D01*
X166110Y197683D01*
X166041Y197731D01*
X165971Y197775D01*
X165898Y197817D01*
X165823Y197855D01*
X165747Y197889D01*
X165670Y197920D01*
X165591Y197948D01*
X165511Y197972D01*
X165430Y197992D01*
X165348Y198009D01*
X165265Y198022D01*
X165182Y198032D01*
X165099Y198037D01*
X165015Y198039D01*
X165015Y198038D02*
X161290Y198038D01*
X161290Y198039D02*
X161204Y198037D01*
X161118Y198031D01*
X161033Y198021D01*
X160948Y198007D01*
X160863Y197990D01*
X160780Y197968D01*
X160698Y197942D01*
X160617Y197913D01*
X160538Y197880D01*
X160460Y197844D01*
X160383Y197804D01*
X160309Y197760D01*
X160237Y197713D01*
X160167Y197663D01*
X160100Y197609D01*
X160035Y197553D01*
X159973Y197493D01*
X159913Y197431D01*
X159857Y197366D01*
X159803Y197299D01*
X159753Y197229D01*
X159706Y197157D01*
X159662Y197083D01*
X159622Y197006D01*
X159586Y196929D01*
X159553Y196849D01*
X159524Y196768D01*
X159498Y196686D01*
X159476Y196603D01*
X159459Y196518D01*
X159445Y196433D01*
X159435Y196348D01*
X159429Y196262D01*
X159427Y196176D01*
X159427Y193071D01*
X166878Y204766D02*
X166878Y207871D01*
X166878Y204766D02*
X166876Y204680D01*
X166870Y204594D01*
X166860Y204509D01*
X166846Y204424D01*
X166829Y204339D01*
X166807Y204256D01*
X166781Y204174D01*
X166752Y204093D01*
X166719Y204014D01*
X166683Y203936D01*
X166643Y203859D01*
X166599Y203785D01*
X166552Y203713D01*
X166502Y203643D01*
X166448Y203576D01*
X166392Y203511D01*
X166332Y203449D01*
X166270Y203389D01*
X166205Y203333D01*
X166138Y203279D01*
X166068Y203229D01*
X165996Y203182D01*
X165922Y203138D01*
X165845Y203098D01*
X165768Y203062D01*
X165688Y203029D01*
X165607Y203000D01*
X165525Y202974D01*
X165442Y202952D01*
X165357Y202935D01*
X165272Y202921D01*
X165187Y202911D01*
X165101Y202905D01*
X165015Y202903D01*
X161911Y202903D01*
X161812Y202905D01*
X161714Y202911D01*
X161615Y202921D01*
X161518Y202934D01*
X161420Y202952D01*
X161324Y202973D01*
X161228Y202999D01*
X161134Y203028D01*
X161041Y203060D01*
X160949Y203097D01*
X160859Y203137D01*
X160770Y203181D01*
X160683Y203228D01*
X160598Y203278D01*
X160516Y203332D01*
X160435Y203389D01*
X160357Y203449D01*
X160281Y203513D01*
X160208Y203579D01*
X160137Y203648D01*
X160069Y203720D01*
X160005Y203795D01*
X159943Y203872D01*
X159884Y203951D01*
X159829Y204033D01*
X159776Y204117D01*
X159728Y204202D01*
X159682Y204290D01*
X159640Y204380D01*
X159602Y204471D01*
X159568Y204563D01*
X159537Y204657D01*
X159510Y204752D01*
X159486Y204848D01*
X159467Y204945D01*
X159451Y205042D01*
X159439Y205140D01*
X159431Y205239D01*
X159427Y205338D01*
X159427Y205436D01*
X159431Y205535D01*
X159439Y205634D01*
X159451Y205732D01*
X159467Y205829D01*
X159486Y205926D01*
X159510Y206022D01*
X159537Y206117D01*
X159568Y206211D01*
X159602Y206303D01*
X159640Y206394D01*
X159682Y206484D01*
X159728Y206572D01*
X159776Y206657D01*
X159829Y206741D01*
X159884Y206823D01*
X159943Y206902D01*
X160005Y206979D01*
X160069Y207054D01*
X160137Y207126D01*
X160208Y207195D01*
X160281Y207261D01*
X160357Y207325D01*
X160435Y207385D01*
X160516Y207442D01*
X160598Y207496D01*
X160683Y207546D01*
X160770Y207593D01*
X160859Y207637D01*
X160949Y207677D01*
X161041Y207714D01*
X161134Y207746D01*
X161228Y207775D01*
X161324Y207801D01*
X161420Y207822D01*
X161518Y207840D01*
X161615Y207853D01*
X161714Y207863D01*
X161812Y207869D01*
X161911Y207871D01*
X163153Y207871D01*
X163153Y202903D01*
X166878Y213273D02*
X159427Y213273D01*
X159427Y216999D01*
X160669Y216999D01*
X189738Y135269D02*
X189738Y130302D01*
X178562Y130302D01*
X178562Y135269D01*
X183529Y134027D02*
X183529Y130302D01*
X178562Y140180D02*
X189738Y140180D01*
X178562Y140180D02*
X178562Y143284D01*
X178564Y143392D01*
X178570Y143501D01*
X178579Y143608D01*
X178592Y143716D01*
X178609Y143823D01*
X178630Y143929D01*
X178654Y144035D01*
X178682Y144140D01*
X178714Y144243D01*
X178749Y144346D01*
X178788Y144447D01*
X178830Y144547D01*
X178876Y144645D01*
X178925Y144741D01*
X178978Y144836D01*
X179034Y144929D01*
X179093Y145020D01*
X179155Y145108D01*
X179220Y145195D01*
X179288Y145279D01*
X179359Y145361D01*
X179433Y145440D01*
X179510Y145517D01*
X179589Y145591D01*
X179671Y145662D01*
X179755Y145730D01*
X179842Y145795D01*
X179930Y145857D01*
X180021Y145916D01*
X180114Y145972D01*
X180209Y146025D01*
X180305Y146074D01*
X180404Y146120D01*
X180503Y146162D01*
X180604Y146201D01*
X180707Y146236D01*
X180810Y146268D01*
X180915Y146296D01*
X181021Y146320D01*
X181127Y146341D01*
X181234Y146358D01*
X181342Y146371D01*
X181450Y146380D01*
X181558Y146386D01*
X181666Y146388D01*
X181666Y146389D02*
X186634Y146389D01*
X186634Y146388D02*
X186745Y146386D01*
X186855Y146380D01*
X186966Y146370D01*
X187076Y146356D01*
X187185Y146339D01*
X187294Y146317D01*
X187402Y146292D01*
X187508Y146262D01*
X187614Y146229D01*
X187719Y146192D01*
X187822Y146152D01*
X187923Y146107D01*
X188023Y146060D01*
X188122Y146008D01*
X188218Y145953D01*
X188312Y145895D01*
X188404Y145834D01*
X188494Y145769D01*
X188582Y145701D01*
X188667Y145630D01*
X188749Y145556D01*
X188829Y145479D01*
X188906Y145399D01*
X188980Y145317D01*
X189051Y145232D01*
X189119Y145144D01*
X189184Y145054D01*
X189245Y144962D01*
X189303Y144868D01*
X189358Y144772D01*
X189410Y144673D01*
X189457Y144573D01*
X189502Y144472D01*
X189542Y144369D01*
X189579Y144264D01*
X189612Y144158D01*
X189642Y144052D01*
X189667Y143944D01*
X189689Y143835D01*
X189706Y143726D01*
X189720Y143616D01*
X189730Y143505D01*
X189736Y143395D01*
X189738Y143284D01*
X189738Y140180D01*
X189738Y152400D02*
X189738Y157367D01*
X189738Y152400D02*
X178562Y152400D01*
X178562Y157367D01*
X183529Y156125D02*
X183529Y152400D01*
X189738Y165241D02*
X189736Y165338D01*
X189730Y165436D01*
X189721Y165533D01*
X189707Y165630D01*
X189690Y165726D01*
X189669Y165821D01*
X189645Y165915D01*
X189616Y166009D01*
X189584Y166101D01*
X189549Y166192D01*
X189510Y166281D01*
X189467Y166369D01*
X189421Y166455D01*
X189372Y166539D01*
X189319Y166621D01*
X189264Y166701D01*
X189205Y166779D01*
X189143Y166854D01*
X189078Y166927D01*
X189010Y166997D01*
X188940Y167065D01*
X188867Y167130D01*
X188792Y167192D01*
X188714Y167251D01*
X188634Y167306D01*
X188552Y167359D01*
X188468Y167408D01*
X188382Y167454D01*
X188294Y167497D01*
X188205Y167536D01*
X188114Y167571D01*
X188022Y167603D01*
X187928Y167632D01*
X187834Y167656D01*
X187739Y167677D01*
X187643Y167694D01*
X187546Y167708D01*
X187449Y167717D01*
X187352Y167723D01*
X187254Y167725D01*
X189738Y165241D02*
X189736Y165098D01*
X189730Y164955D01*
X189721Y164813D01*
X189707Y164671D01*
X189689Y164529D01*
X189668Y164388D01*
X189643Y164247D01*
X189614Y164107D01*
X189581Y163968D01*
X189545Y163830D01*
X189504Y163693D01*
X189460Y163557D01*
X189413Y163422D01*
X189361Y163289D01*
X189306Y163157D01*
X189248Y163027D01*
X189186Y162898D01*
X189120Y162771D01*
X189051Y162646D01*
X188979Y162523D01*
X188903Y162402D01*
X188825Y162283D01*
X188742Y162166D01*
X188657Y162051D01*
X188569Y161939D01*
X188477Y161829D01*
X188383Y161722D01*
X188286Y161617D01*
X188186Y161515D01*
X181046Y161826D02*
X180948Y161828D01*
X180851Y161834D01*
X180754Y161843D01*
X180657Y161857D01*
X180561Y161874D01*
X180466Y161895D01*
X180372Y161919D01*
X180278Y161948D01*
X180186Y161980D01*
X180095Y162015D01*
X180006Y162054D01*
X179918Y162097D01*
X179832Y162143D01*
X179748Y162192D01*
X179666Y162245D01*
X179586Y162300D01*
X179508Y162359D01*
X179433Y162421D01*
X179360Y162486D01*
X179290Y162554D01*
X179222Y162624D01*
X179157Y162697D01*
X179095Y162772D01*
X179036Y162850D01*
X178981Y162930D01*
X178928Y163012D01*
X178879Y163096D01*
X178833Y163182D01*
X178790Y163270D01*
X178751Y163359D01*
X178716Y163450D01*
X178684Y163542D01*
X178655Y163636D01*
X178631Y163730D01*
X178610Y163825D01*
X178593Y163921D01*
X178579Y164018D01*
X178570Y164115D01*
X178564Y164212D01*
X178562Y164310D01*
X178564Y164440D01*
X178569Y164570D01*
X178578Y164700D01*
X178591Y164830D01*
X178607Y164959D01*
X178627Y165088D01*
X178651Y165216D01*
X178678Y165344D01*
X178709Y165470D01*
X178743Y165596D01*
X178781Y165721D01*
X178822Y165844D01*
X178867Y165967D01*
X178915Y166088D01*
X178966Y166208D01*
X179021Y166326D01*
X179079Y166442D01*
X179140Y166557D01*
X179205Y166671D01*
X179272Y166782D01*
X179343Y166891D01*
X179417Y166999D01*
X179493Y167104D01*
X183219Y163069D02*
X183168Y162986D01*
X183114Y162905D01*
X183057Y162827D01*
X182997Y162751D01*
X182934Y162677D01*
X182868Y162606D01*
X182800Y162537D01*
X182729Y162471D01*
X182656Y162407D01*
X182580Y162347D01*
X182502Y162290D01*
X182421Y162235D01*
X182339Y162184D01*
X182255Y162136D01*
X182169Y162091D01*
X182081Y162049D01*
X181992Y162011D01*
X181902Y161977D01*
X181810Y161945D01*
X181717Y161918D01*
X181623Y161894D01*
X181528Y161873D01*
X181432Y161857D01*
X181336Y161844D01*
X181240Y161834D01*
X181143Y161829D01*
X181046Y161827D01*
X185081Y166482D02*
X185132Y166565D01*
X185186Y166646D01*
X185243Y166724D01*
X185303Y166800D01*
X185366Y166874D01*
X185432Y166945D01*
X185500Y167014D01*
X185571Y167080D01*
X185644Y167144D01*
X185720Y167204D01*
X185798Y167261D01*
X185879Y167316D01*
X185961Y167367D01*
X186045Y167415D01*
X186131Y167460D01*
X186219Y167502D01*
X186308Y167540D01*
X186398Y167574D01*
X186490Y167606D01*
X186583Y167633D01*
X186677Y167657D01*
X186772Y167678D01*
X186868Y167694D01*
X186964Y167707D01*
X187060Y167717D01*
X187157Y167722D01*
X187254Y167724D01*
X185081Y166483D02*
X183219Y163068D01*
X189738Y178661D02*
X189738Y181765D01*
X189736Y181876D01*
X189730Y181986D01*
X189720Y182097D01*
X189706Y182207D01*
X189689Y182316D01*
X189667Y182425D01*
X189642Y182533D01*
X189612Y182639D01*
X189579Y182745D01*
X189542Y182850D01*
X189502Y182953D01*
X189457Y183054D01*
X189410Y183154D01*
X189358Y183253D01*
X189303Y183349D01*
X189245Y183443D01*
X189184Y183535D01*
X189119Y183625D01*
X189051Y183713D01*
X188980Y183798D01*
X188906Y183880D01*
X188829Y183960D01*
X188749Y184037D01*
X188667Y184111D01*
X188582Y184182D01*
X188494Y184250D01*
X188404Y184315D01*
X188312Y184376D01*
X188218Y184434D01*
X188122Y184489D01*
X188023Y184541D01*
X187923Y184588D01*
X187822Y184633D01*
X187719Y184673D01*
X187614Y184710D01*
X187508Y184743D01*
X187402Y184773D01*
X187294Y184798D01*
X187185Y184820D01*
X187076Y184837D01*
X186966Y184851D01*
X186855Y184861D01*
X186745Y184867D01*
X186634Y184869D01*
X186523Y184867D01*
X186413Y184861D01*
X186302Y184851D01*
X186192Y184837D01*
X186083Y184820D01*
X185974Y184798D01*
X185866Y184773D01*
X185760Y184743D01*
X185654Y184710D01*
X185549Y184673D01*
X185446Y184633D01*
X185345Y184588D01*
X185245Y184541D01*
X185146Y184489D01*
X185050Y184434D01*
X184956Y184376D01*
X184864Y184315D01*
X184774Y184250D01*
X184686Y184182D01*
X184601Y184111D01*
X184519Y184037D01*
X184439Y183960D01*
X184362Y183880D01*
X184288Y183798D01*
X184217Y183713D01*
X184149Y183625D01*
X184084Y183535D01*
X184023Y183443D01*
X183965Y183349D01*
X183910Y183253D01*
X183858Y183154D01*
X183811Y183054D01*
X183766Y182953D01*
X183726Y182850D01*
X183689Y182745D01*
X183656Y182639D01*
X183626Y182533D01*
X183601Y182425D01*
X183579Y182316D01*
X183562Y182207D01*
X183548Y182097D01*
X183538Y181986D01*
X183532Y181876D01*
X183530Y181765D01*
X178562Y182386D02*
X178562Y178661D01*
X178562Y182386D02*
X178564Y182485D01*
X178570Y182583D01*
X178580Y182682D01*
X178593Y182779D01*
X178611Y182877D01*
X178632Y182973D01*
X178658Y183069D01*
X178687Y183163D01*
X178719Y183256D01*
X178756Y183348D01*
X178796Y183438D01*
X178840Y183527D01*
X178887Y183614D01*
X178937Y183699D01*
X178991Y183781D01*
X179048Y183862D01*
X179108Y183940D01*
X179172Y184016D01*
X179238Y184089D01*
X179307Y184160D01*
X179379Y184228D01*
X179454Y184292D01*
X179531Y184354D01*
X179610Y184413D01*
X179692Y184468D01*
X179776Y184521D01*
X179861Y184569D01*
X179949Y184615D01*
X180039Y184657D01*
X180130Y184695D01*
X180222Y184729D01*
X180316Y184760D01*
X180411Y184787D01*
X180507Y184811D01*
X180604Y184830D01*
X180701Y184846D01*
X180799Y184858D01*
X180898Y184866D01*
X180997Y184870D01*
X181095Y184870D01*
X181194Y184866D01*
X181293Y184858D01*
X181391Y184846D01*
X181488Y184830D01*
X181585Y184811D01*
X181681Y184787D01*
X181776Y184760D01*
X181870Y184729D01*
X181962Y184695D01*
X182053Y184657D01*
X182143Y184615D01*
X182231Y184569D01*
X182316Y184521D01*
X182400Y184468D01*
X182482Y184413D01*
X182561Y184354D01*
X182638Y184292D01*
X182713Y184228D01*
X182785Y184160D01*
X182854Y184089D01*
X182920Y184016D01*
X182984Y183940D01*
X183044Y183862D01*
X183101Y183781D01*
X183155Y183699D01*
X183205Y183614D01*
X183252Y183527D01*
X183296Y183438D01*
X183336Y183348D01*
X183373Y183256D01*
X183405Y183163D01*
X183434Y183069D01*
X183460Y182973D01*
X183481Y182877D01*
X183499Y182779D01*
X183512Y182682D01*
X183522Y182583D01*
X183528Y182485D01*
X183530Y182386D01*
X183529Y182386D02*
X183529Y179902D01*
X184150Y190091D02*
X183930Y190094D01*
X183710Y190101D01*
X183491Y190115D01*
X183272Y190133D01*
X183053Y190157D01*
X182835Y190185D01*
X182618Y190219D01*
X182402Y190258D01*
X182186Y190303D01*
X181972Y190352D01*
X181759Y190407D01*
X181547Y190466D01*
X181337Y190531D01*
X181129Y190601D01*
X180922Y190675D01*
X180717Y190755D01*
X180514Y190839D01*
X180313Y190928D01*
X180114Y191022D01*
X180025Y191055D01*
X179937Y191091D01*
X179851Y191131D01*
X179766Y191174D01*
X179684Y191221D01*
X179603Y191272D01*
X179525Y191325D01*
X179449Y191382D01*
X179375Y191442D01*
X179304Y191505D01*
X179235Y191570D01*
X179169Y191639D01*
X179107Y191710D01*
X179047Y191784D01*
X178990Y191860D01*
X178936Y191938D01*
X178886Y192019D01*
X178839Y192101D01*
X178796Y192186D01*
X178756Y192272D01*
X178719Y192360D01*
X178687Y192449D01*
X178658Y192539D01*
X178632Y192631D01*
X178611Y192723D01*
X178593Y192817D01*
X178580Y192911D01*
X178570Y193005D01*
X178564Y193100D01*
X178562Y193195D01*
X178564Y193290D01*
X178570Y193385D01*
X178580Y193479D01*
X178593Y193573D01*
X178611Y193667D01*
X178632Y193759D01*
X178658Y193851D01*
X178687Y193941D01*
X178719Y194030D01*
X178756Y194118D01*
X178796Y194204D01*
X178839Y194289D01*
X178886Y194371D01*
X178936Y194452D01*
X178990Y194530D01*
X179047Y194606D01*
X179107Y194680D01*
X179169Y194751D01*
X179235Y194820D01*
X179304Y194885D01*
X179375Y194948D01*
X179449Y195008D01*
X179525Y195065D01*
X179603Y195118D01*
X179684Y195169D01*
X179767Y195216D01*
X179851Y195259D01*
X179937Y195299D01*
X180025Y195335D01*
X180114Y195368D01*
X180114Y195369D02*
X180313Y195463D01*
X180514Y195552D01*
X180717Y195636D01*
X180922Y195716D01*
X181129Y195790D01*
X181337Y195860D01*
X181547Y195925D01*
X181759Y195984D01*
X181972Y196039D01*
X182186Y196088D01*
X182402Y196133D01*
X182618Y196172D01*
X182835Y196206D01*
X183053Y196234D01*
X183272Y196258D01*
X183491Y196276D01*
X183710Y196290D01*
X183930Y196297D01*
X184150Y196300D01*
X184150Y190091D02*
X184370Y190094D01*
X184590Y190101D01*
X184809Y190115D01*
X185028Y190133D01*
X185247Y190157D01*
X185465Y190185D01*
X185682Y190219D01*
X185898Y190258D01*
X186114Y190303D01*
X186328Y190352D01*
X186541Y190407D01*
X186753Y190466D01*
X186963Y190531D01*
X187171Y190601D01*
X187378Y190675D01*
X187583Y190755D01*
X187786Y190839D01*
X187987Y190928D01*
X188186Y191022D01*
X188275Y191055D01*
X188363Y191091D01*
X188449Y191131D01*
X188534Y191174D01*
X188616Y191221D01*
X188697Y191272D01*
X188775Y191325D01*
X188851Y191382D01*
X188925Y191442D01*
X188996Y191505D01*
X189065Y191570D01*
X189131Y191639D01*
X189193Y191710D01*
X189253Y191784D01*
X189310Y191860D01*
X189364Y191938D01*
X189414Y192019D01*
X189461Y192101D01*
X189504Y192186D01*
X189544Y192272D01*
X189581Y192360D01*
X189613Y192449D01*
X189642Y192539D01*
X189668Y192631D01*
X189689Y192723D01*
X189707Y192817D01*
X189720Y192911D01*
X189730Y193005D01*
X189736Y193100D01*
X189738Y193195D01*
X188186Y195369D02*
X187987Y195463D01*
X187786Y195552D01*
X187583Y195636D01*
X187378Y195716D01*
X187171Y195790D01*
X186963Y195860D01*
X186753Y195925D01*
X186541Y195984D01*
X186328Y196039D01*
X186114Y196088D01*
X185898Y196133D01*
X185682Y196172D01*
X185465Y196206D01*
X185247Y196234D01*
X185028Y196258D01*
X184809Y196276D01*
X184590Y196290D01*
X184370Y196297D01*
X184150Y196300D01*
X188186Y195368D02*
X188275Y195335D01*
X188363Y195299D01*
X188449Y195259D01*
X188534Y195216D01*
X188616Y195169D01*
X188697Y195118D01*
X188775Y195065D01*
X188851Y195008D01*
X188925Y194948D01*
X188996Y194885D01*
X189065Y194820D01*
X189131Y194751D01*
X189193Y194680D01*
X189253Y194606D01*
X189310Y194530D01*
X189364Y194452D01*
X189414Y194371D01*
X189461Y194289D01*
X189504Y194204D01*
X189544Y194118D01*
X189581Y194030D01*
X189613Y193941D01*
X189642Y193851D01*
X189668Y193759D01*
X189689Y193667D01*
X189707Y193573D01*
X189720Y193479D01*
X189730Y193385D01*
X189736Y193290D01*
X189738Y193195D01*
X187254Y190712D02*
X181046Y195679D01*
X181046Y201521D02*
X178562Y204625D01*
X189738Y204625D01*
X189738Y201521D02*
X189738Y207730D01*
X201422Y130302D02*
X212598Y130302D01*
X201422Y130302D02*
X201422Y133406D01*
X201424Y133517D01*
X201430Y133627D01*
X201440Y133738D01*
X201454Y133848D01*
X201471Y133957D01*
X201493Y134066D01*
X201518Y134174D01*
X201548Y134280D01*
X201581Y134386D01*
X201618Y134491D01*
X201658Y134594D01*
X201703Y134695D01*
X201750Y134795D01*
X201802Y134894D01*
X201857Y134990D01*
X201915Y135084D01*
X201976Y135176D01*
X202041Y135266D01*
X202109Y135354D01*
X202180Y135439D01*
X202254Y135521D01*
X202331Y135601D01*
X202411Y135678D01*
X202493Y135752D01*
X202578Y135823D01*
X202666Y135891D01*
X202756Y135956D01*
X202848Y136017D01*
X202942Y136075D01*
X203038Y136130D01*
X203137Y136182D01*
X203237Y136229D01*
X203338Y136274D01*
X203441Y136314D01*
X203546Y136351D01*
X203652Y136384D01*
X203758Y136414D01*
X203866Y136439D01*
X203975Y136461D01*
X204084Y136478D01*
X204194Y136492D01*
X204305Y136502D01*
X204415Y136508D01*
X204526Y136510D01*
X204637Y136508D01*
X204747Y136502D01*
X204858Y136492D01*
X204968Y136478D01*
X205077Y136461D01*
X205186Y136439D01*
X205294Y136414D01*
X205400Y136384D01*
X205506Y136351D01*
X205611Y136314D01*
X205714Y136274D01*
X205815Y136229D01*
X205915Y136182D01*
X206014Y136130D01*
X206110Y136075D01*
X206204Y136017D01*
X206296Y135956D01*
X206386Y135891D01*
X206474Y135823D01*
X206559Y135752D01*
X206641Y135678D01*
X206721Y135601D01*
X206798Y135521D01*
X206872Y135439D01*
X206943Y135354D01*
X207011Y135266D01*
X207076Y135176D01*
X207137Y135084D01*
X207195Y134990D01*
X207250Y134894D01*
X207302Y134795D01*
X207349Y134695D01*
X207394Y134594D01*
X207434Y134491D01*
X207471Y134386D01*
X207504Y134280D01*
X207534Y134174D01*
X207559Y134066D01*
X207581Y133957D01*
X207598Y133848D01*
X207612Y133738D01*
X207622Y133627D01*
X207628Y133517D01*
X207630Y133406D01*
X207631Y133406D02*
X207631Y130302D01*
X207631Y134027D02*
X212598Y136511D01*
X212598Y143362D02*
X212598Y146466D01*
X212598Y143362D02*
X212596Y143276D01*
X212590Y143190D01*
X212580Y143105D01*
X212566Y143020D01*
X212549Y142935D01*
X212527Y142852D01*
X212501Y142770D01*
X212472Y142689D01*
X212439Y142610D01*
X212403Y142532D01*
X212363Y142455D01*
X212319Y142381D01*
X212272Y142309D01*
X212222Y142239D01*
X212168Y142172D01*
X212112Y142107D01*
X212052Y142045D01*
X211990Y141985D01*
X211925Y141929D01*
X211858Y141875D01*
X211788Y141825D01*
X211716Y141778D01*
X211642Y141734D01*
X211565Y141694D01*
X211488Y141658D01*
X211408Y141625D01*
X211327Y141596D01*
X211245Y141570D01*
X211162Y141548D01*
X211077Y141531D01*
X210992Y141517D01*
X210907Y141507D01*
X210821Y141501D01*
X210735Y141499D01*
X207631Y141499D01*
X207631Y141498D02*
X207532Y141500D01*
X207434Y141506D01*
X207335Y141516D01*
X207238Y141529D01*
X207140Y141547D01*
X207044Y141568D01*
X206948Y141594D01*
X206854Y141623D01*
X206761Y141655D01*
X206669Y141692D01*
X206579Y141732D01*
X206490Y141776D01*
X206403Y141823D01*
X206318Y141873D01*
X206236Y141927D01*
X206155Y141984D01*
X206077Y142044D01*
X206001Y142108D01*
X205928Y142174D01*
X205857Y142243D01*
X205789Y142315D01*
X205725Y142390D01*
X205663Y142467D01*
X205604Y142546D01*
X205549Y142628D01*
X205496Y142712D01*
X205448Y142797D01*
X205402Y142885D01*
X205360Y142975D01*
X205322Y143066D01*
X205288Y143158D01*
X205257Y143252D01*
X205230Y143347D01*
X205206Y143443D01*
X205187Y143540D01*
X205171Y143637D01*
X205159Y143735D01*
X205151Y143834D01*
X205147Y143933D01*
X205147Y144031D01*
X205151Y144130D01*
X205159Y144229D01*
X205171Y144327D01*
X205187Y144424D01*
X205206Y144521D01*
X205230Y144617D01*
X205257Y144712D01*
X205288Y144806D01*
X205322Y144898D01*
X205360Y144989D01*
X205402Y145079D01*
X205448Y145167D01*
X205496Y145252D01*
X205549Y145336D01*
X205604Y145418D01*
X205663Y145497D01*
X205725Y145574D01*
X205789Y145649D01*
X205857Y145721D01*
X205928Y145790D01*
X206001Y145856D01*
X206077Y145920D01*
X206155Y145980D01*
X206236Y146037D01*
X206318Y146091D01*
X206403Y146141D01*
X206490Y146188D01*
X206579Y146232D01*
X206669Y146272D01*
X206761Y146309D01*
X206854Y146341D01*
X206948Y146370D01*
X207044Y146396D01*
X207140Y146417D01*
X207238Y146435D01*
X207335Y146448D01*
X207434Y146458D01*
X207532Y146464D01*
X207631Y146466D01*
X208873Y146466D01*
X208873Y141499D01*
X205147Y151024D02*
X212598Y153507D01*
X205147Y155991D01*
X205147Y160365D02*
X212598Y160365D01*
X202043Y160055D02*
X201422Y160055D01*
X201422Y160676D01*
X202043Y160676D01*
X202043Y160055D01*
X208252Y166052D02*
X209494Y169157D01*
X208252Y166052D02*
X208221Y165980D01*
X208187Y165910D01*
X208149Y165841D01*
X208108Y165774D01*
X208064Y165709D01*
X208016Y165647D01*
X207966Y165587D01*
X207913Y165529D01*
X207857Y165474D01*
X207798Y165422D01*
X207737Y165373D01*
X207674Y165327D01*
X207609Y165284D01*
X207541Y165244D01*
X207472Y165207D01*
X207401Y165174D01*
X207328Y165145D01*
X207254Y165119D01*
X207179Y165096D01*
X207103Y165078D01*
X207026Y165063D01*
X206948Y165051D01*
X206870Y165044D01*
X206792Y165040D01*
X206714Y165041D01*
X206635Y165045D01*
X206557Y165052D01*
X206480Y165064D01*
X206403Y165079D01*
X206327Y165099D01*
X206252Y165121D01*
X206178Y165148D01*
X206106Y165178D01*
X206035Y165211D01*
X205966Y165248D01*
X205898Y165288D01*
X205833Y165332D01*
X205770Y165378D01*
X205709Y165428D01*
X205651Y165480D01*
X205595Y165535D01*
X205542Y165593D01*
X205492Y165654D01*
X205445Y165716D01*
X205402Y165781D01*
X205361Y165848D01*
X205323Y165917D01*
X205290Y165988D01*
X205259Y166060D01*
X205232Y166134D01*
X205209Y166208D01*
X205189Y166284D01*
X205173Y166361D01*
X205161Y166438D01*
X205153Y166516D01*
X205148Y166595D01*
X205147Y166673D01*
X205148Y166673D02*
X205152Y166842D01*
X205161Y167012D01*
X205173Y167181D01*
X205190Y167349D01*
X205211Y167518D01*
X205235Y167685D01*
X205264Y167852D01*
X205297Y168019D01*
X205334Y168184D01*
X205375Y168349D01*
X205419Y168512D01*
X205468Y168675D01*
X205520Y168836D01*
X205577Y168996D01*
X205637Y169154D01*
X205701Y169311D01*
X205769Y169467D01*
X209493Y169157D02*
X209524Y169229D01*
X209558Y169299D01*
X209596Y169368D01*
X209637Y169435D01*
X209681Y169500D01*
X209729Y169562D01*
X209779Y169622D01*
X209832Y169680D01*
X209888Y169735D01*
X209947Y169787D01*
X210008Y169836D01*
X210071Y169882D01*
X210136Y169925D01*
X210204Y169965D01*
X210273Y170002D01*
X210344Y170035D01*
X210417Y170064D01*
X210491Y170090D01*
X210566Y170113D01*
X210642Y170131D01*
X210719Y170146D01*
X210797Y170158D01*
X210875Y170165D01*
X210953Y170169D01*
X211031Y170168D01*
X211110Y170164D01*
X211188Y170157D01*
X211265Y170145D01*
X211342Y170130D01*
X211418Y170110D01*
X211493Y170088D01*
X211567Y170061D01*
X211639Y170031D01*
X211710Y169998D01*
X211779Y169961D01*
X211847Y169921D01*
X211912Y169877D01*
X211975Y169831D01*
X212036Y169781D01*
X212094Y169729D01*
X212150Y169674D01*
X212203Y169616D01*
X212253Y169555D01*
X212300Y169493D01*
X212343Y169428D01*
X212384Y169361D01*
X212422Y169292D01*
X212455Y169221D01*
X212486Y169149D01*
X212513Y169075D01*
X212536Y169001D01*
X212556Y168925D01*
X212572Y168848D01*
X212584Y168771D01*
X212592Y168693D01*
X212597Y168614D01*
X212598Y168536D01*
X212598Y168535D02*
X212591Y168286D01*
X212579Y168038D01*
X212561Y167789D01*
X212537Y167541D01*
X212507Y167294D01*
X212471Y167048D01*
X212429Y166802D01*
X212382Y166558D01*
X212328Y166314D01*
X212270Y166072D01*
X212205Y165832D01*
X212135Y165593D01*
X212059Y165356D01*
X211977Y165121D01*
X212598Y174843D02*
X205147Y174843D01*
X202043Y174533D02*
X201422Y174533D01*
X201422Y175154D01*
X202043Y175154D01*
X202043Y174533D01*
X207631Y179599D02*
X210114Y179599D01*
X207631Y179598D02*
X207532Y179600D01*
X207434Y179606D01*
X207335Y179616D01*
X207238Y179629D01*
X207140Y179647D01*
X207044Y179668D01*
X206948Y179694D01*
X206854Y179723D01*
X206761Y179755D01*
X206669Y179792D01*
X206579Y179832D01*
X206490Y179876D01*
X206403Y179923D01*
X206318Y179973D01*
X206236Y180027D01*
X206155Y180084D01*
X206077Y180144D01*
X206001Y180208D01*
X205928Y180274D01*
X205857Y180343D01*
X205789Y180415D01*
X205725Y180490D01*
X205663Y180567D01*
X205604Y180646D01*
X205549Y180728D01*
X205496Y180812D01*
X205448Y180897D01*
X205402Y180985D01*
X205360Y181075D01*
X205322Y181166D01*
X205288Y181258D01*
X205257Y181352D01*
X205230Y181447D01*
X205206Y181543D01*
X205187Y181640D01*
X205171Y181737D01*
X205159Y181835D01*
X205151Y181934D01*
X205147Y182033D01*
X205147Y182131D01*
X205151Y182230D01*
X205159Y182329D01*
X205171Y182427D01*
X205187Y182524D01*
X205206Y182621D01*
X205230Y182717D01*
X205257Y182812D01*
X205288Y182906D01*
X205322Y182998D01*
X205360Y183089D01*
X205402Y183179D01*
X205448Y183267D01*
X205496Y183352D01*
X205549Y183436D01*
X205604Y183518D01*
X205663Y183597D01*
X205725Y183674D01*
X205789Y183749D01*
X205857Y183821D01*
X205928Y183890D01*
X206001Y183956D01*
X206077Y184020D01*
X206155Y184080D01*
X206236Y184137D01*
X206318Y184191D01*
X206403Y184241D01*
X206490Y184288D01*
X206579Y184332D01*
X206669Y184372D01*
X206761Y184409D01*
X206854Y184441D01*
X206948Y184470D01*
X207044Y184496D01*
X207140Y184517D01*
X207238Y184535D01*
X207335Y184548D01*
X207434Y184558D01*
X207532Y184564D01*
X207631Y184566D01*
X210114Y184566D01*
X210213Y184564D01*
X210311Y184558D01*
X210410Y184548D01*
X210507Y184535D01*
X210605Y184517D01*
X210701Y184496D01*
X210797Y184470D01*
X210891Y184441D01*
X210984Y184409D01*
X211076Y184372D01*
X211166Y184332D01*
X211255Y184288D01*
X211342Y184241D01*
X211427Y184191D01*
X211509Y184137D01*
X211590Y184080D01*
X211668Y184020D01*
X211744Y183956D01*
X211817Y183890D01*
X211888Y183821D01*
X211956Y183749D01*
X212020Y183674D01*
X212082Y183597D01*
X212141Y183518D01*
X212196Y183436D01*
X212249Y183352D01*
X212297Y183267D01*
X212343Y183179D01*
X212385Y183089D01*
X212423Y182998D01*
X212457Y182906D01*
X212488Y182812D01*
X212515Y182717D01*
X212539Y182621D01*
X212558Y182524D01*
X212574Y182427D01*
X212586Y182329D01*
X212594Y182230D01*
X212598Y182131D01*
X212598Y182033D01*
X212594Y181934D01*
X212586Y181835D01*
X212574Y181737D01*
X212558Y181640D01*
X212539Y181543D01*
X212515Y181447D01*
X212488Y181352D01*
X212457Y181258D01*
X212423Y181166D01*
X212385Y181075D01*
X212343Y180985D01*
X212297Y180897D01*
X212249Y180812D01*
X212196Y180728D01*
X212141Y180646D01*
X212082Y180567D01*
X212020Y180490D01*
X211956Y180415D01*
X211888Y180343D01*
X211817Y180274D01*
X211744Y180208D01*
X211668Y180144D01*
X211590Y180084D01*
X211509Y180027D01*
X211427Y179973D01*
X211342Y179923D01*
X211255Y179876D01*
X211166Y179832D01*
X211076Y179792D01*
X210984Y179755D01*
X210891Y179723D01*
X210797Y179694D01*
X210701Y179668D01*
X210605Y179647D01*
X210507Y179629D01*
X210410Y179616D01*
X210311Y179606D01*
X210213Y179600D01*
X210114Y179598D01*
X212598Y189886D02*
X205147Y189886D01*
X205147Y192990D01*
X205149Y193074D01*
X205155Y193157D01*
X205164Y193240D01*
X205177Y193323D01*
X205194Y193405D01*
X205214Y193486D01*
X205238Y193566D01*
X205266Y193645D01*
X205297Y193722D01*
X205331Y193798D01*
X205369Y193873D01*
X205411Y193946D01*
X205455Y194016D01*
X205503Y194085D01*
X205553Y194152D01*
X205607Y194216D01*
X205663Y194277D01*
X205723Y194337D01*
X205784Y194393D01*
X205848Y194447D01*
X205915Y194497D01*
X205984Y194545D01*
X206054Y194589D01*
X206127Y194631D01*
X206202Y194669D01*
X206278Y194703D01*
X206355Y194734D01*
X206434Y194762D01*
X206514Y194786D01*
X206595Y194806D01*
X206677Y194823D01*
X206760Y194836D01*
X206843Y194846D01*
X206926Y194851D01*
X207010Y194853D01*
X212598Y194853D01*
X211667Y200060D02*
X211046Y200060D01*
X211046Y200681D01*
X211667Y200681D01*
X211667Y200060D01*
X206700Y200060D02*
X206079Y200060D01*
X206079Y200681D01*
X206700Y200681D01*
X206700Y200060D01*
X203906Y211744D02*
X201422Y214848D01*
X212598Y214848D01*
X212598Y211744D02*
X212598Y217953D01*
X212598Y222553D02*
X201422Y226278D01*
X212598Y230004D01*
X209804Y229072D02*
X209804Y223484D01*
X224282Y130302D02*
X235458Y130302D01*
X229249Y130302D02*
X229249Y136511D01*
X224282Y136511D02*
X235458Y136511D01*
X235458Y141492D02*
X224282Y145217D01*
X235458Y148943D01*
X232664Y148011D02*
X232664Y142423D01*
D11*
X453080Y137960D02*
X453083Y137718D01*
X453092Y137477D01*
X453106Y137236D01*
X453127Y136995D01*
X453153Y136755D01*
X453185Y136515D01*
X453223Y136276D01*
X453266Y136039D01*
X453316Y135802D01*
X453371Y135567D01*
X453431Y135333D01*
X453498Y135101D01*
X453569Y134870D01*
X453647Y134641D01*
X453730Y134414D01*
X453818Y134189D01*
X453912Y133966D01*
X454011Y133746D01*
X454116Y133528D01*
X454225Y133313D01*
X454340Y133100D01*
X454460Y132890D01*
X454585Y132684D01*
X454715Y132480D01*
X454850Y132279D01*
X454990Y132082D01*
X455134Y131888D01*
X455283Y131698D01*
X455437Y131512D01*
X455595Y131329D01*
X455757Y131150D01*
X455924Y130975D01*
X456095Y130804D01*
X456270Y130637D01*
X456449Y130475D01*
X456632Y130317D01*
X456818Y130163D01*
X457008Y130014D01*
X457202Y129870D01*
X457399Y129730D01*
X457600Y129595D01*
X457804Y129465D01*
X458010Y129340D01*
X458220Y129220D01*
X458433Y129105D01*
X458648Y128996D01*
X458866Y128891D01*
X459086Y128792D01*
X459309Y128698D01*
X459534Y128610D01*
X459761Y128527D01*
X459990Y128449D01*
X460221Y128378D01*
X460453Y128311D01*
X460687Y128251D01*
X460922Y128196D01*
X461159Y128146D01*
X461396Y128103D01*
X461635Y128065D01*
X461875Y128033D01*
X462115Y128007D01*
X462356Y127986D01*
X462597Y127972D01*
X462838Y127963D01*
X463080Y127960D01*
X453080Y137960D02*
X453080Y237960D01*
X453083Y238202D01*
X453092Y238443D01*
X453106Y238684D01*
X453127Y238925D01*
X453153Y239165D01*
X453185Y239405D01*
X453223Y239644D01*
X453266Y239881D01*
X453316Y240118D01*
X453371Y240353D01*
X453431Y240587D01*
X453498Y240819D01*
X453569Y241050D01*
X453647Y241279D01*
X453730Y241506D01*
X453818Y241731D01*
X453912Y241954D01*
X454011Y242174D01*
X454116Y242392D01*
X454225Y242607D01*
X454340Y242820D01*
X454460Y243030D01*
X454585Y243236D01*
X454715Y243440D01*
X454850Y243641D01*
X454990Y243838D01*
X455134Y244032D01*
X455283Y244222D01*
X455437Y244408D01*
X455595Y244591D01*
X455757Y244770D01*
X455924Y244945D01*
X456095Y245116D01*
X456270Y245283D01*
X456449Y245445D01*
X456632Y245603D01*
X456818Y245757D01*
X457008Y245906D01*
X457202Y246050D01*
X457399Y246190D01*
X457600Y246325D01*
X457804Y246455D01*
X458010Y246580D01*
X458220Y246700D01*
X458433Y246815D01*
X458648Y246924D01*
X458866Y247029D01*
X459086Y247128D01*
X459309Y247222D01*
X459534Y247310D01*
X459761Y247393D01*
X459990Y247471D01*
X460221Y247542D01*
X460453Y247609D01*
X460687Y247669D01*
X460922Y247724D01*
X461159Y247774D01*
X461396Y247817D01*
X461635Y247855D01*
X461875Y247887D01*
X462115Y247913D01*
X462356Y247934D01*
X462597Y247948D01*
X462838Y247957D01*
X463080Y247960D01*
X563080Y247960D02*
X563322Y247957D01*
X563563Y247948D01*
X563804Y247934D01*
X564045Y247913D01*
X564285Y247887D01*
X564525Y247855D01*
X564764Y247817D01*
X565001Y247774D01*
X565238Y247724D01*
X565473Y247669D01*
X565707Y247609D01*
X565939Y247542D01*
X566170Y247471D01*
X566399Y247393D01*
X566626Y247310D01*
X566851Y247222D01*
X567074Y247128D01*
X567294Y247029D01*
X567512Y246924D01*
X567727Y246815D01*
X567940Y246700D01*
X568150Y246580D01*
X568356Y246455D01*
X568560Y246325D01*
X568761Y246190D01*
X568958Y246050D01*
X569152Y245906D01*
X569342Y245757D01*
X569528Y245603D01*
X569711Y245445D01*
X569890Y245283D01*
X570065Y245116D01*
X570236Y244945D01*
X570403Y244770D01*
X570565Y244591D01*
X570723Y244408D01*
X570877Y244222D01*
X571026Y244032D01*
X571170Y243838D01*
X571310Y243641D01*
X571445Y243440D01*
X571575Y243236D01*
X571700Y243030D01*
X571820Y242820D01*
X571935Y242607D01*
X572044Y242392D01*
X572149Y242174D01*
X572248Y241954D01*
X572342Y241731D01*
X572430Y241506D01*
X572513Y241279D01*
X572591Y241050D01*
X572662Y240819D01*
X572729Y240587D01*
X572789Y240353D01*
X572844Y240118D01*
X572894Y239881D01*
X572937Y239644D01*
X572975Y239405D01*
X573007Y239165D01*
X573033Y238925D01*
X573054Y238684D01*
X573068Y238443D01*
X573077Y238202D01*
X573080Y237960D01*
X573080Y137960D01*
X573077Y137718D01*
X573068Y137477D01*
X573054Y137236D01*
X573033Y136995D01*
X573007Y136755D01*
X572975Y136515D01*
X572937Y136276D01*
X572894Y136039D01*
X572844Y135802D01*
X572789Y135567D01*
X572729Y135333D01*
X572662Y135101D01*
X572591Y134870D01*
X572513Y134641D01*
X572430Y134414D01*
X572342Y134189D01*
X572248Y133966D01*
X572149Y133746D01*
X572044Y133528D01*
X571935Y133313D01*
X571820Y133100D01*
X571700Y132890D01*
X571575Y132684D01*
X571445Y132480D01*
X571310Y132279D01*
X571170Y132082D01*
X571026Y131888D01*
X570877Y131698D01*
X570723Y131512D01*
X570565Y131329D01*
X570403Y131150D01*
X570236Y130975D01*
X570065Y130804D01*
X569890Y130637D01*
X569711Y130475D01*
X569528Y130317D01*
X569342Y130163D01*
X569152Y130014D01*
X568958Y129870D01*
X568761Y129730D01*
X568560Y129595D01*
X568356Y129465D01*
X568150Y129340D01*
X567940Y129220D01*
X567727Y129105D01*
X567512Y128996D01*
X567294Y128891D01*
X567074Y128792D01*
X566851Y128698D01*
X566626Y128610D01*
X566399Y128527D01*
X566170Y128449D01*
X565939Y128378D01*
X565707Y128311D01*
X565473Y128251D01*
X565238Y128196D01*
X565001Y128146D01*
X564764Y128103D01*
X564525Y128065D01*
X564285Y128033D01*
X564045Y128007D01*
X563804Y127986D01*
X563563Y127972D01*
X563322Y127963D01*
X563080Y127960D01*
X477725Y187960D02*
X477736Y188828D01*
X477768Y189695D01*
X477821Y190561D01*
X477895Y191425D01*
X477991Y192288D01*
X478108Y193148D01*
X478246Y194004D01*
X478404Y194857D01*
X478584Y195706D01*
X478785Y196551D01*
X479006Y197390D01*
X479247Y198223D01*
X479509Y199050D01*
X479792Y199871D01*
X480094Y200684D01*
X480416Y201490D01*
X480758Y202287D01*
X481119Y203076D01*
X481500Y203856D01*
X481900Y204626D01*
X482318Y205386D01*
X482755Y206136D01*
X483210Y206875D01*
X483683Y207602D01*
X484174Y208318D01*
X484683Y209021D01*
X485208Y209712D01*
X485750Y210389D01*
X486309Y211053D01*
X486884Y211703D01*
X487474Y212339D01*
X488080Y212960D01*
X488701Y213566D01*
X489337Y214156D01*
X489987Y214731D01*
X490651Y215290D01*
X491328Y215832D01*
X492019Y216357D01*
X492722Y216866D01*
X493438Y217357D01*
X494165Y217830D01*
X494904Y218285D01*
X495654Y218722D01*
X496414Y219140D01*
X497184Y219540D01*
X497964Y219921D01*
X498753Y220282D01*
X499550Y220624D01*
X500356Y220946D01*
X501169Y221248D01*
X501990Y221531D01*
X502817Y221793D01*
X503650Y222034D01*
X504489Y222255D01*
X505334Y222456D01*
X506183Y222636D01*
X507036Y222794D01*
X507892Y222932D01*
X508752Y223049D01*
X509615Y223145D01*
X510479Y223219D01*
X511345Y223272D01*
X512212Y223304D01*
X513080Y223315D01*
X513948Y223304D01*
X514815Y223272D01*
X515681Y223219D01*
X516545Y223145D01*
X517408Y223049D01*
X518268Y222932D01*
X519124Y222794D01*
X519977Y222636D01*
X520826Y222456D01*
X521671Y222255D01*
X522510Y222034D01*
X523343Y221793D01*
X524170Y221531D01*
X524991Y221248D01*
X525804Y220946D01*
X526610Y220624D01*
X527407Y220282D01*
X528196Y219921D01*
X528976Y219540D01*
X529746Y219140D01*
X530506Y218722D01*
X531256Y218285D01*
X531995Y217830D01*
X532722Y217357D01*
X533438Y216866D01*
X534141Y216357D01*
X534832Y215832D01*
X535509Y215290D01*
X536173Y214731D01*
X536823Y214156D01*
X537459Y213566D01*
X538080Y212960D01*
X538686Y212339D01*
X539276Y211703D01*
X539851Y211053D01*
X540410Y210389D01*
X540952Y209712D01*
X541477Y209021D01*
X541986Y208318D01*
X542477Y207602D01*
X542950Y206875D01*
X543405Y206136D01*
X543842Y205386D01*
X544260Y204626D01*
X544660Y203856D01*
X545041Y203076D01*
X545402Y202287D01*
X545744Y201490D01*
X546066Y200684D01*
X546368Y199871D01*
X546651Y199050D01*
X546913Y198223D01*
X547154Y197390D01*
X547375Y196551D01*
X547576Y195706D01*
X547756Y194857D01*
X547914Y194004D01*
X548052Y193148D01*
X548169Y192288D01*
X548265Y191425D01*
X548339Y190561D01*
X548392Y189695D01*
X548424Y188828D01*
X548435Y187960D01*
X548424Y187092D01*
X548392Y186225D01*
X548339Y185359D01*
X548265Y184495D01*
X548169Y183632D01*
X548052Y182772D01*
X547914Y181916D01*
X547756Y181063D01*
X547576Y180214D01*
X547375Y179369D01*
X547154Y178530D01*
X546913Y177697D01*
X546651Y176870D01*
X546368Y176049D01*
X546066Y175236D01*
X545744Y174430D01*
X545402Y173633D01*
X545041Y172844D01*
X544660Y172064D01*
X544260Y171294D01*
X543842Y170534D01*
X543405Y169784D01*
X542950Y169045D01*
X542477Y168318D01*
X541986Y167602D01*
X541477Y166899D01*
X540952Y166208D01*
X540410Y165531D01*
X539851Y164867D01*
X539276Y164217D01*
X538686Y163581D01*
X538080Y162960D01*
X537459Y162354D01*
X536823Y161764D01*
X536173Y161189D01*
X535509Y160630D01*
X534832Y160088D01*
X534141Y159563D01*
X533438Y159054D01*
X532722Y158563D01*
X531995Y158090D01*
X531256Y157635D01*
X530506Y157198D01*
X529746Y156780D01*
X528976Y156380D01*
X528196Y155999D01*
X527407Y155638D01*
X526610Y155296D01*
X525804Y154974D01*
X524991Y154672D01*
X524170Y154389D01*
X523343Y154127D01*
X522510Y153886D01*
X521671Y153665D01*
X520826Y153464D01*
X519977Y153284D01*
X519124Y153126D01*
X518268Y152988D01*
X517408Y152871D01*
X516545Y152775D01*
X515681Y152701D01*
X514815Y152648D01*
X513948Y152616D01*
X513080Y152605D01*
X512212Y152616D01*
X511345Y152648D01*
X510479Y152701D01*
X509615Y152775D01*
X508752Y152871D01*
X507892Y152988D01*
X507036Y153126D01*
X506183Y153284D01*
X505334Y153464D01*
X504489Y153665D01*
X503650Y153886D01*
X502817Y154127D01*
X501990Y154389D01*
X501169Y154672D01*
X500356Y154974D01*
X499550Y155296D01*
X498753Y155638D01*
X497964Y155999D01*
X497184Y156380D01*
X496414Y156780D01*
X495654Y157198D01*
X494904Y157635D01*
X494165Y158090D01*
X493438Y158563D01*
X492722Y159054D01*
X492019Y159563D01*
X491328Y160088D01*
X490651Y160630D01*
X489987Y161189D01*
X489337Y161764D01*
X488701Y162354D01*
X488080Y162960D01*
X487474Y163581D01*
X486884Y164217D01*
X486309Y164867D01*
X485750Y165531D01*
X485208Y166208D01*
X484683Y166899D01*
X484174Y167602D01*
X483683Y168318D01*
X483210Y169045D01*
X482755Y169784D01*
X482318Y170534D01*
X481900Y171294D01*
X481500Y172064D01*
X481119Y172844D01*
X480758Y173633D01*
X480416Y174430D01*
X480094Y175236D01*
X479792Y176049D01*
X479509Y176870D01*
X479247Y177697D01*
X479006Y178530D01*
X478785Y179369D01*
X478584Y180214D01*
X478404Y181063D01*
X478246Y181916D01*
X478108Y182772D01*
X477991Y183632D01*
X477895Y184495D01*
X477821Y185359D01*
X477768Y186225D01*
X477736Y187092D01*
X477725Y187960D01*
X533080Y207960D02*
X533080Y167960D01*
X493080Y167960D01*
X493080Y207960D01*
X533080Y207960D01*
X550580Y247960D02*
X563080Y247960D01*
X525580Y247960D02*
X500580Y247960D01*
X475580Y247960D02*
X463080Y247960D01*
X550580Y127960D02*
X563080Y127960D01*
X525580Y127960D02*
X500580Y127960D01*
X475580Y127960D02*
X463080Y127960D01*
D10*
X471678Y174428D02*
X471676Y174525D01*
X471670Y174623D01*
X471661Y174720D01*
X471647Y174817D01*
X471630Y174913D01*
X471609Y175008D01*
X471585Y175102D01*
X471556Y175196D01*
X471524Y175288D01*
X471489Y175379D01*
X471450Y175468D01*
X471407Y175556D01*
X471361Y175642D01*
X471312Y175726D01*
X471259Y175808D01*
X471204Y175888D01*
X471145Y175966D01*
X471083Y176041D01*
X471018Y176114D01*
X470950Y176184D01*
X470880Y176252D01*
X470807Y176317D01*
X470732Y176379D01*
X470654Y176438D01*
X470574Y176493D01*
X470492Y176546D01*
X470408Y176595D01*
X470322Y176641D01*
X470234Y176684D01*
X470145Y176723D01*
X470054Y176758D01*
X469962Y176790D01*
X469868Y176819D01*
X469774Y176843D01*
X469679Y176864D01*
X469583Y176881D01*
X469486Y176895D01*
X469389Y176904D01*
X469292Y176910D01*
X469194Y176912D01*
X471678Y174428D02*
X471676Y174285D01*
X471670Y174142D01*
X471661Y174000D01*
X471647Y173858D01*
X471629Y173716D01*
X471608Y173575D01*
X471583Y173434D01*
X471554Y173294D01*
X471521Y173155D01*
X471485Y173017D01*
X471444Y172880D01*
X471400Y172744D01*
X471353Y172609D01*
X471301Y172476D01*
X471246Y172344D01*
X471188Y172214D01*
X471126Y172085D01*
X471060Y171958D01*
X470991Y171833D01*
X470919Y171710D01*
X470843Y171589D01*
X470765Y171470D01*
X470682Y171353D01*
X470597Y171238D01*
X470509Y171126D01*
X470417Y171016D01*
X470323Y170909D01*
X470226Y170804D01*
X470126Y170702D01*
X462986Y171012D02*
X462888Y171014D01*
X462791Y171020D01*
X462694Y171029D01*
X462597Y171043D01*
X462501Y171060D01*
X462406Y171081D01*
X462312Y171105D01*
X462218Y171134D01*
X462126Y171166D01*
X462035Y171201D01*
X461946Y171240D01*
X461858Y171283D01*
X461772Y171329D01*
X461688Y171378D01*
X461606Y171431D01*
X461526Y171486D01*
X461448Y171545D01*
X461373Y171607D01*
X461300Y171672D01*
X461230Y171740D01*
X461162Y171810D01*
X461097Y171883D01*
X461035Y171958D01*
X460976Y172036D01*
X460921Y172116D01*
X460868Y172198D01*
X460819Y172282D01*
X460773Y172368D01*
X460730Y172456D01*
X460691Y172545D01*
X460656Y172636D01*
X460624Y172728D01*
X460595Y172822D01*
X460571Y172916D01*
X460550Y173011D01*
X460533Y173107D01*
X460519Y173204D01*
X460510Y173301D01*
X460504Y173398D01*
X460502Y173496D01*
X460504Y173626D01*
X460509Y173756D01*
X460518Y173886D01*
X460531Y174016D01*
X460547Y174145D01*
X460567Y174274D01*
X460591Y174402D01*
X460618Y174530D01*
X460649Y174656D01*
X460683Y174782D01*
X460721Y174907D01*
X460762Y175030D01*
X460807Y175153D01*
X460855Y175274D01*
X460906Y175394D01*
X460961Y175512D01*
X461019Y175628D01*
X461080Y175743D01*
X461145Y175857D01*
X461212Y175968D01*
X461283Y176077D01*
X461357Y176185D01*
X461433Y176290D01*
X465159Y172255D02*
X465108Y172172D01*
X465054Y172091D01*
X464997Y172013D01*
X464937Y171937D01*
X464874Y171863D01*
X464808Y171792D01*
X464740Y171723D01*
X464669Y171657D01*
X464596Y171593D01*
X464520Y171533D01*
X464442Y171476D01*
X464361Y171421D01*
X464279Y171370D01*
X464195Y171322D01*
X464109Y171277D01*
X464021Y171235D01*
X463932Y171197D01*
X463842Y171163D01*
X463750Y171131D01*
X463657Y171104D01*
X463563Y171080D01*
X463468Y171059D01*
X463372Y171043D01*
X463276Y171030D01*
X463180Y171020D01*
X463083Y171015D01*
X462986Y171013D01*
X467021Y175669D02*
X467072Y175752D01*
X467126Y175833D01*
X467183Y175911D01*
X467243Y175987D01*
X467306Y176061D01*
X467372Y176132D01*
X467440Y176201D01*
X467511Y176267D01*
X467584Y176331D01*
X467660Y176391D01*
X467738Y176448D01*
X467819Y176503D01*
X467901Y176554D01*
X467985Y176602D01*
X468071Y176647D01*
X468159Y176689D01*
X468248Y176727D01*
X468338Y176761D01*
X468430Y176793D01*
X468523Y176820D01*
X468617Y176844D01*
X468712Y176865D01*
X468808Y176881D01*
X468904Y176894D01*
X469000Y176904D01*
X469097Y176909D01*
X469194Y176911D01*
X467021Y175669D02*
X465159Y172254D01*
X460502Y181412D02*
X471678Y183896D01*
X464227Y186380D01*
X471678Y188863D01*
X460502Y191347D01*
X462986Y196229D02*
X460502Y199334D01*
X471678Y199334D01*
X471678Y202438D02*
X471678Y196229D01*
D12*
X94470Y148440D02*
X94472Y148503D01*
X94478Y148565D01*
X94488Y148627D01*
X94501Y148689D01*
X94519Y148749D01*
X94540Y148808D01*
X94565Y148866D01*
X94594Y148922D01*
X94626Y148976D01*
X94661Y149028D01*
X94699Y149077D01*
X94741Y149125D01*
X94785Y149169D01*
X94833Y149211D01*
X94882Y149249D01*
X94934Y149284D01*
X94988Y149316D01*
X95044Y149345D01*
X95102Y149370D01*
X95161Y149391D01*
X95221Y149409D01*
X95283Y149422D01*
X95345Y149432D01*
X95407Y149438D01*
X95470Y149440D01*
X95533Y149438D01*
X95595Y149432D01*
X95657Y149422D01*
X95719Y149409D01*
X95779Y149391D01*
X95838Y149370D01*
X95896Y149345D01*
X95952Y149316D01*
X96006Y149284D01*
X96058Y149249D01*
X96107Y149211D01*
X96155Y149169D01*
X96199Y149125D01*
X96241Y149077D01*
X96279Y149028D01*
X96314Y148976D01*
X96346Y148922D01*
X96375Y148866D01*
X96400Y148808D01*
X96421Y148749D01*
X96439Y148689D01*
X96452Y148627D01*
X96462Y148565D01*
X96468Y148503D01*
X96470Y148440D01*
X96468Y148377D01*
X96462Y148315D01*
X96452Y148253D01*
X96439Y148191D01*
X96421Y148131D01*
X96400Y148072D01*
X96375Y148014D01*
X96346Y147958D01*
X96314Y147904D01*
X96279Y147852D01*
X96241Y147803D01*
X96199Y147755D01*
X96155Y147711D01*
X96107Y147669D01*
X96058Y147631D01*
X96006Y147596D01*
X95952Y147564D01*
X95896Y147535D01*
X95838Y147510D01*
X95779Y147489D01*
X95719Y147471D01*
X95657Y147458D01*
X95595Y147448D01*
X95533Y147442D01*
X95470Y147440D01*
X95407Y147442D01*
X95345Y147448D01*
X95283Y147458D01*
X95221Y147471D01*
X95161Y147489D01*
X95102Y147510D01*
X95044Y147535D01*
X94988Y147564D01*
X94934Y147596D01*
X94882Y147631D01*
X94833Y147669D01*
X94785Y147711D01*
X94741Y147755D01*
X94699Y147803D01*
X94661Y147852D01*
X94626Y147904D01*
X94594Y147958D01*
X94565Y148014D01*
X94540Y148072D01*
X94519Y148131D01*
X94501Y148191D01*
X94488Y148253D01*
X94478Y148315D01*
X94472Y148377D01*
X94470Y148440D01*
D13*
X94270Y166340D02*
X94270Y194340D01*
X124170Y194340D02*
X124170Y166340D01*
D10*
X118854Y213362D02*
X110782Y213362D01*
X118854Y213362D02*
X118965Y213364D01*
X119075Y213370D01*
X119186Y213380D01*
X119296Y213394D01*
X119405Y213411D01*
X119514Y213433D01*
X119622Y213458D01*
X119728Y213488D01*
X119834Y213521D01*
X119939Y213558D01*
X120042Y213598D01*
X120143Y213643D01*
X120243Y213690D01*
X120342Y213742D01*
X120438Y213797D01*
X120532Y213855D01*
X120624Y213916D01*
X120714Y213981D01*
X120802Y214049D01*
X120887Y214120D01*
X120969Y214194D01*
X121049Y214271D01*
X121126Y214351D01*
X121200Y214433D01*
X121271Y214518D01*
X121339Y214606D01*
X121404Y214696D01*
X121465Y214788D01*
X121523Y214882D01*
X121578Y214978D01*
X121630Y215077D01*
X121677Y215177D01*
X121722Y215278D01*
X121762Y215381D01*
X121799Y215486D01*
X121832Y215592D01*
X121862Y215698D01*
X121887Y215806D01*
X121909Y215915D01*
X121926Y216024D01*
X121940Y216134D01*
X121950Y216245D01*
X121956Y216355D01*
X121958Y216466D01*
X121956Y216577D01*
X121950Y216687D01*
X121940Y216798D01*
X121926Y216908D01*
X121909Y217017D01*
X121887Y217126D01*
X121862Y217234D01*
X121832Y217340D01*
X121799Y217446D01*
X121762Y217551D01*
X121722Y217654D01*
X121677Y217755D01*
X121630Y217855D01*
X121578Y217954D01*
X121523Y218050D01*
X121465Y218144D01*
X121404Y218236D01*
X121339Y218326D01*
X121271Y218414D01*
X121200Y218499D01*
X121126Y218581D01*
X121049Y218661D01*
X120969Y218738D01*
X120887Y218812D01*
X120802Y218883D01*
X120714Y218951D01*
X120624Y219016D01*
X120532Y219077D01*
X120438Y219135D01*
X120342Y219190D01*
X120243Y219242D01*
X120143Y219289D01*
X120042Y219334D01*
X119939Y219374D01*
X119834Y219411D01*
X119728Y219444D01*
X119622Y219474D01*
X119514Y219499D01*
X119405Y219521D01*
X119296Y219538D01*
X119186Y219552D01*
X119075Y219562D01*
X118965Y219568D01*
X118854Y219570D01*
X118854Y219571D02*
X110782Y219571D01*
X121958Y225173D02*
X121958Y228277D01*
X121956Y228388D01*
X121950Y228498D01*
X121940Y228609D01*
X121926Y228719D01*
X121909Y228828D01*
X121887Y228937D01*
X121862Y229045D01*
X121832Y229151D01*
X121799Y229257D01*
X121762Y229362D01*
X121722Y229465D01*
X121677Y229566D01*
X121630Y229666D01*
X121578Y229765D01*
X121523Y229861D01*
X121465Y229955D01*
X121404Y230047D01*
X121339Y230137D01*
X121271Y230225D01*
X121200Y230310D01*
X121126Y230392D01*
X121049Y230472D01*
X120969Y230549D01*
X120887Y230623D01*
X120802Y230694D01*
X120714Y230762D01*
X120624Y230827D01*
X120532Y230888D01*
X120438Y230946D01*
X120342Y231001D01*
X120243Y231053D01*
X120143Y231100D01*
X120042Y231145D01*
X119939Y231185D01*
X119834Y231222D01*
X119728Y231255D01*
X119622Y231285D01*
X119514Y231310D01*
X119405Y231332D01*
X119296Y231349D01*
X119186Y231363D01*
X119075Y231373D01*
X118965Y231379D01*
X118854Y231381D01*
X118743Y231379D01*
X118633Y231373D01*
X118522Y231363D01*
X118412Y231349D01*
X118303Y231332D01*
X118194Y231310D01*
X118086Y231285D01*
X117980Y231255D01*
X117874Y231222D01*
X117769Y231185D01*
X117666Y231145D01*
X117565Y231100D01*
X117465Y231053D01*
X117366Y231001D01*
X117270Y230946D01*
X117176Y230888D01*
X117084Y230827D01*
X116994Y230762D01*
X116906Y230694D01*
X116821Y230623D01*
X116739Y230549D01*
X116659Y230472D01*
X116582Y230392D01*
X116508Y230310D01*
X116437Y230225D01*
X116369Y230137D01*
X116304Y230047D01*
X116243Y229955D01*
X116185Y229861D01*
X116130Y229765D01*
X116078Y229666D01*
X116031Y229566D01*
X115986Y229465D01*
X115946Y229362D01*
X115909Y229257D01*
X115876Y229151D01*
X115846Y229045D01*
X115821Y228937D01*
X115799Y228828D01*
X115782Y228719D01*
X115768Y228609D01*
X115758Y228498D01*
X115752Y228388D01*
X115750Y228277D01*
X110782Y228898D02*
X110782Y225173D01*
X110782Y228898D02*
X110784Y228997D01*
X110790Y229095D01*
X110800Y229194D01*
X110813Y229291D01*
X110831Y229389D01*
X110852Y229485D01*
X110878Y229581D01*
X110907Y229675D01*
X110939Y229768D01*
X110976Y229860D01*
X111016Y229950D01*
X111060Y230039D01*
X111107Y230126D01*
X111157Y230211D01*
X111211Y230293D01*
X111268Y230374D01*
X111328Y230452D01*
X111392Y230528D01*
X111458Y230601D01*
X111527Y230672D01*
X111599Y230740D01*
X111674Y230804D01*
X111751Y230866D01*
X111830Y230925D01*
X111912Y230980D01*
X111996Y231033D01*
X112081Y231081D01*
X112169Y231127D01*
X112259Y231169D01*
X112350Y231207D01*
X112442Y231241D01*
X112536Y231272D01*
X112631Y231299D01*
X112727Y231323D01*
X112824Y231342D01*
X112921Y231358D01*
X113019Y231370D01*
X113118Y231378D01*
X113217Y231382D01*
X113315Y231382D01*
X113414Y231378D01*
X113513Y231370D01*
X113611Y231358D01*
X113708Y231342D01*
X113805Y231323D01*
X113901Y231299D01*
X113996Y231272D01*
X114090Y231241D01*
X114182Y231207D01*
X114273Y231169D01*
X114363Y231127D01*
X114451Y231081D01*
X114536Y231033D01*
X114620Y230980D01*
X114702Y230925D01*
X114781Y230866D01*
X114858Y230804D01*
X114933Y230740D01*
X115005Y230672D01*
X115074Y230601D01*
X115140Y230528D01*
X115204Y230452D01*
X115264Y230374D01*
X115321Y230293D01*
X115375Y230211D01*
X115425Y230126D01*
X115472Y230039D01*
X115516Y229950D01*
X115556Y229860D01*
X115593Y229768D01*
X115625Y229675D01*
X115654Y229581D01*
X115680Y229485D01*
X115701Y229389D01*
X115719Y229291D01*
X115732Y229194D01*
X115742Y229095D01*
X115748Y228997D01*
X115750Y228898D01*
X115749Y228898D02*
X115749Y226415D01*
D13*
X119760Y104060D02*
X103760Y104060D01*
X103760Y94060D02*
X119760Y94060D01*
X109760Y96060D02*
X109760Y102060D01*
X113760Y99060D01*
X109760Y96060D01*
X113760Y96060D02*
X113760Y102060D01*
X110760Y100060D02*
X110760Y98060D01*
X111760Y99060D01*
X111760Y100060D01*
X110760Y101060D01*
X110760Y97060D01*
X112760Y99060D01*
D10*
X132842Y89662D02*
X144018Y89662D01*
X132842Y89662D02*
X132842Y92766D01*
X132844Y92874D01*
X132850Y92983D01*
X132859Y93090D01*
X132872Y93198D01*
X132889Y93305D01*
X132910Y93411D01*
X132934Y93517D01*
X132962Y93622D01*
X132994Y93725D01*
X133029Y93828D01*
X133068Y93929D01*
X133110Y94029D01*
X133156Y94127D01*
X133205Y94223D01*
X133258Y94318D01*
X133314Y94411D01*
X133373Y94502D01*
X133435Y94590D01*
X133500Y94677D01*
X133568Y94761D01*
X133639Y94843D01*
X133713Y94922D01*
X133790Y94999D01*
X133869Y95073D01*
X133951Y95144D01*
X134035Y95212D01*
X134122Y95277D01*
X134210Y95339D01*
X134301Y95398D01*
X134394Y95454D01*
X134489Y95507D01*
X134585Y95556D01*
X134684Y95602D01*
X134783Y95644D01*
X134884Y95683D01*
X134987Y95718D01*
X135090Y95750D01*
X135195Y95778D01*
X135301Y95802D01*
X135407Y95823D01*
X135514Y95840D01*
X135622Y95853D01*
X135730Y95862D01*
X135838Y95868D01*
X135946Y95870D01*
X135946Y95871D02*
X140914Y95871D01*
X140914Y95870D02*
X141025Y95868D01*
X141135Y95862D01*
X141246Y95852D01*
X141356Y95838D01*
X141465Y95821D01*
X141574Y95799D01*
X141682Y95774D01*
X141788Y95744D01*
X141894Y95711D01*
X141999Y95674D01*
X142102Y95634D01*
X142203Y95589D01*
X142303Y95542D01*
X142402Y95490D01*
X142498Y95435D01*
X142592Y95377D01*
X142684Y95316D01*
X142774Y95251D01*
X142862Y95183D01*
X142947Y95112D01*
X143029Y95038D01*
X143109Y94961D01*
X143186Y94881D01*
X143260Y94799D01*
X143331Y94714D01*
X143399Y94626D01*
X143464Y94536D01*
X143525Y94444D01*
X143583Y94350D01*
X143638Y94254D01*
X143690Y94155D01*
X143737Y94055D01*
X143782Y93954D01*
X143822Y93851D01*
X143859Y93746D01*
X143892Y93640D01*
X143922Y93534D01*
X143947Y93426D01*
X143969Y93317D01*
X143986Y93208D01*
X144000Y93098D01*
X144010Y92987D01*
X144016Y92877D01*
X144018Y92766D01*
X144018Y89662D01*
X135326Y101473D02*
X132842Y104577D01*
X144018Y104577D01*
X144018Y101473D02*
X144018Y107682D01*
X295148Y127706D02*
X295148Y130189D01*
X295148Y127706D02*
X295146Y127608D01*
X295140Y127511D01*
X295131Y127414D01*
X295117Y127317D01*
X295100Y127221D01*
X295079Y127126D01*
X295055Y127032D01*
X295026Y126938D01*
X294994Y126846D01*
X294959Y126755D01*
X294920Y126666D01*
X294877Y126578D01*
X294831Y126492D01*
X294782Y126408D01*
X294729Y126326D01*
X294674Y126246D01*
X294615Y126168D01*
X294553Y126093D01*
X294488Y126020D01*
X294420Y125950D01*
X294350Y125882D01*
X294277Y125817D01*
X294202Y125755D01*
X294124Y125696D01*
X294044Y125641D01*
X293962Y125588D01*
X293878Y125539D01*
X293792Y125493D01*
X293704Y125450D01*
X293615Y125411D01*
X293524Y125376D01*
X293432Y125344D01*
X293338Y125315D01*
X293244Y125291D01*
X293149Y125270D01*
X293053Y125253D01*
X292956Y125239D01*
X292859Y125230D01*
X292762Y125224D01*
X292664Y125222D01*
X286456Y125222D01*
X286358Y125224D01*
X286261Y125230D01*
X286164Y125239D01*
X286067Y125253D01*
X285971Y125270D01*
X285876Y125291D01*
X285782Y125315D01*
X285688Y125344D01*
X285596Y125376D01*
X285505Y125411D01*
X285416Y125450D01*
X285328Y125493D01*
X285242Y125539D01*
X285158Y125588D01*
X285076Y125641D01*
X284996Y125696D01*
X284918Y125755D01*
X284843Y125817D01*
X284770Y125882D01*
X284700Y125950D01*
X284632Y126020D01*
X284567Y126093D01*
X284505Y126168D01*
X284446Y126246D01*
X284391Y126326D01*
X284338Y126408D01*
X284289Y126492D01*
X284243Y126578D01*
X284200Y126666D01*
X284161Y126755D01*
X284126Y126846D01*
X284094Y126938D01*
X284065Y127032D01*
X284041Y127126D01*
X284020Y127221D01*
X284003Y127317D01*
X283989Y127414D01*
X283980Y127511D01*
X283974Y127608D01*
X283972Y127706D01*
X283972Y130189D01*
X295148Y134789D02*
X295148Y137893D01*
X295146Y138004D01*
X295140Y138114D01*
X295130Y138225D01*
X295116Y138335D01*
X295099Y138444D01*
X295077Y138553D01*
X295052Y138661D01*
X295022Y138767D01*
X294989Y138873D01*
X294952Y138978D01*
X294912Y139081D01*
X294867Y139182D01*
X294820Y139282D01*
X294768Y139381D01*
X294713Y139477D01*
X294655Y139571D01*
X294594Y139663D01*
X294529Y139753D01*
X294461Y139841D01*
X294390Y139926D01*
X294316Y140008D01*
X294239Y140088D01*
X294159Y140165D01*
X294077Y140239D01*
X293992Y140310D01*
X293904Y140378D01*
X293814Y140443D01*
X293722Y140504D01*
X293628Y140562D01*
X293532Y140617D01*
X293433Y140669D01*
X293333Y140716D01*
X293232Y140761D01*
X293129Y140801D01*
X293024Y140838D01*
X292918Y140871D01*
X292812Y140901D01*
X292704Y140926D01*
X292595Y140948D01*
X292486Y140965D01*
X292376Y140979D01*
X292265Y140989D01*
X292155Y140995D01*
X292044Y140997D01*
X291933Y140995D01*
X291823Y140989D01*
X291712Y140979D01*
X291602Y140965D01*
X291493Y140948D01*
X291384Y140926D01*
X291276Y140901D01*
X291170Y140871D01*
X291064Y140838D01*
X290959Y140801D01*
X290856Y140761D01*
X290755Y140716D01*
X290655Y140669D01*
X290556Y140617D01*
X290460Y140562D01*
X290366Y140504D01*
X290274Y140443D01*
X290184Y140378D01*
X290096Y140310D01*
X290011Y140239D01*
X289929Y140165D01*
X289849Y140088D01*
X289772Y140008D01*
X289698Y139926D01*
X289627Y139841D01*
X289559Y139753D01*
X289494Y139663D01*
X289433Y139571D01*
X289375Y139477D01*
X289320Y139381D01*
X289268Y139282D01*
X289221Y139182D01*
X289176Y139081D01*
X289136Y138978D01*
X289099Y138873D01*
X289066Y138767D01*
X289036Y138661D01*
X289011Y138553D01*
X288989Y138444D01*
X288972Y138335D01*
X288958Y138225D01*
X288948Y138114D01*
X288942Y138004D01*
X288940Y137893D01*
X283972Y138514D02*
X283972Y134789D01*
X283972Y138514D02*
X283974Y138613D01*
X283980Y138711D01*
X283990Y138810D01*
X284003Y138907D01*
X284021Y139005D01*
X284042Y139101D01*
X284068Y139197D01*
X284097Y139291D01*
X284129Y139384D01*
X284166Y139476D01*
X284206Y139566D01*
X284250Y139655D01*
X284297Y139742D01*
X284347Y139827D01*
X284401Y139909D01*
X284458Y139990D01*
X284518Y140068D01*
X284582Y140144D01*
X284648Y140217D01*
X284717Y140288D01*
X284789Y140356D01*
X284864Y140420D01*
X284941Y140482D01*
X285020Y140541D01*
X285102Y140596D01*
X285186Y140649D01*
X285271Y140697D01*
X285359Y140743D01*
X285449Y140785D01*
X285540Y140823D01*
X285632Y140857D01*
X285726Y140888D01*
X285821Y140915D01*
X285917Y140939D01*
X286014Y140958D01*
X286111Y140974D01*
X286209Y140986D01*
X286308Y140994D01*
X286407Y140998D01*
X286505Y140998D01*
X286604Y140994D01*
X286703Y140986D01*
X286801Y140974D01*
X286898Y140958D01*
X286995Y140939D01*
X287091Y140915D01*
X287186Y140888D01*
X287280Y140857D01*
X287372Y140823D01*
X287463Y140785D01*
X287553Y140743D01*
X287641Y140697D01*
X287726Y140649D01*
X287810Y140596D01*
X287892Y140541D01*
X287971Y140482D01*
X288048Y140420D01*
X288123Y140356D01*
X288195Y140288D01*
X288264Y140217D01*
X288330Y140144D01*
X288394Y140068D01*
X288454Y139990D01*
X288511Y139909D01*
X288565Y139827D01*
X288615Y139742D01*
X288662Y139655D01*
X288706Y139566D01*
X288746Y139476D01*
X288783Y139384D01*
X288815Y139291D01*
X288844Y139197D01*
X288870Y139101D01*
X288891Y139005D01*
X288909Y138907D01*
X288922Y138810D01*
X288932Y138711D01*
X288938Y138613D01*
X288940Y138514D01*
X288939Y138514D02*
X288939Y136030D01*
D13*
X178180Y104060D02*
X162180Y104060D01*
X162180Y94060D02*
X178180Y94060D01*
X168180Y96060D02*
X168180Y102060D01*
X172180Y99060D01*
X168180Y96060D01*
X172180Y96060D02*
X172180Y102060D01*
X169180Y100060D02*
X169180Y98060D01*
X170180Y99060D01*
X170180Y100060D01*
X169180Y101060D01*
X169180Y97060D01*
X171180Y99060D01*
D10*
X191262Y89662D02*
X202438Y89662D01*
X191262Y89662D02*
X191262Y92766D01*
X191264Y92874D01*
X191270Y92983D01*
X191279Y93090D01*
X191292Y93198D01*
X191309Y93305D01*
X191330Y93411D01*
X191354Y93517D01*
X191382Y93622D01*
X191414Y93725D01*
X191449Y93828D01*
X191488Y93929D01*
X191530Y94029D01*
X191576Y94127D01*
X191625Y94223D01*
X191678Y94318D01*
X191734Y94411D01*
X191793Y94502D01*
X191855Y94590D01*
X191920Y94677D01*
X191988Y94761D01*
X192059Y94843D01*
X192133Y94922D01*
X192210Y94999D01*
X192289Y95073D01*
X192371Y95144D01*
X192455Y95212D01*
X192542Y95277D01*
X192630Y95339D01*
X192721Y95398D01*
X192814Y95454D01*
X192909Y95507D01*
X193005Y95556D01*
X193104Y95602D01*
X193203Y95644D01*
X193304Y95683D01*
X193407Y95718D01*
X193510Y95750D01*
X193615Y95778D01*
X193721Y95802D01*
X193827Y95823D01*
X193934Y95840D01*
X194042Y95853D01*
X194150Y95862D01*
X194258Y95868D01*
X194366Y95870D01*
X194366Y95871D02*
X199334Y95871D01*
X199334Y95870D02*
X199445Y95868D01*
X199555Y95862D01*
X199666Y95852D01*
X199776Y95838D01*
X199885Y95821D01*
X199994Y95799D01*
X200102Y95774D01*
X200208Y95744D01*
X200314Y95711D01*
X200419Y95674D01*
X200522Y95634D01*
X200623Y95589D01*
X200723Y95542D01*
X200822Y95490D01*
X200918Y95435D01*
X201012Y95377D01*
X201104Y95316D01*
X201194Y95251D01*
X201282Y95183D01*
X201367Y95112D01*
X201449Y95038D01*
X201529Y94961D01*
X201606Y94881D01*
X201680Y94799D01*
X201751Y94714D01*
X201819Y94626D01*
X201884Y94536D01*
X201945Y94444D01*
X202003Y94350D01*
X202058Y94254D01*
X202110Y94155D01*
X202157Y94055D01*
X202202Y93954D01*
X202242Y93851D01*
X202279Y93746D01*
X202312Y93640D01*
X202342Y93534D01*
X202367Y93426D01*
X202389Y93317D01*
X202406Y93208D01*
X202420Y93098D01*
X202430Y92987D01*
X202436Y92877D01*
X202438Y92766D01*
X202438Y89662D01*
X191262Y104888D02*
X191264Y104992D01*
X191270Y105097D01*
X191280Y105201D01*
X191293Y105304D01*
X191311Y105407D01*
X191332Y105510D01*
X191357Y105611D01*
X191386Y105712D01*
X191419Y105811D01*
X191455Y105909D01*
X191495Y106005D01*
X191539Y106100D01*
X191586Y106194D01*
X191636Y106285D01*
X191690Y106374D01*
X191747Y106462D01*
X191808Y106547D01*
X191872Y106630D01*
X191938Y106710D01*
X192008Y106788D01*
X192080Y106864D01*
X192156Y106936D01*
X192234Y107006D01*
X192314Y107072D01*
X192397Y107136D01*
X192482Y107197D01*
X192570Y107254D01*
X192659Y107308D01*
X192750Y107358D01*
X192844Y107405D01*
X192939Y107449D01*
X193035Y107489D01*
X193133Y107525D01*
X193232Y107558D01*
X193333Y107587D01*
X193434Y107612D01*
X193537Y107633D01*
X193640Y107651D01*
X193743Y107664D01*
X193847Y107674D01*
X193952Y107680D01*
X194056Y107682D01*
X191262Y104888D02*
X191264Y104769D01*
X191270Y104651D01*
X191280Y104532D01*
X191293Y104414D01*
X191311Y104297D01*
X191333Y104180D01*
X191358Y104064D01*
X191387Y103949D01*
X191420Y103834D01*
X191457Y103721D01*
X191497Y103610D01*
X191541Y103499D01*
X191589Y103391D01*
X191640Y103284D01*
X191695Y103178D01*
X191754Y103075D01*
X191815Y102973D01*
X191880Y102874D01*
X191949Y102776D01*
X192020Y102682D01*
X192095Y102589D01*
X192172Y102499D01*
X192253Y102412D01*
X192336Y102327D01*
X192422Y102245D01*
X192511Y102166D01*
X192602Y102090D01*
X192696Y102017D01*
X192792Y101948D01*
X192891Y101881D01*
X192991Y101818D01*
X193094Y101758D01*
X193198Y101701D01*
X193305Y101649D01*
X193413Y101599D01*
X193522Y101553D01*
X193634Y101511D01*
X193746Y101473D01*
X196229Y106751D02*
X196155Y106826D01*
X196078Y106898D01*
X195999Y106968D01*
X195917Y107035D01*
X195833Y107099D01*
X195747Y107160D01*
X195659Y107218D01*
X195568Y107273D01*
X195476Y107325D01*
X195382Y107373D01*
X195287Y107418D01*
X195189Y107460D01*
X195091Y107498D01*
X194991Y107533D01*
X194890Y107564D01*
X194788Y107591D01*
X194685Y107615D01*
X194582Y107636D01*
X194477Y107652D01*
X194372Y107665D01*
X194267Y107675D01*
X194162Y107680D01*
X194056Y107682D01*
X196229Y106751D02*
X202438Y101473D01*
X202438Y107682D01*
D13*
X223140Y104060D02*
X239140Y104060D01*
X239140Y94060D02*
X223140Y94060D01*
X229140Y96060D02*
X229140Y102060D01*
X233140Y99060D01*
X229140Y96060D01*
X233140Y96060D02*
X233140Y102060D01*
X230140Y100060D02*
X230140Y98060D01*
X231140Y99060D01*
X231140Y100060D01*
X230140Y101060D01*
X230140Y97060D01*
X232140Y99060D01*
D10*
X252222Y89662D02*
X263398Y89662D01*
X252222Y89662D02*
X252222Y92766D01*
X252224Y92874D01*
X252230Y92983D01*
X252239Y93090D01*
X252252Y93198D01*
X252269Y93305D01*
X252290Y93411D01*
X252314Y93517D01*
X252342Y93622D01*
X252374Y93725D01*
X252409Y93828D01*
X252448Y93929D01*
X252490Y94029D01*
X252536Y94127D01*
X252585Y94223D01*
X252638Y94318D01*
X252694Y94411D01*
X252753Y94502D01*
X252815Y94590D01*
X252880Y94677D01*
X252948Y94761D01*
X253019Y94843D01*
X253093Y94922D01*
X253170Y94999D01*
X253249Y95073D01*
X253331Y95144D01*
X253415Y95212D01*
X253502Y95277D01*
X253590Y95339D01*
X253681Y95398D01*
X253774Y95454D01*
X253869Y95507D01*
X253965Y95556D01*
X254064Y95602D01*
X254163Y95644D01*
X254264Y95683D01*
X254367Y95718D01*
X254470Y95750D01*
X254575Y95778D01*
X254681Y95802D01*
X254787Y95823D01*
X254894Y95840D01*
X255002Y95853D01*
X255110Y95862D01*
X255218Y95868D01*
X255326Y95870D01*
X255326Y95871D02*
X260294Y95871D01*
X260294Y95870D02*
X260405Y95868D01*
X260515Y95862D01*
X260626Y95852D01*
X260736Y95838D01*
X260845Y95821D01*
X260954Y95799D01*
X261062Y95774D01*
X261168Y95744D01*
X261274Y95711D01*
X261379Y95674D01*
X261482Y95634D01*
X261583Y95589D01*
X261683Y95542D01*
X261782Y95490D01*
X261878Y95435D01*
X261972Y95377D01*
X262064Y95316D01*
X262154Y95251D01*
X262242Y95183D01*
X262327Y95112D01*
X262409Y95038D01*
X262489Y94961D01*
X262566Y94881D01*
X262640Y94799D01*
X262711Y94714D01*
X262779Y94626D01*
X262844Y94536D01*
X262905Y94444D01*
X262963Y94350D01*
X263018Y94254D01*
X263070Y94155D01*
X263117Y94055D01*
X263162Y93954D01*
X263202Y93851D01*
X263239Y93746D01*
X263272Y93640D01*
X263302Y93534D01*
X263327Y93426D01*
X263349Y93317D01*
X263366Y93208D01*
X263380Y93098D01*
X263390Y92987D01*
X263396Y92877D01*
X263398Y92766D01*
X263398Y89662D01*
X263398Y101473D02*
X263398Y104577D01*
X263396Y104688D01*
X263390Y104798D01*
X263380Y104909D01*
X263366Y105019D01*
X263349Y105128D01*
X263327Y105237D01*
X263302Y105345D01*
X263272Y105451D01*
X263239Y105557D01*
X263202Y105662D01*
X263162Y105765D01*
X263117Y105866D01*
X263070Y105966D01*
X263018Y106065D01*
X262963Y106161D01*
X262905Y106255D01*
X262844Y106347D01*
X262779Y106437D01*
X262711Y106525D01*
X262640Y106610D01*
X262566Y106692D01*
X262489Y106772D01*
X262409Y106849D01*
X262327Y106923D01*
X262242Y106994D01*
X262154Y107062D01*
X262064Y107127D01*
X261972Y107188D01*
X261878Y107246D01*
X261782Y107301D01*
X261683Y107353D01*
X261583Y107400D01*
X261482Y107445D01*
X261379Y107485D01*
X261274Y107522D01*
X261168Y107555D01*
X261062Y107585D01*
X260954Y107610D01*
X260845Y107632D01*
X260736Y107649D01*
X260626Y107663D01*
X260515Y107673D01*
X260405Y107679D01*
X260294Y107681D01*
X260183Y107679D01*
X260073Y107673D01*
X259962Y107663D01*
X259852Y107649D01*
X259743Y107632D01*
X259634Y107610D01*
X259526Y107585D01*
X259420Y107555D01*
X259314Y107522D01*
X259209Y107485D01*
X259106Y107445D01*
X259005Y107400D01*
X258905Y107353D01*
X258806Y107301D01*
X258710Y107246D01*
X258616Y107188D01*
X258524Y107127D01*
X258434Y107062D01*
X258346Y106994D01*
X258261Y106923D01*
X258179Y106849D01*
X258099Y106772D01*
X258022Y106692D01*
X257948Y106610D01*
X257877Y106525D01*
X257809Y106437D01*
X257744Y106347D01*
X257683Y106255D01*
X257625Y106161D01*
X257570Y106065D01*
X257518Y105966D01*
X257471Y105866D01*
X257426Y105765D01*
X257386Y105662D01*
X257349Y105557D01*
X257316Y105451D01*
X257286Y105345D01*
X257261Y105237D01*
X257239Y105128D01*
X257222Y105019D01*
X257208Y104909D01*
X257198Y104798D01*
X257192Y104688D01*
X257190Y104577D01*
X252222Y105198D02*
X252222Y101473D01*
X252222Y105198D02*
X252224Y105297D01*
X252230Y105395D01*
X252240Y105494D01*
X252253Y105591D01*
X252271Y105689D01*
X252292Y105785D01*
X252318Y105881D01*
X252347Y105975D01*
X252379Y106068D01*
X252416Y106160D01*
X252456Y106250D01*
X252500Y106339D01*
X252547Y106426D01*
X252597Y106511D01*
X252651Y106593D01*
X252708Y106674D01*
X252768Y106752D01*
X252832Y106828D01*
X252898Y106901D01*
X252967Y106972D01*
X253039Y107040D01*
X253114Y107104D01*
X253191Y107166D01*
X253270Y107225D01*
X253352Y107280D01*
X253436Y107333D01*
X253521Y107381D01*
X253609Y107427D01*
X253699Y107469D01*
X253790Y107507D01*
X253882Y107541D01*
X253976Y107572D01*
X254071Y107599D01*
X254167Y107623D01*
X254264Y107642D01*
X254361Y107658D01*
X254459Y107670D01*
X254558Y107678D01*
X254657Y107682D01*
X254755Y107682D01*
X254854Y107678D01*
X254953Y107670D01*
X255051Y107658D01*
X255148Y107642D01*
X255245Y107623D01*
X255341Y107599D01*
X255436Y107572D01*
X255530Y107541D01*
X255622Y107507D01*
X255713Y107469D01*
X255803Y107427D01*
X255891Y107381D01*
X255976Y107333D01*
X256060Y107280D01*
X256142Y107225D01*
X256221Y107166D01*
X256298Y107104D01*
X256373Y107040D01*
X256445Y106972D01*
X256514Y106901D01*
X256580Y106828D01*
X256644Y106752D01*
X256704Y106674D01*
X256761Y106593D01*
X256815Y106511D01*
X256865Y106426D01*
X256912Y106339D01*
X256956Y106250D01*
X256996Y106160D01*
X257033Y106068D01*
X257065Y105975D01*
X257094Y105881D01*
X257120Y105785D01*
X257141Y105689D01*
X257159Y105591D01*
X257172Y105494D01*
X257182Y105395D01*
X257188Y105297D01*
X257190Y105198D01*
X257189Y105198D02*
X257189Y102715D01*
D13*
X286640Y104060D02*
X302640Y104060D01*
X302640Y94060D02*
X286640Y94060D01*
X292640Y96060D02*
X292640Y102060D01*
X296640Y99060D01*
X292640Y96060D01*
X296640Y96060D02*
X296640Y102060D01*
X293640Y100060D02*
X293640Y98060D01*
X294640Y99060D01*
X294640Y100060D01*
X293640Y101060D01*
X293640Y97060D01*
X295640Y99060D01*
D10*
X315722Y89662D02*
X326898Y89662D01*
X315722Y89662D02*
X315722Y92766D01*
X315724Y92874D01*
X315730Y92983D01*
X315739Y93090D01*
X315752Y93198D01*
X315769Y93305D01*
X315790Y93411D01*
X315814Y93517D01*
X315842Y93622D01*
X315874Y93725D01*
X315909Y93828D01*
X315948Y93929D01*
X315990Y94029D01*
X316036Y94127D01*
X316085Y94223D01*
X316138Y94318D01*
X316194Y94411D01*
X316253Y94502D01*
X316315Y94590D01*
X316380Y94677D01*
X316448Y94761D01*
X316519Y94843D01*
X316593Y94922D01*
X316670Y94999D01*
X316749Y95073D01*
X316831Y95144D01*
X316915Y95212D01*
X317002Y95277D01*
X317090Y95339D01*
X317181Y95398D01*
X317274Y95454D01*
X317369Y95507D01*
X317465Y95556D01*
X317564Y95602D01*
X317663Y95644D01*
X317764Y95683D01*
X317867Y95718D01*
X317970Y95750D01*
X318075Y95778D01*
X318181Y95802D01*
X318287Y95823D01*
X318394Y95840D01*
X318502Y95853D01*
X318610Y95862D01*
X318718Y95868D01*
X318826Y95870D01*
X318826Y95871D02*
X323794Y95871D01*
X323794Y95870D02*
X323905Y95868D01*
X324015Y95862D01*
X324126Y95852D01*
X324236Y95838D01*
X324345Y95821D01*
X324454Y95799D01*
X324562Y95774D01*
X324668Y95744D01*
X324774Y95711D01*
X324879Y95674D01*
X324982Y95634D01*
X325083Y95589D01*
X325183Y95542D01*
X325282Y95490D01*
X325378Y95435D01*
X325472Y95377D01*
X325564Y95316D01*
X325654Y95251D01*
X325742Y95183D01*
X325827Y95112D01*
X325909Y95038D01*
X325989Y94961D01*
X326066Y94881D01*
X326140Y94799D01*
X326211Y94714D01*
X326279Y94626D01*
X326344Y94536D01*
X326405Y94444D01*
X326463Y94350D01*
X326518Y94254D01*
X326570Y94155D01*
X326617Y94055D01*
X326662Y93954D01*
X326702Y93851D01*
X326739Y93746D01*
X326772Y93640D01*
X326802Y93534D01*
X326827Y93426D01*
X326849Y93317D01*
X326866Y93208D01*
X326880Y93098D01*
X326890Y92987D01*
X326896Y92877D01*
X326898Y92766D01*
X326898Y89662D01*
X324414Y101473D02*
X315722Y103957D01*
X324414Y101473D02*
X324414Y107682D01*
X321931Y105819D02*
X326898Y105819D01*
D13*
X530860Y101600D02*
X530860Y91440D01*
D10*
X546862Y87122D02*
X558038Y87122D01*
X546862Y87122D02*
X546862Y90226D01*
X546864Y90337D01*
X546870Y90447D01*
X546880Y90558D01*
X546894Y90668D01*
X546911Y90777D01*
X546933Y90886D01*
X546958Y90994D01*
X546988Y91100D01*
X547021Y91206D01*
X547058Y91311D01*
X547098Y91414D01*
X547143Y91515D01*
X547190Y91615D01*
X547242Y91714D01*
X547297Y91810D01*
X547355Y91904D01*
X547416Y91996D01*
X547481Y92086D01*
X547549Y92174D01*
X547620Y92259D01*
X547694Y92341D01*
X547771Y92421D01*
X547851Y92498D01*
X547933Y92572D01*
X548018Y92643D01*
X548106Y92711D01*
X548196Y92776D01*
X548288Y92837D01*
X548382Y92895D01*
X548478Y92950D01*
X548577Y93002D01*
X548677Y93049D01*
X548778Y93094D01*
X548881Y93134D01*
X548986Y93171D01*
X549092Y93204D01*
X549198Y93234D01*
X549306Y93259D01*
X549415Y93281D01*
X549524Y93298D01*
X549634Y93312D01*
X549745Y93322D01*
X549855Y93328D01*
X549966Y93330D01*
X550077Y93328D01*
X550187Y93322D01*
X550298Y93312D01*
X550408Y93298D01*
X550517Y93281D01*
X550626Y93259D01*
X550734Y93234D01*
X550840Y93204D01*
X550946Y93171D01*
X551051Y93134D01*
X551154Y93094D01*
X551255Y93049D01*
X551355Y93002D01*
X551454Y92950D01*
X551550Y92895D01*
X551644Y92837D01*
X551736Y92776D01*
X551826Y92711D01*
X551914Y92643D01*
X551999Y92572D01*
X552081Y92498D01*
X552161Y92421D01*
X552238Y92341D01*
X552312Y92259D01*
X552383Y92174D01*
X552451Y92086D01*
X552516Y91996D01*
X552577Y91904D01*
X552635Y91810D01*
X552690Y91714D01*
X552742Y91615D01*
X552789Y91515D01*
X552834Y91414D01*
X552874Y91311D01*
X552911Y91206D01*
X552944Y91100D01*
X552974Y90994D01*
X552999Y90886D01*
X553021Y90777D01*
X553038Y90668D01*
X553052Y90558D01*
X553062Y90447D01*
X553068Y90337D01*
X553070Y90226D01*
X553071Y90226D02*
X553071Y87122D01*
X553071Y90847D02*
X558038Y93331D01*
X546862Y101875D02*
X546864Y101979D01*
X546870Y102084D01*
X546880Y102188D01*
X546893Y102291D01*
X546911Y102394D01*
X546932Y102497D01*
X546957Y102598D01*
X546986Y102699D01*
X547019Y102798D01*
X547055Y102896D01*
X547095Y102992D01*
X547139Y103087D01*
X547186Y103181D01*
X547236Y103272D01*
X547290Y103361D01*
X547347Y103449D01*
X547408Y103534D01*
X547472Y103617D01*
X547538Y103697D01*
X547608Y103775D01*
X547680Y103851D01*
X547756Y103923D01*
X547834Y103993D01*
X547914Y104059D01*
X547997Y104123D01*
X548082Y104184D01*
X548170Y104241D01*
X548259Y104295D01*
X548350Y104345D01*
X548444Y104392D01*
X548539Y104436D01*
X548635Y104476D01*
X548733Y104512D01*
X548832Y104545D01*
X548933Y104574D01*
X549034Y104599D01*
X549137Y104620D01*
X549240Y104638D01*
X549343Y104651D01*
X549447Y104661D01*
X549552Y104667D01*
X549656Y104669D01*
X546862Y101875D02*
X546864Y101756D01*
X546870Y101638D01*
X546880Y101519D01*
X546893Y101401D01*
X546911Y101284D01*
X546933Y101167D01*
X546958Y101051D01*
X546987Y100936D01*
X547020Y100821D01*
X547057Y100708D01*
X547097Y100597D01*
X547141Y100486D01*
X547189Y100378D01*
X547240Y100271D01*
X547295Y100165D01*
X547354Y100062D01*
X547415Y99960D01*
X547480Y99861D01*
X547549Y99763D01*
X547620Y99669D01*
X547695Y99576D01*
X547772Y99486D01*
X547853Y99399D01*
X547936Y99314D01*
X548022Y99232D01*
X548111Y99153D01*
X548202Y99077D01*
X548296Y99004D01*
X548392Y98935D01*
X548491Y98868D01*
X548591Y98805D01*
X548694Y98745D01*
X548798Y98688D01*
X548905Y98636D01*
X549013Y98586D01*
X549122Y98540D01*
X549234Y98498D01*
X549346Y98460D01*
X551829Y103738D02*
X551755Y103813D01*
X551678Y103885D01*
X551599Y103955D01*
X551517Y104022D01*
X551433Y104086D01*
X551347Y104147D01*
X551259Y104205D01*
X551168Y104260D01*
X551076Y104312D01*
X550982Y104360D01*
X550887Y104405D01*
X550789Y104447D01*
X550691Y104485D01*
X550591Y104520D01*
X550490Y104551D01*
X550388Y104578D01*
X550285Y104602D01*
X550182Y104623D01*
X550077Y104639D01*
X549972Y104652D01*
X549867Y104662D01*
X549762Y104667D01*
X549656Y104669D01*
X551829Y103738D02*
X558038Y98460D01*
X558038Y104669D01*
D13*
X334640Y173360D02*
X329640Y173360D01*
X334640Y173360D02*
X334640Y178360D01*
X299640Y173360D02*
X294640Y173360D01*
X294640Y178360D01*
X294640Y213360D02*
X299640Y213360D01*
X294640Y213360D02*
X294640Y208360D01*
X333390Y213360D02*
X333392Y213430D01*
X333398Y213500D01*
X333408Y213569D01*
X333421Y213638D01*
X333439Y213706D01*
X333460Y213773D01*
X333485Y213838D01*
X333514Y213902D01*
X333546Y213965D01*
X333582Y214025D01*
X333621Y214083D01*
X333663Y214139D01*
X333708Y214193D01*
X333756Y214244D01*
X333807Y214292D01*
X333861Y214337D01*
X333917Y214379D01*
X333975Y214418D01*
X334035Y214454D01*
X334098Y214486D01*
X334162Y214515D01*
X334227Y214540D01*
X334294Y214561D01*
X334362Y214579D01*
X334431Y214592D01*
X334500Y214602D01*
X334570Y214608D01*
X334640Y214610D01*
X334710Y214608D01*
X334780Y214602D01*
X334849Y214592D01*
X334918Y214579D01*
X334986Y214561D01*
X335053Y214540D01*
X335118Y214515D01*
X335182Y214486D01*
X335245Y214454D01*
X335305Y214418D01*
X335363Y214379D01*
X335419Y214337D01*
X335473Y214292D01*
X335524Y214244D01*
X335572Y214193D01*
X335617Y214139D01*
X335659Y214083D01*
X335698Y214025D01*
X335734Y213965D01*
X335766Y213902D01*
X335795Y213838D01*
X335820Y213773D01*
X335841Y213706D01*
X335859Y213638D01*
X335872Y213569D01*
X335882Y213500D01*
X335888Y213430D01*
X335890Y213360D01*
X335888Y213290D01*
X335882Y213220D01*
X335872Y213151D01*
X335859Y213082D01*
X335841Y213014D01*
X335820Y212947D01*
X335795Y212882D01*
X335766Y212818D01*
X335734Y212755D01*
X335698Y212695D01*
X335659Y212637D01*
X335617Y212581D01*
X335572Y212527D01*
X335524Y212476D01*
X335473Y212428D01*
X335419Y212383D01*
X335363Y212341D01*
X335305Y212302D01*
X335245Y212266D01*
X335182Y212234D01*
X335118Y212205D01*
X335053Y212180D01*
X334986Y212159D01*
X334918Y212141D01*
X334849Y212128D01*
X334780Y212118D01*
X334710Y212112D01*
X334640Y212110D01*
X334570Y212112D01*
X334500Y212118D01*
X334431Y212128D01*
X334362Y212141D01*
X334294Y212159D01*
X334227Y212180D01*
X334162Y212205D01*
X334098Y212234D01*
X334035Y212266D01*
X333975Y212302D01*
X333917Y212341D01*
X333861Y212383D01*
X333807Y212428D01*
X333756Y212476D01*
X333708Y212527D01*
X333663Y212581D01*
X333621Y212637D01*
X333582Y212695D01*
X333546Y212755D01*
X333514Y212818D01*
X333485Y212882D01*
X333460Y212947D01*
X333439Y213014D01*
X333421Y213082D01*
X333408Y213151D01*
X333398Y213220D01*
X333392Y213290D01*
X333390Y213360D01*
D10*
X353102Y184418D02*
X361174Y184418D01*
X361174Y184419D02*
X361285Y184421D01*
X361395Y184427D01*
X361506Y184437D01*
X361616Y184451D01*
X361725Y184468D01*
X361834Y184490D01*
X361942Y184515D01*
X362048Y184545D01*
X362154Y184578D01*
X362259Y184615D01*
X362362Y184655D01*
X362463Y184700D01*
X362563Y184747D01*
X362662Y184799D01*
X362758Y184854D01*
X362852Y184912D01*
X362944Y184973D01*
X363034Y185038D01*
X363122Y185106D01*
X363207Y185177D01*
X363289Y185251D01*
X363369Y185328D01*
X363446Y185408D01*
X363520Y185490D01*
X363591Y185575D01*
X363659Y185663D01*
X363724Y185753D01*
X363785Y185845D01*
X363843Y185939D01*
X363898Y186035D01*
X363950Y186134D01*
X363997Y186234D01*
X364042Y186335D01*
X364082Y186438D01*
X364119Y186543D01*
X364152Y186649D01*
X364182Y186755D01*
X364207Y186863D01*
X364229Y186972D01*
X364246Y187081D01*
X364260Y187191D01*
X364270Y187302D01*
X364276Y187412D01*
X364278Y187523D01*
X364276Y187634D01*
X364270Y187744D01*
X364260Y187855D01*
X364246Y187965D01*
X364229Y188074D01*
X364207Y188183D01*
X364182Y188291D01*
X364152Y188397D01*
X364119Y188503D01*
X364082Y188608D01*
X364042Y188711D01*
X363997Y188812D01*
X363950Y188912D01*
X363898Y189011D01*
X363843Y189107D01*
X363785Y189201D01*
X363724Y189293D01*
X363659Y189383D01*
X363591Y189471D01*
X363520Y189556D01*
X363446Y189638D01*
X363369Y189718D01*
X363289Y189795D01*
X363207Y189869D01*
X363122Y189940D01*
X363034Y190008D01*
X362944Y190073D01*
X362852Y190134D01*
X362758Y190192D01*
X362662Y190247D01*
X362563Y190299D01*
X362463Y190346D01*
X362362Y190391D01*
X362259Y190431D01*
X362154Y190468D01*
X362048Y190501D01*
X361942Y190531D01*
X361834Y190556D01*
X361725Y190578D01*
X361616Y190595D01*
X361506Y190609D01*
X361395Y190619D01*
X361285Y190625D01*
X361174Y190627D01*
X353102Y190627D01*
X364278Y196229D02*
X364278Y199954D01*
X364276Y200052D01*
X364270Y200149D01*
X364261Y200246D01*
X364247Y200343D01*
X364230Y200439D01*
X364209Y200534D01*
X364185Y200628D01*
X364156Y200722D01*
X364124Y200814D01*
X364089Y200905D01*
X364050Y200994D01*
X364007Y201082D01*
X363961Y201168D01*
X363912Y201252D01*
X363859Y201334D01*
X363804Y201414D01*
X363745Y201492D01*
X363683Y201567D01*
X363618Y201640D01*
X363550Y201710D01*
X363480Y201778D01*
X363407Y201843D01*
X363332Y201905D01*
X363254Y201964D01*
X363174Y202019D01*
X363092Y202072D01*
X363008Y202121D01*
X362922Y202167D01*
X362834Y202210D01*
X362745Y202249D01*
X362654Y202284D01*
X362562Y202316D01*
X362468Y202345D01*
X362374Y202369D01*
X362279Y202390D01*
X362183Y202407D01*
X362086Y202421D01*
X361989Y202430D01*
X361892Y202436D01*
X361794Y202438D01*
X360553Y202438D01*
X360455Y202436D01*
X360358Y202430D01*
X360261Y202421D01*
X360164Y202407D01*
X360068Y202390D01*
X359973Y202369D01*
X359879Y202345D01*
X359785Y202316D01*
X359693Y202284D01*
X359602Y202249D01*
X359513Y202210D01*
X359425Y202167D01*
X359339Y202121D01*
X359255Y202072D01*
X359173Y202019D01*
X359093Y201964D01*
X359015Y201905D01*
X358940Y201843D01*
X358867Y201778D01*
X358797Y201710D01*
X358729Y201640D01*
X358664Y201567D01*
X358602Y201492D01*
X358543Y201414D01*
X358488Y201334D01*
X358435Y201252D01*
X358386Y201168D01*
X358340Y201082D01*
X358297Y200994D01*
X358258Y200905D01*
X358223Y200814D01*
X358191Y200722D01*
X358162Y200628D01*
X358138Y200534D01*
X358117Y200439D01*
X358100Y200343D01*
X358086Y200246D01*
X358077Y200149D01*
X358071Y200052D01*
X358069Y199954D01*
X358069Y196229D01*
X353102Y196229D01*
X353102Y202438D01*
D13*
X60960Y231140D02*
X35560Y231140D01*
X60960Y231140D02*
X60960Y129540D01*
X35560Y129540D01*
X35560Y231140D01*
X30760Y229290D02*
X30762Y229360D01*
X30768Y229430D01*
X30778Y229499D01*
X30791Y229568D01*
X30809Y229636D01*
X30830Y229703D01*
X30855Y229768D01*
X30884Y229832D01*
X30916Y229895D01*
X30952Y229955D01*
X30991Y230013D01*
X31033Y230069D01*
X31078Y230123D01*
X31126Y230174D01*
X31177Y230222D01*
X31231Y230267D01*
X31287Y230309D01*
X31345Y230348D01*
X31405Y230384D01*
X31468Y230416D01*
X31532Y230445D01*
X31597Y230470D01*
X31664Y230491D01*
X31732Y230509D01*
X31801Y230522D01*
X31870Y230532D01*
X31940Y230538D01*
X32010Y230540D01*
X32080Y230538D01*
X32150Y230532D01*
X32219Y230522D01*
X32288Y230509D01*
X32356Y230491D01*
X32423Y230470D01*
X32488Y230445D01*
X32552Y230416D01*
X32615Y230384D01*
X32675Y230348D01*
X32733Y230309D01*
X32789Y230267D01*
X32843Y230222D01*
X32894Y230174D01*
X32942Y230123D01*
X32987Y230069D01*
X33029Y230013D01*
X33068Y229955D01*
X33104Y229895D01*
X33136Y229832D01*
X33165Y229768D01*
X33190Y229703D01*
X33211Y229636D01*
X33229Y229568D01*
X33242Y229499D01*
X33252Y229430D01*
X33258Y229360D01*
X33260Y229290D01*
X33258Y229220D01*
X33252Y229150D01*
X33242Y229081D01*
X33229Y229012D01*
X33211Y228944D01*
X33190Y228877D01*
X33165Y228812D01*
X33136Y228748D01*
X33104Y228685D01*
X33068Y228625D01*
X33029Y228567D01*
X32987Y228511D01*
X32942Y228457D01*
X32894Y228406D01*
X32843Y228358D01*
X32789Y228313D01*
X32733Y228271D01*
X32675Y228232D01*
X32615Y228196D01*
X32552Y228164D01*
X32488Y228135D01*
X32423Y228110D01*
X32356Y228089D01*
X32288Y228071D01*
X32219Y228058D01*
X32150Y228048D01*
X32080Y228042D01*
X32010Y228040D01*
X31940Y228042D01*
X31870Y228048D01*
X31801Y228058D01*
X31732Y228071D01*
X31664Y228089D01*
X31597Y228110D01*
X31532Y228135D01*
X31468Y228164D01*
X31405Y228196D01*
X31345Y228232D01*
X31287Y228271D01*
X31231Y228313D01*
X31177Y228358D01*
X31126Y228406D01*
X31078Y228457D01*
X31033Y228511D01*
X30991Y228567D01*
X30952Y228625D01*
X30916Y228685D01*
X30884Y228748D01*
X30855Y228812D01*
X30830Y228877D01*
X30809Y228944D01*
X30791Y229012D01*
X30778Y229081D01*
X30768Y229150D01*
X30762Y229220D01*
X30760Y229290D01*
D10*
X25344Y182372D02*
X17272Y182372D01*
X25344Y182372D02*
X25455Y182374D01*
X25565Y182380D01*
X25676Y182390D01*
X25786Y182404D01*
X25895Y182421D01*
X26004Y182443D01*
X26112Y182468D01*
X26218Y182498D01*
X26324Y182531D01*
X26429Y182568D01*
X26532Y182608D01*
X26633Y182653D01*
X26733Y182700D01*
X26832Y182752D01*
X26928Y182807D01*
X27022Y182865D01*
X27114Y182926D01*
X27204Y182991D01*
X27292Y183059D01*
X27377Y183130D01*
X27459Y183204D01*
X27539Y183281D01*
X27616Y183361D01*
X27690Y183443D01*
X27761Y183528D01*
X27829Y183616D01*
X27894Y183706D01*
X27955Y183798D01*
X28013Y183892D01*
X28068Y183988D01*
X28120Y184087D01*
X28167Y184187D01*
X28212Y184288D01*
X28252Y184391D01*
X28289Y184496D01*
X28322Y184602D01*
X28352Y184708D01*
X28377Y184816D01*
X28399Y184925D01*
X28416Y185034D01*
X28430Y185144D01*
X28440Y185255D01*
X28446Y185365D01*
X28448Y185476D01*
X28446Y185587D01*
X28440Y185697D01*
X28430Y185808D01*
X28416Y185918D01*
X28399Y186027D01*
X28377Y186136D01*
X28352Y186244D01*
X28322Y186350D01*
X28289Y186456D01*
X28252Y186561D01*
X28212Y186664D01*
X28167Y186765D01*
X28120Y186865D01*
X28068Y186964D01*
X28013Y187060D01*
X27955Y187154D01*
X27894Y187246D01*
X27829Y187336D01*
X27761Y187424D01*
X27690Y187509D01*
X27616Y187591D01*
X27539Y187671D01*
X27459Y187748D01*
X27377Y187822D01*
X27292Y187893D01*
X27204Y187961D01*
X27114Y188026D01*
X27022Y188087D01*
X26928Y188145D01*
X26832Y188200D01*
X26733Y188252D01*
X26633Y188299D01*
X26532Y188344D01*
X26429Y188384D01*
X26324Y188421D01*
X26218Y188454D01*
X26112Y188484D01*
X26004Y188509D01*
X25895Y188531D01*
X25786Y188548D01*
X25676Y188562D01*
X25565Y188572D01*
X25455Y188578D01*
X25344Y188580D01*
X25344Y188581D02*
X17272Y188581D01*
X22239Y194183D02*
X22239Y197908D01*
X22241Y198006D01*
X22247Y198103D01*
X22256Y198200D01*
X22270Y198297D01*
X22287Y198393D01*
X22308Y198488D01*
X22332Y198582D01*
X22361Y198676D01*
X22393Y198768D01*
X22428Y198859D01*
X22467Y198948D01*
X22510Y199036D01*
X22556Y199122D01*
X22605Y199206D01*
X22658Y199288D01*
X22713Y199368D01*
X22772Y199446D01*
X22834Y199521D01*
X22899Y199594D01*
X22967Y199664D01*
X23037Y199732D01*
X23110Y199797D01*
X23185Y199859D01*
X23263Y199918D01*
X23343Y199973D01*
X23425Y200026D01*
X23509Y200075D01*
X23595Y200121D01*
X23683Y200164D01*
X23772Y200203D01*
X23863Y200238D01*
X23955Y200270D01*
X24049Y200299D01*
X24143Y200323D01*
X24238Y200344D01*
X24334Y200361D01*
X24431Y200375D01*
X24528Y200384D01*
X24625Y200390D01*
X24723Y200392D01*
X25344Y200392D01*
X25344Y200391D02*
X25455Y200389D01*
X25565Y200383D01*
X25676Y200373D01*
X25786Y200359D01*
X25895Y200342D01*
X26004Y200320D01*
X26112Y200295D01*
X26218Y200265D01*
X26324Y200232D01*
X26429Y200195D01*
X26532Y200155D01*
X26633Y200110D01*
X26733Y200063D01*
X26832Y200011D01*
X26928Y199956D01*
X27022Y199898D01*
X27114Y199837D01*
X27204Y199772D01*
X27292Y199704D01*
X27377Y199633D01*
X27459Y199559D01*
X27539Y199482D01*
X27616Y199402D01*
X27690Y199320D01*
X27761Y199235D01*
X27829Y199147D01*
X27894Y199057D01*
X27955Y198965D01*
X28013Y198871D01*
X28068Y198775D01*
X28120Y198676D01*
X28167Y198576D01*
X28212Y198475D01*
X28252Y198372D01*
X28289Y198267D01*
X28322Y198161D01*
X28352Y198055D01*
X28377Y197947D01*
X28399Y197838D01*
X28416Y197729D01*
X28430Y197619D01*
X28440Y197508D01*
X28446Y197398D01*
X28448Y197287D01*
X28446Y197176D01*
X28440Y197066D01*
X28430Y196955D01*
X28416Y196845D01*
X28399Y196736D01*
X28377Y196627D01*
X28352Y196519D01*
X28322Y196413D01*
X28289Y196307D01*
X28252Y196202D01*
X28212Y196099D01*
X28167Y195998D01*
X28120Y195898D01*
X28068Y195799D01*
X28013Y195703D01*
X27955Y195609D01*
X27894Y195517D01*
X27829Y195427D01*
X27761Y195339D01*
X27690Y195254D01*
X27616Y195172D01*
X27539Y195092D01*
X27459Y195015D01*
X27377Y194941D01*
X27292Y194870D01*
X27204Y194802D01*
X27114Y194737D01*
X27022Y194676D01*
X26928Y194618D01*
X26832Y194563D01*
X26733Y194511D01*
X26633Y194464D01*
X26532Y194419D01*
X26429Y194379D01*
X26324Y194342D01*
X26218Y194309D01*
X26112Y194279D01*
X26004Y194254D01*
X25895Y194232D01*
X25786Y194215D01*
X25676Y194201D01*
X25565Y194191D01*
X25455Y194185D01*
X25344Y194183D01*
X22239Y194183D01*
X22100Y194185D01*
X21960Y194191D01*
X21822Y194201D01*
X21683Y194214D01*
X21545Y194232D01*
X21407Y194253D01*
X21270Y194278D01*
X21134Y194308D01*
X20998Y194340D01*
X20864Y194377D01*
X20731Y194418D01*
X20599Y194462D01*
X20468Y194510D01*
X20338Y194561D01*
X20210Y194616D01*
X20084Y194675D01*
X19959Y194737D01*
X19836Y194803D01*
X19715Y194872D01*
X19596Y194944D01*
X19479Y195020D01*
X19365Y195099D01*
X19252Y195181D01*
X19142Y195267D01*
X19034Y195355D01*
X18929Y195446D01*
X18827Y195541D01*
X18727Y195638D01*
X18630Y195738D01*
X18535Y195840D01*
X18444Y195945D01*
X18356Y196053D01*
X18270Y196163D01*
X18188Y196276D01*
X18109Y196390D01*
X18033Y196507D01*
X17961Y196626D01*
X17892Y196747D01*
X17826Y196870D01*
X17764Y196995D01*
X17705Y197121D01*
X17650Y197249D01*
X17599Y197379D01*
X17551Y197509D01*
X17507Y197642D01*
X17466Y197775D01*
X17429Y197909D01*
X17397Y198045D01*
X17367Y198181D01*
X17342Y198318D01*
X17321Y198456D01*
X17303Y198594D01*
X17290Y198732D01*
X17280Y198871D01*
X17274Y199011D01*
X17272Y199150D01*
X254508Y187339D02*
X254508Y184856D01*
X254506Y184758D01*
X254500Y184661D01*
X254491Y184564D01*
X254477Y184467D01*
X254460Y184371D01*
X254439Y184276D01*
X254415Y184182D01*
X254386Y184088D01*
X254354Y183996D01*
X254319Y183905D01*
X254280Y183816D01*
X254237Y183728D01*
X254191Y183642D01*
X254142Y183558D01*
X254089Y183476D01*
X254034Y183396D01*
X253975Y183318D01*
X253913Y183243D01*
X253848Y183170D01*
X253780Y183100D01*
X253710Y183032D01*
X253637Y182967D01*
X253562Y182905D01*
X253484Y182846D01*
X253404Y182791D01*
X253322Y182738D01*
X253238Y182689D01*
X253152Y182643D01*
X253064Y182600D01*
X252975Y182561D01*
X252884Y182526D01*
X252792Y182494D01*
X252698Y182465D01*
X252604Y182441D01*
X252509Y182420D01*
X252413Y182403D01*
X252316Y182389D01*
X252219Y182380D01*
X252122Y182374D01*
X252024Y182372D01*
X245816Y182372D01*
X245718Y182374D01*
X245621Y182380D01*
X245524Y182389D01*
X245427Y182403D01*
X245331Y182420D01*
X245236Y182441D01*
X245142Y182465D01*
X245048Y182494D01*
X244956Y182526D01*
X244865Y182561D01*
X244776Y182600D01*
X244688Y182643D01*
X244602Y182689D01*
X244518Y182738D01*
X244436Y182791D01*
X244356Y182846D01*
X244278Y182905D01*
X244203Y182967D01*
X244130Y183032D01*
X244060Y183100D01*
X243992Y183170D01*
X243927Y183243D01*
X243865Y183318D01*
X243806Y183396D01*
X243751Y183476D01*
X243698Y183558D01*
X243649Y183642D01*
X243603Y183728D01*
X243560Y183816D01*
X243521Y183905D01*
X243486Y183996D01*
X243454Y184088D01*
X243425Y184182D01*
X243401Y184276D01*
X243380Y184371D01*
X243363Y184467D01*
X243349Y184564D01*
X243340Y184661D01*
X243334Y184758D01*
X243332Y184856D01*
X243332Y187339D01*
X243332Y195353D02*
X243334Y195457D01*
X243340Y195562D01*
X243350Y195666D01*
X243363Y195769D01*
X243381Y195872D01*
X243402Y195975D01*
X243427Y196076D01*
X243456Y196177D01*
X243489Y196276D01*
X243525Y196374D01*
X243565Y196470D01*
X243609Y196565D01*
X243656Y196659D01*
X243706Y196750D01*
X243760Y196839D01*
X243817Y196927D01*
X243878Y197012D01*
X243942Y197095D01*
X244008Y197175D01*
X244078Y197253D01*
X244150Y197329D01*
X244226Y197401D01*
X244304Y197471D01*
X244384Y197537D01*
X244467Y197601D01*
X244552Y197662D01*
X244640Y197719D01*
X244729Y197773D01*
X244820Y197823D01*
X244914Y197870D01*
X245009Y197914D01*
X245105Y197954D01*
X245203Y197990D01*
X245302Y198023D01*
X245403Y198052D01*
X245504Y198077D01*
X245607Y198098D01*
X245710Y198116D01*
X245813Y198129D01*
X245917Y198139D01*
X246022Y198145D01*
X246126Y198147D01*
X243332Y195353D02*
X243334Y195234D01*
X243340Y195116D01*
X243350Y194997D01*
X243363Y194879D01*
X243381Y194762D01*
X243403Y194645D01*
X243428Y194529D01*
X243457Y194414D01*
X243490Y194299D01*
X243527Y194186D01*
X243567Y194075D01*
X243611Y193964D01*
X243659Y193856D01*
X243710Y193749D01*
X243765Y193643D01*
X243824Y193540D01*
X243885Y193438D01*
X243950Y193339D01*
X244019Y193241D01*
X244090Y193147D01*
X244165Y193054D01*
X244242Y192964D01*
X244323Y192877D01*
X244406Y192792D01*
X244492Y192710D01*
X244581Y192631D01*
X244672Y192555D01*
X244766Y192482D01*
X244862Y192413D01*
X244961Y192346D01*
X245061Y192283D01*
X245164Y192223D01*
X245268Y192166D01*
X245375Y192114D01*
X245483Y192064D01*
X245592Y192018D01*
X245704Y191976D01*
X245816Y191938D01*
X248299Y197216D02*
X248225Y197291D01*
X248148Y197363D01*
X248069Y197433D01*
X247987Y197500D01*
X247903Y197564D01*
X247817Y197625D01*
X247729Y197683D01*
X247638Y197738D01*
X247546Y197790D01*
X247452Y197838D01*
X247357Y197883D01*
X247259Y197925D01*
X247161Y197963D01*
X247061Y197998D01*
X246960Y198029D01*
X246858Y198056D01*
X246755Y198080D01*
X246652Y198101D01*
X246547Y198117D01*
X246442Y198130D01*
X246337Y198140D01*
X246232Y198145D01*
X246126Y198147D01*
X248299Y197216D02*
X254508Y191939D01*
X254508Y198147D01*
X373888Y148450D02*
X373888Y145966D01*
X373886Y145868D01*
X373880Y145771D01*
X373871Y145674D01*
X373857Y145577D01*
X373840Y145481D01*
X373819Y145386D01*
X373795Y145292D01*
X373766Y145198D01*
X373734Y145106D01*
X373699Y145015D01*
X373660Y144926D01*
X373617Y144838D01*
X373571Y144752D01*
X373522Y144668D01*
X373469Y144586D01*
X373414Y144506D01*
X373355Y144428D01*
X373293Y144353D01*
X373228Y144280D01*
X373160Y144210D01*
X373090Y144142D01*
X373017Y144077D01*
X372942Y144015D01*
X372864Y143956D01*
X372784Y143901D01*
X372702Y143848D01*
X372618Y143799D01*
X372532Y143753D01*
X372444Y143710D01*
X372355Y143671D01*
X372264Y143636D01*
X372172Y143604D01*
X372078Y143575D01*
X371984Y143551D01*
X371889Y143530D01*
X371793Y143513D01*
X371696Y143499D01*
X371599Y143490D01*
X371502Y143484D01*
X371404Y143482D01*
X371404Y143483D02*
X365196Y143483D01*
X365196Y143482D02*
X365098Y143484D01*
X365001Y143490D01*
X364904Y143499D01*
X364807Y143513D01*
X364711Y143530D01*
X364616Y143551D01*
X364522Y143575D01*
X364428Y143604D01*
X364336Y143636D01*
X364245Y143671D01*
X364156Y143710D01*
X364068Y143753D01*
X363982Y143799D01*
X363898Y143848D01*
X363816Y143901D01*
X363736Y143956D01*
X363658Y144015D01*
X363583Y144077D01*
X363510Y144142D01*
X363440Y144210D01*
X363372Y144280D01*
X363307Y144353D01*
X363245Y144428D01*
X363186Y144506D01*
X363131Y144586D01*
X363078Y144668D01*
X363029Y144752D01*
X362983Y144838D01*
X362940Y144926D01*
X362901Y145015D01*
X362866Y145106D01*
X362834Y145198D01*
X362805Y145292D01*
X362781Y145386D01*
X362760Y145481D01*
X362743Y145577D01*
X362729Y145674D01*
X362720Y145771D01*
X362714Y145868D01*
X362712Y145966D01*
X362712Y148450D01*
X373888Y153049D02*
X373888Y156774D01*
X373886Y156872D01*
X373880Y156969D01*
X373871Y157066D01*
X373857Y157163D01*
X373840Y157259D01*
X373819Y157354D01*
X373795Y157448D01*
X373766Y157542D01*
X373734Y157634D01*
X373699Y157725D01*
X373660Y157814D01*
X373617Y157902D01*
X373571Y157988D01*
X373522Y158072D01*
X373469Y158154D01*
X373414Y158234D01*
X373355Y158312D01*
X373293Y158387D01*
X373228Y158460D01*
X373160Y158530D01*
X373090Y158598D01*
X373017Y158663D01*
X372942Y158725D01*
X372864Y158784D01*
X372784Y158839D01*
X372702Y158892D01*
X372618Y158941D01*
X372532Y158987D01*
X372444Y159030D01*
X372355Y159069D01*
X372264Y159104D01*
X372172Y159136D01*
X372078Y159165D01*
X371984Y159189D01*
X371889Y159210D01*
X371793Y159227D01*
X371696Y159241D01*
X371599Y159250D01*
X371502Y159256D01*
X371404Y159258D01*
X370163Y159258D01*
X370065Y159256D01*
X369968Y159250D01*
X369871Y159241D01*
X369774Y159227D01*
X369678Y159210D01*
X369583Y159189D01*
X369489Y159165D01*
X369395Y159136D01*
X369303Y159104D01*
X369212Y159069D01*
X369123Y159030D01*
X369035Y158987D01*
X368949Y158941D01*
X368865Y158892D01*
X368783Y158839D01*
X368703Y158784D01*
X368625Y158725D01*
X368550Y158663D01*
X368477Y158598D01*
X368407Y158530D01*
X368339Y158460D01*
X368274Y158387D01*
X368212Y158312D01*
X368153Y158234D01*
X368098Y158154D01*
X368045Y158072D01*
X367996Y157988D01*
X367950Y157902D01*
X367907Y157814D01*
X367868Y157725D01*
X367833Y157634D01*
X367801Y157542D01*
X367772Y157448D01*
X367748Y157354D01*
X367727Y157259D01*
X367710Y157163D01*
X367696Y157066D01*
X367687Y156969D01*
X367681Y156872D01*
X367679Y156774D01*
X367679Y153049D01*
X362712Y153049D01*
X362712Y159258D01*
X269748Y231846D02*
X269748Y234329D01*
X269748Y231846D02*
X269746Y231748D01*
X269740Y231651D01*
X269731Y231554D01*
X269717Y231457D01*
X269700Y231361D01*
X269679Y231266D01*
X269655Y231172D01*
X269626Y231078D01*
X269594Y230986D01*
X269559Y230895D01*
X269520Y230806D01*
X269477Y230718D01*
X269431Y230632D01*
X269382Y230548D01*
X269329Y230466D01*
X269274Y230386D01*
X269215Y230308D01*
X269153Y230233D01*
X269088Y230160D01*
X269020Y230090D01*
X268950Y230022D01*
X268877Y229957D01*
X268802Y229895D01*
X268724Y229836D01*
X268644Y229781D01*
X268562Y229728D01*
X268478Y229679D01*
X268392Y229633D01*
X268304Y229590D01*
X268215Y229551D01*
X268124Y229516D01*
X268032Y229484D01*
X267938Y229455D01*
X267844Y229431D01*
X267749Y229410D01*
X267653Y229393D01*
X267556Y229379D01*
X267459Y229370D01*
X267362Y229364D01*
X267264Y229362D01*
X261056Y229362D01*
X260958Y229364D01*
X260861Y229370D01*
X260764Y229379D01*
X260667Y229393D01*
X260571Y229410D01*
X260476Y229431D01*
X260382Y229455D01*
X260288Y229484D01*
X260196Y229516D01*
X260105Y229551D01*
X260016Y229590D01*
X259928Y229633D01*
X259842Y229679D01*
X259758Y229728D01*
X259676Y229781D01*
X259596Y229836D01*
X259518Y229895D01*
X259443Y229957D01*
X259370Y230022D01*
X259300Y230090D01*
X259232Y230160D01*
X259167Y230233D01*
X259105Y230308D01*
X259046Y230386D01*
X258991Y230466D01*
X258938Y230548D01*
X258889Y230632D01*
X258843Y230718D01*
X258800Y230806D01*
X258761Y230895D01*
X258726Y230986D01*
X258694Y231078D01*
X258665Y231172D01*
X258641Y231266D01*
X258620Y231361D01*
X258603Y231457D01*
X258589Y231554D01*
X258580Y231651D01*
X258574Y231748D01*
X258572Y231846D01*
X258572Y234329D01*
X263539Y238929D02*
X263539Y242654D01*
X263541Y242752D01*
X263547Y242849D01*
X263556Y242946D01*
X263570Y243043D01*
X263587Y243139D01*
X263608Y243234D01*
X263632Y243328D01*
X263661Y243422D01*
X263693Y243514D01*
X263728Y243605D01*
X263767Y243694D01*
X263810Y243782D01*
X263856Y243868D01*
X263905Y243952D01*
X263958Y244034D01*
X264013Y244114D01*
X264072Y244192D01*
X264134Y244267D01*
X264199Y244340D01*
X264267Y244410D01*
X264337Y244478D01*
X264410Y244543D01*
X264485Y244605D01*
X264563Y244664D01*
X264643Y244719D01*
X264725Y244772D01*
X264809Y244821D01*
X264895Y244867D01*
X264983Y244910D01*
X265072Y244949D01*
X265163Y244984D01*
X265255Y245016D01*
X265349Y245045D01*
X265443Y245069D01*
X265538Y245090D01*
X265634Y245107D01*
X265731Y245121D01*
X265828Y245130D01*
X265925Y245136D01*
X266023Y245138D01*
X266023Y245137D02*
X266644Y245137D01*
X266755Y245135D01*
X266865Y245129D01*
X266976Y245119D01*
X267086Y245105D01*
X267195Y245088D01*
X267304Y245066D01*
X267412Y245041D01*
X267518Y245011D01*
X267624Y244978D01*
X267729Y244941D01*
X267832Y244901D01*
X267933Y244856D01*
X268033Y244809D01*
X268132Y244757D01*
X268228Y244702D01*
X268322Y244644D01*
X268414Y244583D01*
X268504Y244518D01*
X268592Y244450D01*
X268677Y244379D01*
X268759Y244305D01*
X268839Y244228D01*
X268916Y244148D01*
X268990Y244066D01*
X269061Y243981D01*
X269129Y243893D01*
X269194Y243803D01*
X269255Y243711D01*
X269313Y243617D01*
X269368Y243521D01*
X269420Y243422D01*
X269467Y243322D01*
X269512Y243221D01*
X269552Y243118D01*
X269589Y243013D01*
X269622Y242907D01*
X269652Y242801D01*
X269677Y242693D01*
X269699Y242584D01*
X269716Y242475D01*
X269730Y242365D01*
X269740Y242254D01*
X269746Y242144D01*
X269748Y242033D01*
X269746Y241922D01*
X269740Y241812D01*
X269730Y241701D01*
X269716Y241591D01*
X269699Y241482D01*
X269677Y241373D01*
X269652Y241265D01*
X269622Y241159D01*
X269589Y241053D01*
X269552Y240948D01*
X269512Y240845D01*
X269467Y240744D01*
X269420Y240644D01*
X269368Y240545D01*
X269313Y240449D01*
X269255Y240355D01*
X269194Y240263D01*
X269129Y240173D01*
X269061Y240085D01*
X268990Y240000D01*
X268916Y239918D01*
X268839Y239838D01*
X268759Y239761D01*
X268677Y239687D01*
X268592Y239616D01*
X268504Y239548D01*
X268414Y239483D01*
X268322Y239422D01*
X268228Y239364D01*
X268132Y239309D01*
X268033Y239257D01*
X267933Y239210D01*
X267832Y239165D01*
X267729Y239125D01*
X267624Y239088D01*
X267518Y239055D01*
X267412Y239025D01*
X267304Y239000D01*
X267195Y238978D01*
X267086Y238961D01*
X266976Y238947D01*
X266865Y238937D01*
X266755Y238931D01*
X266644Y238929D01*
X263539Y238929D01*
X263400Y238931D01*
X263260Y238937D01*
X263122Y238947D01*
X262983Y238960D01*
X262845Y238978D01*
X262707Y238999D01*
X262570Y239024D01*
X262434Y239054D01*
X262298Y239086D01*
X262164Y239123D01*
X262031Y239164D01*
X261899Y239208D01*
X261768Y239256D01*
X261638Y239307D01*
X261510Y239362D01*
X261384Y239421D01*
X261259Y239483D01*
X261136Y239549D01*
X261015Y239618D01*
X260896Y239690D01*
X260779Y239766D01*
X260665Y239845D01*
X260552Y239927D01*
X260442Y240013D01*
X260334Y240101D01*
X260229Y240192D01*
X260127Y240287D01*
X260027Y240384D01*
X259930Y240484D01*
X259835Y240586D01*
X259744Y240691D01*
X259656Y240799D01*
X259570Y240909D01*
X259488Y241022D01*
X259409Y241136D01*
X259333Y241253D01*
X259261Y241372D01*
X259192Y241493D01*
X259126Y241616D01*
X259064Y241741D01*
X259005Y241867D01*
X258950Y241995D01*
X258899Y242125D01*
X258851Y242255D01*
X258807Y242388D01*
X258766Y242521D01*
X258729Y242655D01*
X258697Y242791D01*
X258667Y242927D01*
X258642Y243064D01*
X258621Y243202D01*
X258603Y243340D01*
X258590Y243478D01*
X258580Y243617D01*
X258574Y243757D01*
X258572Y243896D01*
X503682Y16002D02*
X514858Y16002D01*
X503682Y16002D02*
X503682Y19106D01*
X503684Y19217D01*
X503690Y19327D01*
X503700Y19438D01*
X503714Y19548D01*
X503731Y19657D01*
X503753Y19766D01*
X503778Y19874D01*
X503808Y19980D01*
X503841Y20086D01*
X503878Y20191D01*
X503918Y20294D01*
X503963Y20395D01*
X504010Y20495D01*
X504062Y20594D01*
X504117Y20690D01*
X504175Y20784D01*
X504236Y20876D01*
X504301Y20966D01*
X504369Y21054D01*
X504440Y21139D01*
X504514Y21221D01*
X504591Y21301D01*
X504671Y21378D01*
X504753Y21452D01*
X504838Y21523D01*
X504926Y21591D01*
X505016Y21656D01*
X505108Y21717D01*
X505202Y21775D01*
X505298Y21830D01*
X505397Y21882D01*
X505497Y21929D01*
X505598Y21974D01*
X505701Y22014D01*
X505806Y22051D01*
X505912Y22084D01*
X506018Y22114D01*
X506126Y22139D01*
X506235Y22161D01*
X506344Y22178D01*
X506454Y22192D01*
X506565Y22202D01*
X506675Y22208D01*
X506786Y22210D01*
X506897Y22208D01*
X507007Y22202D01*
X507118Y22192D01*
X507228Y22178D01*
X507337Y22161D01*
X507446Y22139D01*
X507554Y22114D01*
X507660Y22084D01*
X507766Y22051D01*
X507871Y22014D01*
X507974Y21974D01*
X508075Y21929D01*
X508175Y21882D01*
X508274Y21830D01*
X508370Y21775D01*
X508464Y21717D01*
X508556Y21656D01*
X508646Y21591D01*
X508734Y21523D01*
X508819Y21452D01*
X508901Y21378D01*
X508981Y21301D01*
X509058Y21221D01*
X509132Y21139D01*
X509203Y21054D01*
X509271Y20966D01*
X509336Y20876D01*
X509397Y20784D01*
X509455Y20690D01*
X509510Y20594D01*
X509562Y20495D01*
X509609Y20395D01*
X509654Y20294D01*
X509694Y20191D01*
X509731Y20086D01*
X509764Y19980D01*
X509794Y19874D01*
X509819Y19766D01*
X509841Y19657D01*
X509858Y19548D01*
X509872Y19438D01*
X509882Y19327D01*
X509888Y19217D01*
X509890Y19106D01*
X509891Y19106D02*
X509891Y16002D01*
X509891Y19727D02*
X514858Y22211D01*
X506166Y27340D02*
X503682Y30444D01*
X514858Y30444D01*
X514858Y27340D02*
X514858Y33549D01*
D13*
X60960Y299720D02*
X35560Y299720D01*
X60960Y299720D02*
X60960Y248920D01*
X35560Y248920D01*
X35560Y299720D01*
D10*
X28504Y277537D02*
X19812Y277537D01*
X28504Y277538D02*
X28602Y277536D01*
X28699Y277530D01*
X28796Y277521D01*
X28893Y277507D01*
X28989Y277490D01*
X29084Y277469D01*
X29178Y277445D01*
X29272Y277416D01*
X29364Y277384D01*
X29455Y277349D01*
X29544Y277310D01*
X29632Y277267D01*
X29718Y277221D01*
X29802Y277172D01*
X29884Y277119D01*
X29964Y277064D01*
X30042Y277005D01*
X30117Y276943D01*
X30190Y276878D01*
X30260Y276810D01*
X30328Y276740D01*
X30393Y276667D01*
X30455Y276592D01*
X30514Y276514D01*
X30569Y276434D01*
X30622Y276352D01*
X30671Y276268D01*
X30717Y276182D01*
X30760Y276094D01*
X30799Y276005D01*
X30834Y275914D01*
X30866Y275822D01*
X30895Y275728D01*
X30919Y275634D01*
X30940Y275539D01*
X30957Y275443D01*
X30971Y275346D01*
X30980Y275249D01*
X30986Y275151D01*
X30988Y275054D01*
X30988Y273812D01*
X22296Y283081D02*
X19812Y286186D01*
X30988Y286186D01*
X30988Y289290D02*
X30988Y283081D01*
D13*
X426720Y269240D02*
X436880Y269240D01*
D10*
X440182Y262382D02*
X451358Y262382D01*
X440182Y262382D02*
X440182Y265486D01*
X440184Y265597D01*
X440190Y265707D01*
X440200Y265818D01*
X440214Y265928D01*
X440231Y266037D01*
X440253Y266146D01*
X440278Y266254D01*
X440308Y266360D01*
X440341Y266466D01*
X440378Y266571D01*
X440418Y266674D01*
X440463Y266775D01*
X440510Y266875D01*
X440562Y266974D01*
X440617Y267070D01*
X440675Y267164D01*
X440736Y267256D01*
X440801Y267346D01*
X440869Y267434D01*
X440940Y267519D01*
X441014Y267601D01*
X441091Y267681D01*
X441171Y267758D01*
X441253Y267832D01*
X441338Y267903D01*
X441426Y267971D01*
X441516Y268036D01*
X441608Y268097D01*
X441702Y268155D01*
X441798Y268210D01*
X441897Y268262D01*
X441997Y268309D01*
X442098Y268354D01*
X442201Y268394D01*
X442306Y268431D01*
X442412Y268464D01*
X442518Y268494D01*
X442626Y268519D01*
X442735Y268541D01*
X442844Y268558D01*
X442954Y268572D01*
X443065Y268582D01*
X443175Y268588D01*
X443286Y268590D01*
X443397Y268588D01*
X443507Y268582D01*
X443618Y268572D01*
X443728Y268558D01*
X443837Y268541D01*
X443946Y268519D01*
X444054Y268494D01*
X444160Y268464D01*
X444266Y268431D01*
X444371Y268394D01*
X444474Y268354D01*
X444575Y268309D01*
X444675Y268262D01*
X444774Y268210D01*
X444870Y268155D01*
X444964Y268097D01*
X445056Y268036D01*
X445146Y267971D01*
X445234Y267903D01*
X445319Y267832D01*
X445401Y267758D01*
X445481Y267681D01*
X445558Y267601D01*
X445632Y267519D01*
X445703Y267434D01*
X445771Y267346D01*
X445836Y267256D01*
X445897Y267164D01*
X445955Y267070D01*
X446010Y266974D01*
X446062Y266875D01*
X446109Y266775D01*
X446154Y266674D01*
X446194Y266571D01*
X446231Y266466D01*
X446264Y266360D01*
X446294Y266254D01*
X446319Y266146D01*
X446341Y266037D01*
X446358Y265928D01*
X446372Y265818D01*
X446382Y265707D01*
X446388Y265597D01*
X446390Y265486D01*
X446391Y265486D02*
X446391Y262382D01*
X446391Y266107D02*
X451358Y268591D01*
X451358Y273720D02*
X451358Y276824D01*
X451356Y276935D01*
X451350Y277045D01*
X451340Y277156D01*
X451326Y277266D01*
X451309Y277375D01*
X451287Y277484D01*
X451262Y277592D01*
X451232Y277698D01*
X451199Y277804D01*
X451162Y277909D01*
X451122Y278012D01*
X451077Y278113D01*
X451030Y278213D01*
X450978Y278312D01*
X450923Y278408D01*
X450865Y278502D01*
X450804Y278594D01*
X450739Y278684D01*
X450671Y278772D01*
X450600Y278857D01*
X450526Y278939D01*
X450449Y279019D01*
X450369Y279096D01*
X450287Y279170D01*
X450202Y279241D01*
X450114Y279309D01*
X450024Y279374D01*
X449932Y279435D01*
X449838Y279493D01*
X449742Y279548D01*
X449643Y279600D01*
X449543Y279647D01*
X449442Y279692D01*
X449339Y279732D01*
X449234Y279769D01*
X449128Y279802D01*
X449022Y279832D01*
X448914Y279857D01*
X448805Y279879D01*
X448696Y279896D01*
X448586Y279910D01*
X448475Y279920D01*
X448365Y279926D01*
X448254Y279928D01*
X448143Y279926D01*
X448033Y279920D01*
X447922Y279910D01*
X447812Y279896D01*
X447703Y279879D01*
X447594Y279857D01*
X447486Y279832D01*
X447380Y279802D01*
X447274Y279769D01*
X447169Y279732D01*
X447066Y279692D01*
X446965Y279647D01*
X446865Y279600D01*
X446766Y279548D01*
X446670Y279493D01*
X446576Y279435D01*
X446484Y279374D01*
X446394Y279309D01*
X446306Y279241D01*
X446221Y279170D01*
X446139Y279096D01*
X446059Y279019D01*
X445982Y278939D01*
X445908Y278857D01*
X445837Y278772D01*
X445769Y278684D01*
X445704Y278594D01*
X445643Y278502D01*
X445585Y278408D01*
X445530Y278312D01*
X445478Y278213D01*
X445431Y278113D01*
X445386Y278012D01*
X445346Y277909D01*
X445309Y277804D01*
X445276Y277698D01*
X445246Y277592D01*
X445221Y277484D01*
X445199Y277375D01*
X445182Y277266D01*
X445168Y277156D01*
X445158Y277045D01*
X445152Y276935D01*
X445150Y276824D01*
X440182Y277445D02*
X440182Y273720D01*
X440182Y277445D02*
X440184Y277544D01*
X440190Y277642D01*
X440200Y277741D01*
X440213Y277838D01*
X440231Y277936D01*
X440252Y278032D01*
X440278Y278128D01*
X440307Y278222D01*
X440339Y278315D01*
X440376Y278407D01*
X440416Y278497D01*
X440460Y278586D01*
X440507Y278673D01*
X440557Y278758D01*
X440611Y278840D01*
X440668Y278921D01*
X440728Y278999D01*
X440792Y279075D01*
X440858Y279148D01*
X440927Y279219D01*
X440999Y279287D01*
X441074Y279351D01*
X441151Y279413D01*
X441230Y279472D01*
X441312Y279527D01*
X441396Y279580D01*
X441481Y279628D01*
X441569Y279674D01*
X441659Y279716D01*
X441750Y279754D01*
X441842Y279788D01*
X441936Y279819D01*
X442031Y279846D01*
X442127Y279870D01*
X442224Y279889D01*
X442321Y279905D01*
X442419Y279917D01*
X442518Y279925D01*
X442617Y279929D01*
X442715Y279929D01*
X442814Y279925D01*
X442913Y279917D01*
X443011Y279905D01*
X443108Y279889D01*
X443205Y279870D01*
X443301Y279846D01*
X443396Y279819D01*
X443490Y279788D01*
X443582Y279754D01*
X443673Y279716D01*
X443763Y279674D01*
X443851Y279628D01*
X443936Y279580D01*
X444020Y279527D01*
X444102Y279472D01*
X444181Y279413D01*
X444258Y279351D01*
X444333Y279287D01*
X444405Y279219D01*
X444474Y279148D01*
X444540Y279075D01*
X444604Y278999D01*
X444664Y278921D01*
X444721Y278840D01*
X444775Y278758D01*
X444825Y278673D01*
X444872Y278586D01*
X444916Y278497D01*
X444956Y278407D01*
X444993Y278315D01*
X445025Y278222D01*
X445054Y278128D01*
X445080Y278032D01*
X445101Y277936D01*
X445119Y277838D01*
X445132Y277741D01*
X445142Y277642D01*
X445148Y277544D01*
X445150Y277445D01*
X445149Y277445D02*
X445149Y274962D01*
D13*
X411480Y269240D02*
X401320Y269240D01*
D10*
X398018Y262382D02*
X386842Y262382D01*
X386842Y265486D01*
X386844Y265597D01*
X386850Y265707D01*
X386860Y265818D01*
X386874Y265928D01*
X386891Y266037D01*
X386913Y266146D01*
X386938Y266254D01*
X386968Y266360D01*
X387001Y266466D01*
X387038Y266571D01*
X387078Y266674D01*
X387123Y266775D01*
X387170Y266875D01*
X387222Y266974D01*
X387277Y267070D01*
X387335Y267164D01*
X387396Y267256D01*
X387461Y267346D01*
X387529Y267434D01*
X387600Y267519D01*
X387674Y267601D01*
X387751Y267681D01*
X387831Y267758D01*
X387913Y267832D01*
X387998Y267903D01*
X388086Y267971D01*
X388176Y268036D01*
X388268Y268097D01*
X388362Y268155D01*
X388458Y268210D01*
X388557Y268262D01*
X388657Y268309D01*
X388758Y268354D01*
X388861Y268394D01*
X388966Y268431D01*
X389072Y268464D01*
X389178Y268494D01*
X389286Y268519D01*
X389395Y268541D01*
X389504Y268558D01*
X389614Y268572D01*
X389725Y268582D01*
X389835Y268588D01*
X389946Y268590D01*
X390057Y268588D01*
X390167Y268582D01*
X390278Y268572D01*
X390388Y268558D01*
X390497Y268541D01*
X390606Y268519D01*
X390714Y268494D01*
X390820Y268464D01*
X390926Y268431D01*
X391031Y268394D01*
X391134Y268354D01*
X391235Y268309D01*
X391335Y268262D01*
X391434Y268210D01*
X391530Y268155D01*
X391624Y268097D01*
X391716Y268036D01*
X391806Y267971D01*
X391894Y267903D01*
X391979Y267832D01*
X392061Y267758D01*
X392141Y267681D01*
X392218Y267601D01*
X392292Y267519D01*
X392363Y267434D01*
X392431Y267346D01*
X392496Y267256D01*
X392557Y267164D01*
X392615Y267070D01*
X392670Y266974D01*
X392722Y266875D01*
X392769Y266775D01*
X392814Y266674D01*
X392854Y266571D01*
X392891Y266466D01*
X392924Y266360D01*
X392954Y266254D01*
X392979Y266146D01*
X393001Y266037D01*
X393018Y265928D01*
X393032Y265818D01*
X393042Y265707D01*
X393048Y265597D01*
X393050Y265486D01*
X393051Y265486D02*
X393051Y262382D01*
X393051Y266107D02*
X398018Y268591D01*
X395534Y273720D02*
X386842Y276204D01*
X395534Y273720D02*
X395534Y279929D01*
X393051Y278066D02*
X398018Y278066D01*
M02*
