G04 EAGLE Gerber RS-274X export*
G75*
%MOMM*%
%FSLAX34Y34*%
%LPD*%
%INSolderpaste Top*%
%IPPOS*%
%AMOC8*
5,1,8,0,0,1.08239X$1,22.5*%
G01*
%ADD10C,0.100000*%
%ADD11R,0.800000X0.800000*%
%ADD12R,1.100000X1.000000*%
%ADD13R,0.949959X1.031241*%
%ADD14R,0.750000X0.350000*%
%ADD15R,0.350000X0.750000*%
%ADD16R,2.600000X2.600000*%
%ADD17R,1.000000X1.100000*%
%ADD18R,1.143000X1.270000*%
%ADD19R,1.031241X0.949959*%


D10*
X100970Y169240D02*
X100970Y156040D01*
X97970Y156040D01*
X97970Y169240D01*
X100970Y169240D01*
X100970Y156990D02*
X97970Y156990D01*
X97970Y157940D02*
X100970Y157940D01*
X100970Y158890D02*
X97970Y158890D01*
X97970Y159840D02*
X100970Y159840D01*
X100970Y160790D02*
X97970Y160790D01*
X97970Y161740D02*
X100970Y161740D01*
X100970Y162690D02*
X97970Y162690D01*
X97970Y163640D02*
X100970Y163640D01*
X100970Y164590D02*
X97970Y164590D01*
X97970Y165540D02*
X100970Y165540D01*
X100970Y166490D02*
X97970Y166490D01*
X97970Y167440D02*
X100970Y167440D01*
X100970Y168390D02*
X97970Y168390D01*
X107470Y169240D02*
X107470Y156040D01*
X104470Y156040D01*
X104470Y169240D01*
X107470Y169240D01*
X107470Y156990D02*
X104470Y156990D01*
X104470Y157940D02*
X107470Y157940D01*
X107470Y158890D02*
X104470Y158890D01*
X104470Y159840D02*
X107470Y159840D01*
X107470Y160790D02*
X104470Y160790D01*
X104470Y161740D02*
X107470Y161740D01*
X107470Y162690D02*
X104470Y162690D01*
X104470Y163640D02*
X107470Y163640D01*
X107470Y164590D02*
X104470Y164590D01*
X104470Y165540D02*
X107470Y165540D01*
X107470Y166490D02*
X104470Y166490D01*
X104470Y167440D02*
X107470Y167440D01*
X107470Y168390D02*
X104470Y168390D01*
X113970Y169240D02*
X113970Y156040D01*
X110970Y156040D01*
X110970Y169240D01*
X113970Y169240D01*
X113970Y156990D02*
X110970Y156990D01*
X110970Y157940D02*
X113970Y157940D01*
X113970Y158890D02*
X110970Y158890D01*
X110970Y159840D02*
X113970Y159840D01*
X113970Y160790D02*
X110970Y160790D01*
X110970Y161740D02*
X113970Y161740D01*
X113970Y162690D02*
X110970Y162690D01*
X110970Y163640D02*
X113970Y163640D01*
X113970Y164590D02*
X110970Y164590D01*
X110970Y165540D02*
X113970Y165540D01*
X113970Y166490D02*
X110970Y166490D01*
X110970Y167440D02*
X113970Y167440D01*
X113970Y168390D02*
X110970Y168390D01*
X120470Y169240D02*
X120470Y156040D01*
X117470Y156040D01*
X117470Y169240D01*
X120470Y169240D01*
X120470Y156990D02*
X117470Y156990D01*
X117470Y157940D02*
X120470Y157940D01*
X120470Y158890D02*
X117470Y158890D01*
X117470Y159840D02*
X120470Y159840D01*
X120470Y160790D02*
X117470Y160790D01*
X117470Y161740D02*
X120470Y161740D01*
X120470Y162690D02*
X117470Y162690D01*
X117470Y163640D02*
X120470Y163640D01*
X120470Y164590D02*
X117470Y164590D01*
X117470Y165540D02*
X120470Y165540D01*
X120470Y166490D02*
X117470Y166490D01*
X117470Y167440D02*
X120470Y167440D01*
X120470Y168390D02*
X117470Y168390D01*
X120470Y191440D02*
X120470Y204640D01*
X120470Y191440D02*
X117470Y191440D01*
X117470Y204640D01*
X120470Y204640D01*
X120470Y192390D02*
X117470Y192390D01*
X117470Y193340D02*
X120470Y193340D01*
X120470Y194290D02*
X117470Y194290D01*
X117470Y195240D02*
X120470Y195240D01*
X120470Y196190D02*
X117470Y196190D01*
X117470Y197140D02*
X120470Y197140D01*
X120470Y198090D02*
X117470Y198090D01*
X117470Y199040D02*
X120470Y199040D01*
X120470Y199990D02*
X117470Y199990D01*
X117470Y200940D02*
X120470Y200940D01*
X120470Y201890D02*
X117470Y201890D01*
X117470Y202840D02*
X120470Y202840D01*
X120470Y203790D02*
X117470Y203790D01*
X113970Y204640D02*
X113970Y191440D01*
X110970Y191440D01*
X110970Y204640D01*
X113970Y204640D01*
X113970Y192390D02*
X110970Y192390D01*
X110970Y193340D02*
X113970Y193340D01*
X113970Y194290D02*
X110970Y194290D01*
X110970Y195240D02*
X113970Y195240D01*
X113970Y196190D02*
X110970Y196190D01*
X110970Y197140D02*
X113970Y197140D01*
X113970Y198090D02*
X110970Y198090D01*
X110970Y199040D02*
X113970Y199040D01*
X113970Y199990D02*
X110970Y199990D01*
X110970Y200940D02*
X113970Y200940D01*
X113970Y201890D02*
X110970Y201890D01*
X110970Y202840D02*
X113970Y202840D01*
X113970Y203790D02*
X110970Y203790D01*
X107470Y204640D02*
X107470Y191440D01*
X104470Y191440D01*
X104470Y204640D01*
X107470Y204640D01*
X107470Y192390D02*
X104470Y192390D01*
X104470Y193340D02*
X107470Y193340D01*
X107470Y194290D02*
X104470Y194290D01*
X104470Y195240D02*
X107470Y195240D01*
X107470Y196190D02*
X104470Y196190D01*
X104470Y197140D02*
X107470Y197140D01*
X107470Y198090D02*
X104470Y198090D01*
X104470Y199040D02*
X107470Y199040D01*
X107470Y199990D02*
X104470Y199990D01*
X104470Y200940D02*
X107470Y200940D01*
X107470Y201890D02*
X104470Y201890D01*
X104470Y202840D02*
X107470Y202840D01*
X107470Y203790D02*
X104470Y203790D01*
X100970Y204640D02*
X100970Y191440D01*
X97970Y191440D01*
X97970Y204640D01*
X100970Y204640D01*
X100970Y192390D02*
X97970Y192390D01*
X97970Y193340D02*
X100970Y193340D01*
X100970Y194290D02*
X97970Y194290D01*
X97970Y195240D02*
X100970Y195240D01*
X100970Y196190D02*
X97970Y196190D01*
X97970Y197140D02*
X100970Y197140D01*
X100970Y198090D02*
X97970Y198090D01*
X97970Y199040D02*
X100970Y199040D01*
X100970Y199990D02*
X97970Y199990D01*
X97970Y200940D02*
X100970Y200940D01*
X100970Y201890D02*
X97970Y201890D01*
X97970Y202840D02*
X100970Y202840D01*
X100970Y203790D02*
X97970Y203790D01*
D11*
X104260Y99060D03*
X119260Y99060D03*
D12*
X281060Y151130D03*
X298060Y151130D03*
D11*
X162680Y99060D03*
X177680Y99060D03*
X223640Y99060D03*
X238640Y99060D03*
X287140Y99060D03*
X302140Y99060D03*
D13*
X522859Y96520D03*
X538861Y96520D03*
D14*
X294890Y205860D03*
X294890Y200860D03*
X294890Y195860D03*
X294890Y190860D03*
X294890Y185860D03*
X294890Y180860D03*
X334390Y205860D03*
X334390Y200860D03*
X334390Y195860D03*
X334390Y190860D03*
X334390Y185860D03*
X334390Y180860D03*
D15*
X317140Y213110D03*
X302140Y213110D03*
X307140Y213110D03*
X312140Y213110D03*
X322140Y213110D03*
X327140Y213110D03*
X327140Y173610D03*
X322140Y173610D03*
X317140Y173610D03*
X312140Y173610D03*
X307140Y173610D03*
X302140Y173610D03*
D16*
X314640Y193360D03*
D17*
X265430Y183270D03*
X265430Y200270D03*
D12*
X351400Y153670D03*
X334400Y153670D03*
X255660Y219710D03*
X272660Y219710D03*
D18*
X532130Y25400D03*
X549910Y25400D03*
D19*
X431800Y261239D03*
X431800Y277241D03*
X406400Y261239D03*
X406400Y277241D03*
M02*
