M48
;GenerationSoftware,Autodesk,EAGLE,9.6.2*%
;CreationDate,2025-05-06T21:59:52Z*%
FMAT,2
ICI,OFF
METRIC,TZ,000.000
T4C0.305
T3C0.889
T2C1.400
T1C3.175
%
G90
M71
T1
X59690Y34290
X59690Y3556
X3556Y3556
X3556Y34290
T2
X53808Y25046
X48808Y25046
X48808Y12546
X53808Y12546
T3
X4826Y26162
X12768Y7392
X4826Y28702
X50868Y30252
X4826Y14224
X4826Y16764
X4826Y19304
X4826Y21844
X53408Y4852
X53408Y7392
X50868Y4852
X10228Y32792
X10228Y30252
X12768Y32792
X12768Y30252
X15308Y32792
X15308Y30252
X17848Y32792
X17848Y30252
X20388Y32792
X20388Y30252
X22928Y32792
X22928Y30252
X25468Y32792
X25468Y30252
X28008Y32792
X28008Y30252
X30548Y32792
X30548Y30252
X33088Y32792
X33088Y30252
X35628Y32792
X35628Y30252
X38168Y32792
X38168Y30252
X40708Y32792
X40708Y30252
X43248Y32792
X43248Y30252
X45788Y32792
X45788Y30252
X48328Y32792
X48328Y30252
X50868Y32792
X50868Y7392
X53408Y32792
X53408Y30252
X10228Y7392
X10228Y4852
X48328Y4852
X12768Y4852
X15308Y7392
X15308Y4852
X17848Y7392
X17848Y4852
X20388Y7392
X20388Y4852
X22928Y7392
X22928Y4852
X25468Y7392
X25468Y4852
X28008Y7392
X28008Y4852
X30548Y7392
X30548Y4852
X33088Y7392
X33088Y4852
X35628Y7392
X35628Y4852
X38168Y7392
X38168Y4852
X40708Y7392
X40708Y4852
X43248Y7392
X43248Y4852
X45788Y7392
X45788Y4852
X48328Y7392
T4
X33528Y17018
X50546Y2540
X2540Y16764
X52324Y10922
X40640Y24892
X10160Y14732
X12954Y9906
X18796Y9906
X24892Y9906
X43180Y24892
X29972Y16256
X11176Y18034
X28194Y20828
X31242Y9906
X24384Y22098
X27686Y19558
X2540Y26162
X32766Y22352
X28194Y17526
M30
